<?xml version="1.0"?>
<svg width="9680" height="9690" xmlns="http://www.w3.org/2000/svg" xmlns:svg="http://www.w3.org/2000/svg" preserveAspectRatio="xMidYMid meet">
 <g>
  <title>Layer 1</title>
  <g fill-opacity="0" fill="#ffffff" id="layer1">
   <path fill="#000000" id="svg_1" d="m0,4845l0,-4845l4840,0l4840,0l0,4845l0,4845l-4840,0l-4840,0l0,-4845zm7515,4729c405,-198 619,-344 1015,-695c85,-75 194,-177 241,-226c269,-276 533,-657 721,-1038c84,-171 163,-353 156,-360c-3,-4 -142,-6 -309,-5c-195,0 -322,-4 -354,-11c-100,-23 -176,-60 -230,-115c-67,-67 -85,-117 -85,-240c0,-83 4,-101 34,-174c19,-45 62,-127 95,-183c33,-56 65,-115 70,-130c24,-63 5,-129 -46,-164c-38,-27 -160,-63 -208,-63c-85,0 -195,60 -242,131c-37,56 -28,92 52,210c148,221 185,377 123,521c-30,71 -109,139 -194,167c-100,33 -213,40 -655,41c-451,0 -425,-5 -416,83c10,103 -11,819 -26,872c-32,115 -96,198 -183,241c-51,25 -61,26 -157,22c-96,-5 -107,-7 -186,-47c-46,-24 -118,-64 -160,-90c-99,-61 -120,-71 -156,-73c-61,-4 -82,3 -119,35c-66,58 -106,226 -74,318c19,58 76,137 109,155c51,26 152,16 209,-21c25,-16 96,-57 158,-91c115,-64 185,-84 292,-84c88,0 189,80 240,192c57,123 69,226 69,614c1,253 4,304 17,304c2,0 91,-43 199,-96zm-2650,-886c44,-5 121,-13 170,-17c85,-7 178,-25 307,-57c32,-8 71,-14 87,-14c16,0 65,-11 108,-24c43,-13 106,-30 141,-37c110,-23 103,9 100,-432c-3,-432 -1,-420 -79,-354c-54,47 -171,93 -285,113c-87,16 -98,16 -181,0c-190,-38 -349,-156 -439,-326c-38,-71 -50,-108 -69,-205c-26,-136 -15,-291 29,-414c47,-129 181,-281 306,-346c70,-36 82,-39 190,-45c72,-4 137,-2 175,5c57,11 183,68 268,122c21,13 49,23 62,21l24,-3l5,-352c3,-194 3,-359 0,-368c-5,-13 -58,-15 -418,-15c-450,0 -544,-8 -638,-56c-66,-34 -137,-100 -159,-149c-23,-50 -26,-217 -5,-287c8,-25 54,-118 102,-204c101,-183 112,-225 72,-284c-28,-41 -99,-82 -174,-100c-43,-11 -65,-11 -111,-1c-146,31 -223,102 -223,206c0,47 7,63 69,163c145,231 173,323 137,443c-22,71 -40,101 -89,146c-73,67 -139,92 -280,103c-67,6 -394,10 -727,10c-333,-1 -606,3 -608,8c-1,4 29,44 66,88c95,109 168,221 241,367c87,176 101,222 101,332c0,152 -56,277 -153,342c-66,44 -116,56 -217,51c-76,-4 -96,-10 -183,-51c-54,-26 -135,-71 -180,-101c-92,-61 -128,-72 -186,-56c-49,13 -91,53 -120,114c-37,79 -26,229 24,325c25,50 69,71 145,71c75,-1 91,-8 267,-120c126,-80 151,-87 289,-89c51,-1 73,5 133,35c67,34 76,42 129,122l57,87l0,498l0,499l28,24c15,13 40,27 55,30c15,3 101,25 192,49c91,24 188,48 215,54c141,30 291,54 385,62c58,6 134,13 170,18c96,12 583,12 675,-1zm-2115,-692c0,-293 -4,-322 -39,-293c-24,20 -129,80 -196,113c-57,28 -67,29 -219,32l-159,3l-96,-48c-138,-69 -220,-152 -290,-293c-60,-122 -70,-172 -67,-370c2,-119 4,-130 41,-225c51,-132 66,-154 177,-261c84,-81 101,-93 149,-104c76,-18 272,-24 349,-12c65,10 193,65 240,102c27,21 46,25 54,11c15,-24 -78,-182 -189,-321c-104,-130 -265,-262 -424,-346c-29,-16 -64,-40 -78,-54c-25,-24 -25,-25 -21,-196c2,-95 7,-176 11,-181c5,-4 454,-8 999,-8c883,0 992,-2 1001,-15c7,-12 -3,-32 -43,-85c-54,-71 -92,-144 -116,-224c-29,-95 -10,-291 36,-383c38,-77 118,-174 169,-207c26,-17 56,-40 65,-50c9,-10 36,-26 59,-36c23,-9 61,-25 85,-36c23,-10 61,-19 83,-19c23,0 66,-7 96,-16c30,-9 71,-14 91,-11c157,22 200,30 222,41c14,7 42,16 62,19c21,3 68,26 105,50c209,137 301,357 248,594c-22,94 -30,113 -103,235c-35,59 -61,111 -58,116c7,11 1992,28 2025,17c11,-3 21,-10 21,-14c0,-4 -28,-52 -63,-107c-34,-54 -75,-127 -90,-162c-25,-60 -27,-72 -27,-212c0,-126 3,-155 20,-195c30,-69 103,-157 197,-236c75,-63 95,-74 191,-107c96,-32 120,-36 237,-40c79,-2 154,1 190,8c127,26 118,26 112,-6c-3,-16 -15,-69 -26,-119c-25,-111 -27,-253 -5,-344c28,-116 128,-289 207,-358c63,-55 196,-119 267,-128c178,-23 305,8 483,118c28,17 52,26 57,21c5,-5 1,-39 -10,-79c-10,-38 -26,-110 -35,-160c-19,-109 -32,-162 -55,-235c-10,-30 -26,-82 -35,-115c-23,-81 -43,-135 -61,-162l-14,-23l-348,0c-245,-1 -360,-5 -392,-13c-142,-40 -243,-153 -257,-292c-9,-91 51,-245 166,-424c70,-108 77,-148 38,-215c-27,-48 -67,-73 -156,-97c-87,-24 -181,-24 -255,1c-90,30 -126,73 -126,148c0,50 16,88 81,193c29,46 68,118 88,159c31,67 35,86 39,176c5,119 -5,147 -79,228c-59,65 -124,100 -219,120c-108,23 -1306,24 -1349,1c-28,-14 -29,-16 -36,-127c-4,-62 -6,-318 -4,-568c2,-250 0,-461 -4,-468c-13,-20 -29,-14 -84,27c-68,51 -185,99 -286,117c-183,32 -356,-37 -504,-201c-59,-66 -118,-168 -135,-235c-50,-196 -48,-323 7,-485c60,-175 184,-317 343,-392l92,-44l148,3l147,3l85,41c47,23 107,55 133,72c54,34 74,33 83,-7c12,-51 58,-177 91,-246c34,-72 39,-90 24,-99c-4,-3 -62,-20 -127,-37c-65,-18 -150,-41 -189,-51c-365,-102 -782,-146 -1250,-134c-224,6 -294,12 -515,47c-197,30 -192,28 -303,140c-54,55 -123,134 -153,175c-74,100 -154,256 -194,377c-41,125 -79,181 -157,234c-77,51 -149,68 -252,59c-88,-8 -165,-41 -296,-125c-115,-75 -181,-97 -232,-81c-50,16 -89,54 -108,104c-21,59 -38,237 -26,283c5,21 12,50 15,65c8,34 59,94 98,114c16,8 53,16 81,17c46,2 61,-4 127,-44c195,-119 318,-168 420,-169c76,0 106,15 180,89c65,65 74,85 105,241l27,135l-1,569c-1,441 -4,572 -14,578c-6,4 -287,8 -623,8c-336,0 -613,3 -617,6c-7,8 21,64 70,141c20,31 50,86 67,122c29,63 30,72 30,191c0,108 -4,135 -26,197c-34,97 -68,152 -130,214c-156,156 -399,240 -607,209c-225,-33 -389,-129 -492,-287c-86,-132 -104,-231 -69,-388c28,-130 33,-142 102,-256c89,-149 102,-139 -177,-139c-232,0 -235,0 -249,23c-16,26 -98,270 -114,342c-10,45 -18,81 -52,230c-21,95 -48,258 -69,425c-33,252 -33,694 0,950c17,137 39,282 49,325c124,538 199,760 381,1125c151,301 321,565 527,820c100,122 525,550 627,631c228,179 537,376 845,537c136,71 130,85 130,-272zm5954,-2538c7,-9 27,-79 45,-155c18,-76 36,-154 42,-174c5,-20 9,-54 9,-75c0,-22 7,-75 15,-119c18,-90 24,-219 12,-231c-4,-5 -16,-3 -25,4c-69,49 -178,106 -237,124c-56,17 -95,21 -193,21c-77,-1 -128,-5 -135,-12c-6,-6 -20,-11 -30,-11c-21,0 -20,10 2,95c33,124 -18,320 -121,467c-23,32 -38,62 -34,66c9,8 258,17 484,17c132,0 155,-2 166,-17zm-199,-1068c50,-28 119,-68 154,-90c35,-22 80,-47 100,-56c70,-31 83,-39 88,-51c8,-19 -25,-63 -46,-63c-31,0 -134,-47 -217,-98c-189,-118 -242,-128 -313,-64c-59,53 -84,130 -79,238c5,92 30,148 93,203c55,48 106,44 220,-19zm-6966,-900c66,-24 93,-48 121,-108c33,-70 29,-87 -44,-198c-68,-105 -121,-207 -139,-272c-5,-20 -12,-76 -14,-124c-4,-77 -2,-92 22,-142c28,-59 84,-114 149,-148c96,-50 103,-50 604,-55c397,-4 475,-8 487,-20c12,-11 15,-47 15,-167c0,-222 -12,-546 -20,-546c-4,0 -37,20 -73,44c-127,85 -297,126 -434,106c-135,-21 -229,-62 -311,-136c-104,-93 -192,-248 -222,-391c-12,-59 -10,-166 5,-225c13,-51 -22,-32 -128,70c-326,310 -585,638 -798,1007c-136,236 -134,233 -126,242c5,4 98,11 206,14c173,6 209,10 283,33c67,20 96,35 135,70c83,75 131,194 120,300c-6,57 -46,180 -75,229c-10,18 -45,76 -77,129c-67,114 -78,164 -46,216c26,40 76,72 116,73c17,0 39,4 50,9c37,16 138,11 194,-10zm6871,-1020c13,-8 10,-19 -19,-72c-19,-35 -42,-74 -51,-88c-10,-14 -37,-62 -60,-107c-23,-46 -46,-83 -50,-83c-5,0 -18,28 -29,63c-12,34 -51,109 -86,166c-49,80 -62,108 -54,118c14,16 324,19 349,3zm-1733,-19c167,-5 307,-12 313,-16c16,-10 13,-18 -42,-111c-29,-49 -65,-123 -82,-164c-26,-67 -30,-86 -30,-185c0,-166 48,-280 169,-400c114,-114 233,-166 445,-195c84,-12 121,-8 228,25c12,4 22,3 22,-2c0,-15 -247,-251 -369,-353c-62,-52 -130,-109 -150,-126c-83,-72 -429,-297 -593,-387c-191,-104 -216,-114 -245,-98c-25,13 -75,107 -106,201c-26,79 -33,103 -68,238c-25,96 -61,151 -127,193c-128,81 -276,61 -476,-64c-174,-109 -237,-127 -302,-88c-76,46 -114,133 -114,257c0,135 43,210 139,242c57,20 73,15 182,-54c57,-37 142,-85 189,-108c83,-40 87,-41 190,-41c95,0 110,3 164,29c47,23 65,40 97,88c66,103 79,152 90,343c5,93 8,306 7,473c-2,260 -1,304 12,313c9,6 45,8 85,5c39,-3 206,-10 372,-15zm-3873,-1891c11,-30 37,-89 58,-130c42,-84 38,-104 -15,-79c-118,58 -254,119 -264,119c-21,0 -25,21 -7,41c9,10 22,19 29,19c6,0 43,20 81,45c38,25 76,44 84,42c8,-1 24,-27 34,-57z"/>
  </g>
  <g fill="#00a79d" id="layer2">
   <path id="svg_2" d="m7307,9663c-4,-3 -7,-137 -8,-297c0,-388 -12,-491 -69,-614c-51,-112 -152,-192 -240,-192c-107,0 -177,20 -292,84c-62,34 -133,75 -158,91c-57,37 -158,47 -209,21c-33,-18 -90,-97 -109,-155c-32,-92 8,-260 74,-318c37,-32 58,-39 119,-35c36,2 57,12 156,73c42,26 114,66 160,90c79,40 90,42 186,47c96,4 106,3 157,-22c87,-43 151,-126 183,-241c15,-53 36,-769 26,-872c-9,-88 -35,-83 416,-83c442,-1 555,-8 655,-41c85,-28 164,-96 194,-167c62,-144 25,-300 -123,-521c-80,-118 -89,-154 -52,-210c47,-71 157,-131 242,-131c48,0 170,36 208,63c51,35 70,101 46,164c-5,15 -37,74 -70,130c-33,56 -76,138 -95,183c-30,73 -34,91 -34,174c0,123 18,173 85,240c54,55 130,92 230,115c32,7 159,11 354,11c167,-1 306,1 309,5c7,7 -72,189 -156,360c-188,381 -452,762 -721,1038c-47,49 -156,151 -241,226c-396,351 -610,497 -1015,695c-217,106 -199,98 -208,89z"/>
   <path id="svg_3" d="m2620,8268c-308,-161 -617,-358 -845,-537c-102,-81 -527,-509 -627,-631c-206,-255 -376,-519 -527,-820c-182,-365 -257,-587 -381,-1125c-10,-43 -32,-188 -49,-325c-33,-256 -33,-698 0,-950c21,-167 48,-330 69,-425c34,-149 42,-185 52,-230c16,-72 98,-316 114,-342c14,-23 17,-23 249,-23c279,0 266,-10 177,139c-69,114 -74,126 -102,256c-35,157 -17,256 69,388c103,158 267,254 492,287c163,24 340,-19 499,-121c70,-45 151,-125 186,-184c14,-25 38,-78 52,-118c22,-62 26,-89 26,-197c0,-119 -1,-128 -30,-191c-17,-36 -47,-91 -67,-122c-49,-77 -77,-133 -70,-141c4,-3 281,-6 617,-6c336,0 617,-4 623,-8c10,-6 13,-137 14,-578l1,-569l-27,-135c-31,-156 -40,-176 -105,-241c-74,-74 -104,-89 -180,-89c-102,1 -225,50 -420,169c-66,40 -81,46 -127,44c-28,-1 -65,-9 -81,-17c-39,-20 -90,-80 -98,-114c-3,-15 -10,-44 -15,-65c-12,-46 5,-224 26,-283c19,-50 58,-88 108,-104c51,-16 117,6 232,81c131,84 208,117 296,125c103,9 175,-8 252,-59c78,-53 116,-109 157,-234c40,-121 120,-277 194,-377c30,-41 99,-120 153,-175c111,-112 106,-110 303,-140c221,-35 291,-41 515,-47c468,-12 885,32 1250,134c39,10 124,33 189,51c65,17 123,34 127,37c15,9 10,27 -24,99c-33,69 -79,195 -91,246c-9,40 -29,41 -83,7c-26,-17 -86,-49 -133,-72l-85,-41l-147,-3l-148,-3l-92,44c-275,130 -433,454 -373,767c31,163 69,246 158,345c148,164 321,233 504,201c101,-18 218,-66 286,-117c55,-41 71,-47 84,-27c4,7 6,218 4,468c-2,250 0,506 4,568c7,111 8,113 36,127c43,23 1241,22 1349,-1c95,-20 160,-55 219,-120c74,-81 84,-109 79,-228c-4,-90 -8,-109 -39,-176c-20,-41 -59,-113 -88,-159c-65,-105 -81,-143 -81,-193c0,-75 36,-118 126,-148c74,-25 168,-25 255,-1c89,24 129,49 156,97c39,67 32,107 -38,215c-115,179 -175,333 -166,424c14,139 115,252 257,292c32,8 147,12 392,13l348,0l14,23c18,27 38,81 61,162c9,33 25,85 35,115c23,73 36,126 55,235c9,50 25,122 35,160c11,40 15,74 10,79c-5,5 -29,-4 -57,-21c-178,-110 -305,-141 -483,-118c-71,9 -204,73 -267,128c-79,69 -179,242 -207,358c-22,91 -20,233 5,344c11,50 23,103 26,119c6,32 15,32 -112,6c-36,-7 -111,-10 -190,-8c-117,4 -141,8 -237,40c-96,33 -116,44 -191,107c-94,79 -167,167 -197,236c-17,40 -20,69 -20,195c0,140 2,152 27,212c15,35 56,108 90,162c35,55 63,103 63,107c0,4 -10,11 -21,14c-33,11 -2018,-6 -2025,-17c-3,-5 23,-57 58,-116c73,-122 81,-141 103,-235c53,-237 -39,-457 -248,-594c-37,-24 -84,-47 -105,-50c-20,-3 -48,-12 -62,-19c-22,-11 -65,-19 -222,-41c-20,-3 -61,2 -91,11c-30,9 -73,16 -96,16c-22,0 -60,9 -83,19c-24,11 -62,27 -85,36c-23,10 -50,26 -59,36c-9,10 -39,33 -65,50c-51,33 -131,130 -169,207c-46,92 -65,288 -36,383c24,80 62,153 116,224c40,53 50,73 43,85c-9,13 -118,15 -1001,15c-545,0 -994,4 -999,8c-4,5 -9,86 -11,181c-4,171 -4,172 21,196c14,14 49,38 78,54c159,84 320,216 424,346c111,139 204,297 189,321c-8,14 -27,10 -54,-11c-47,-37 -175,-92 -240,-102c-77,-12 -273,-6 -349,12c-48,11 -65,23 -149,104c-111,107 -126,129 -177,261c-37,95 -39,106 -41,225c-3,198 7,248 67,370c70,141 152,224 290,293l96,48l159,-3c152,-3 162,-4 219,-32c67,-33 172,-93 196,-113c35,-29 39,0 39,293c0,357 6,343 -130,272z"/>
   <path id="svg_4" d="m8223,5470c-89,-3 -165,-8 -169,-12c-4,-4 11,-34 34,-66c103,-147 154,-343 121,-467c-22,-85 -23,-95 -2,-95c10,0 24,5 30,11c7,7 58,11 135,12c98,0 137,-4 193,-21c59,-18 168,-75 237,-124c9,-7 21,-9 25,-4c12,12 6,141 -12,231c-8,44 -15,97 -15,119c0,21 -4,55 -9,75c-6,20 -24,98 -42,174c-18,76 -38,146 -45,155c-11,15 -34,17 -166,17c-84,0 -226,-2 -315,-5z"/>
  </g>
  <g fill="#f37128" id="layer3">
   <path id="svg_5" d="m4218,8687c-18,-4 -55,-10 -83,-12c-27,-2 -83,-8 -124,-14c-41,-6 -82,-9 -92,-6c-10,3 -32,-1 -50,-10c-17,-9 -41,-14 -54,-11c-13,3 -26,2 -29,-3c-7,-11 -133,-34 -145,-27c-5,3 -23,-1 -40,-10c-18,-9 -39,-13 -47,-10c-8,3 -26,-1 -39,-10c-13,-8 -29,-14 -37,-13c-7,2 -23,-2 -36,-9c-12,-7 -37,-14 -55,-16c-18,-2 -43,-8 -55,-15c-13,-7 -30,-10 -40,-7c-9,3 -30,-1 -46,-9c-15,-8 -34,-15 -41,-15c-6,0 -19,-8 -29,-19c-15,-16 -17,-68 -22,-522l-5,-504l-26,-37c-14,-21 -30,-38 -34,-38c-5,0 -9,-9 -9,-19c0,-34 -51,-81 -129,-119c-62,-30 -86,-37 -133,-36c-32,1 -64,7 -73,14c-9,8 -29,10 -50,7c-28,-5 -41,-1 -64,19c-16,13 -34,24 -40,24c-6,0 -41,19 -78,43c-177,113 -155,102 -231,113c-23,3 -48,2 -55,-4c-6,-5 -27,-13 -44,-17c-25,-5 -36,-15 -49,-43c-8,-20 -21,-48 -27,-62c-7,-14 -14,-66 -16,-116c-2,-77 1,-99 19,-143c13,-28 38,-65 58,-82c33,-29 39,-31 101,-27c60,4 73,9 141,55c80,54 104,67 190,106c94,42 112,48 130,42c10,-3 21,-1 25,5c8,13 62,13 70,0c3,-6 17,-7 30,-4c13,3 34,0 47,-7c12,-7 27,-12 31,-11c14,4 94,-56 125,-94c84,-102 119,-260 87,-389c-10,-38 -22,-77 -26,-85c-5,-8 -29,-60 -55,-115c-25,-55 -58,-118 -73,-140c-15,-22 -30,-48 -34,-58c-11,-29 -98,-147 -108,-147c-5,0 -9,-6 -9,-14c0,-8 -11,-23 -25,-34c-14,-11 -25,-25 -25,-31c0,-6 -4,-11 -8,-11c-8,0 -42,-53 -42,-65c0,-4 6,-3 13,3c7,6 22,9 34,6c11,-3 24,-1 27,5c9,14 1152,16 1161,2c3,-5 21,-7 40,-4c21,3 41,1 50,-7c9,-8 28,-10 54,-5c24,4 41,2 46,-4c3,-6 16,-11 29,-11c37,0 123,-47 167,-91c63,-63 86,-125 87,-238c1,-87 -2,-101 -33,-167c-18,-40 -54,-105 -81,-146c-86,-133 -104,-168 -104,-204c0,-61 77,-156 138,-170c15,-4 36,-11 47,-17c11,-6 53,-10 95,-9c62,0 85,5 135,30c34,16 67,38 75,47c24,28 39,85 30,109c-21,52 -24,62 -25,73c0,6 -8,19 -17,30c-16,18 -63,101 -125,225c-40,77 -57,173 -47,263c8,76 21,99 86,167c66,67 180,130 207,114c6,-4 21,0 33,7c19,12 101,15 463,16c295,1 443,5 452,13c10,8 12,80 7,357c-3,190 -9,350 -13,354c-8,8 -89,-26 -136,-59c-16,-11 -61,-35 -100,-54l-70,-33l-166,1c-166,1 -167,1 -228,31c-33,17 -61,35 -61,40c0,6 -9,13 -20,16c-27,8 -160,143 -160,161c0,8 -5,14 -11,14c-5,0 -17,15 -25,33c-8,17 -22,46 -32,62c-24,41 -44,103 -38,114c3,5 0,21 -8,36c-20,37 -20,262 0,299c7,15 11,33 8,41c-3,7 0,24 7,37c7,13 12,27 11,31c-5,18 71,159 103,192c19,19 35,37 35,40c0,9 34,45 43,45c4,0 24,16 43,36c20,19 66,49 103,66c36,17 75,35 87,40c11,5 27,9 35,7c8,-1 27,3 42,9c36,15 158,15 194,0c15,-6 34,-10 40,-9c7,1 23,-4 35,-11c13,-7 27,-11 31,-10c14,4 150,-65 181,-93c16,-14 33,-24 37,-23c6,2 15,681 10,756c-1,17 -66,45 -111,48c-20,2 -76,17 -125,33c-50,16 -113,31 -142,34c-29,3 -58,9 -65,13c-13,9 -50,14 -102,14c-17,0 -49,7 -73,15c-40,14 -152,27 -217,26c-16,0 -38,5 -50,11c-24,13 -606,18 -658,5z"/>
   <path id="svg_6" d="m8325,4427c-118,-67 -148,-189 -98,-397c3,-14 24,-41 47,-61c40,-36 42,-36 97,-29c31,4 74,19 95,33c138,87 259,151 289,152c25,1 74,28 77,43c8,31 3,37 -46,54c-27,10 -56,24 -65,31c-9,8 -23,16 -32,20c-9,3 -49,27 -90,53c-41,26 -96,59 -124,72c-27,13 -58,28 -67,33c-23,12 -58,10 -83,-4z"/>
   <path id="svg_7" d="m1345,3490c-11,-5 -30,-9 -42,-9c-31,-1 -103,-33 -103,-46c0,-5 -9,-21 -20,-35c-23,-30 -26,-73 -5,-90c8,-7 15,-17 15,-22c0,-6 20,-43 45,-82c25,-40 45,-80 45,-89c0,-10 4,-17 9,-17c12,0 54,-83 74,-145c9,-31 15,-86 15,-145c0,-85 -3,-102 -30,-158c-16,-35 -36,-66 -44,-69c-8,-3 -14,-11 -14,-19c0,-8 -7,-14 -15,-14c-8,0 -19,-9 -25,-20c-6,-11 -32,-29 -57,-41c-101,-46 -139,-52 -350,-53c-111,0 -204,-4 -208,-8c-4,-3 5,-24 19,-45c14,-20 26,-41 26,-44c0,-4 16,-31 35,-60c19,-30 35,-61 35,-70c0,-9 6,-19 13,-22c7,-2 24,-26 37,-53c14,-26 67,-111 118,-188c50,-76 92,-143 92,-148c0,-4 3,-8 8,-8c7,0 92,-104 92,-113c0,-2 18,-23 40,-47c22,-24 40,-46 40,-50c0,-4 32,-40 70,-81c39,-40 70,-77 70,-82c0,-12 274,-287 286,-287c5,0 18,-12 29,-26l20,-27l6,33c4,18 2,46 -3,62c-6,17 -7,52 -4,81c4,29 7,65 7,80c0,16 6,39 14,51c8,13 13,25 9,28c-5,5 29,81 75,168c20,38 164,190 180,190c4,0 14,6 20,14c13,16 97,57 108,54c5,-1 19,4 32,11c12,7 32,11 42,8c10,-3 21,-2 24,2c3,7 222,7 235,1c3,-1 13,-2 22,-1c10,1 28,-4 40,-10c13,-7 28,-13 33,-14c25,-1 66,-22 138,-68c43,-27 80,-48 82,-45c3,2 8,157 11,344c7,318 6,341 -11,357c-16,17 -48,18 -494,16c-386,-2 -482,1 -501,12c-14,7 -28,12 -33,11c-20,-6 -105,47 -153,94c-50,50 -86,103 -82,121c0,4 -4,22 -11,38c-14,33 -9,129 8,149c6,7 8,16 5,19c-9,8 43,140 72,182c13,20 24,39 24,43c0,4 23,43 51,87c70,108 73,124 42,182c-33,64 -36,66 -91,95c-36,18 -65,24 -122,26c-41,1 -84,-3 -95,-8z"/>
   <path id="svg_8" d="m6226,2451c-16,-18 -18,-58 -19,-464c-2,-245 -5,-449 -9,-452c-4,-4 -4,-13 -1,-21c6,-17 -32,-116 -61,-159c-32,-48 -100,-113 -132,-126c-29,-12 -90,-21 -129,-19c-11,0 -49,2 -85,3c-54,2 -80,10 -155,46c-49,24 -121,65 -160,91c-91,60 -135,82 -149,72c-6,-5 -31,-15 -56,-22c-58,-17 -67,-25 -75,-60c-3,-16 -12,-33 -19,-39c-10,-8 -13,-43 -13,-123c0,-97 3,-117 24,-157c28,-53 75,-101 101,-101c10,0 23,-5 30,-12c9,-9 17,-9 36,1c13,8 29,11 34,7c5,-3 15,1 22,9c7,8 18,15 24,15c6,0 49,25 95,55c46,30 88,55 94,55c6,0 18,6 26,13c71,60 274,81 361,37c78,-39 181,-168 165,-208c-2,-7 1,-23 9,-35c7,-12 17,-42 20,-67c6,-39 27,-112 55,-185c4,-11 23,-51 41,-88c40,-78 60,-89 117,-60c78,39 259,137 295,160c21,13 41,23 44,23c4,0 43,26 88,58c73,52 263,181 305,207c9,6 33,27 54,48c21,20 43,37 49,37c5,0 39,29 76,65c36,36 71,65 77,65c6,0 26,18 44,40c17,22 37,41 44,41c7,1 53,44 102,97c79,83 86,94 60,87c-55,-15 -256,-14 -292,2c-19,7 -38,11 -44,8c-17,-11 -161,44 -175,66c-3,6 -22,17 -40,25c-19,8 -34,19 -34,24c0,6 -6,10 -13,10c-15,0 -107,91 -107,105c0,6 -9,16 -20,23c-11,7 -20,19 -20,27c0,8 -3,15 -8,15c-11,0 -49,90 -64,155c-15,63 -16,206 -1,236c6,15 10,29 7,32c-7,7 46,141 58,145c4,2 8,8 8,14c0,6 18,38 40,71c23,33 39,67 38,76c-3,13 -41,15 -271,17c-181,2 -273,6 -282,14c-9,7 -34,9 -73,4c-40,-4 -62,-3 -66,5c-11,17 -51,13 -70,-8z"/>
   <path id="svg_9" d="m8071,2438c7,-12 28,-47 47,-77c55,-87 92,-161 96,-195c5,-47 20,-41 49,21c26,57 40,83 84,153c29,49 63,110 63,115c0,3 -79,5 -175,5l-176,0l12,-22z"/>
   <path id="svg_10" d="m2685,564c-38,-24 -76,-43 -85,-41c-9,1 -16,-6 -17,-18c-3,-21 8,-27 194,-110c40,-18 79,-38 87,-44c22,-19 41,-3 23,17c-16,18 -87,160 -85,170c2,15 -27,72 -37,71c-5,0 -41,-20 -80,-45z"/>
  </g>
  <g fill="#f47e43" id="layer4">
   <path id="svg_11" d="m4308,8693c18,-2 45,-2 60,0c15,2 0,4 -33,4c-33,0 -45,-2 -27,-4z"/>
   <path id="svg_12" d="m4573,8693c32,-2 81,-2 110,0c29,2 3,3 -58,3c-60,0 -84,-1 -52,-3z"/>
   <path id="svg_13" d="m4135,8680c-7,-12 22,-12 50,0c17,7 15,9 -12,9c-17,1 -35,-3 -38,-9z"/>
   <path id="svg_14" d="m4880,8680c20,-13 53,-13 45,0c-3,6 -18,10 -33,10c-21,0 -24,-2 -12,-10z"/>
   <path id="svg_15" d="m3930,8660c-10,-8 5,-9 50,-4c36,4 67,8 69,10c10,9 -106,3 -119,-6z"/>
   <path id="svg_16" d="m5088,8659c29,-5 62,-14 72,-19c10,-6 29,-10 42,-9c13,0 -3,9 -37,20c-33,10 -76,18 -95,18c-29,-1 -25,-3 18,-10z"/>
   <path id="svg_17" d="m3820,8640c-12,-8 -12,-10 5,-10c11,0 27,5 35,10c12,8 12,10 -5,10c-11,0 -27,-5 -35,-10z"/>
   <path id="svg_18" d="m3725,8628c-72,-12 -90,-17 -83,-24c8,-8 137,17 144,27c3,5 4,8 2,8c-2,-1 -30,-6 -63,-11z"/>
   <path id="svg_19" d="m3555,8590c-7,-12 12,-12 40,0c18,8 17,9 -7,9c-15,1 -30,-3 -33,-9z"/>
   <path id="svg_20" d="m5460,8590c8,-5 22,-10 30,-10c13,0 13,1 0,10c-8,5 -22,10 -30,10c-13,0 -13,-1 0,-10z"/>
   <path id="svg_21" d="m3480,8570c-13,-9 -13,-10 0,-10c8,0 22,5 30,10c13,9 13,10 0,10c-8,0 -22,-5 -30,-10z"/>
   <path id="svg_22" d="m5512,8576c9,-10 150,-47 156,-41c6,5 -2,8 -78,25c-30,7 -62,15 -70,18c-8,3 -12,2 -8,-2z"/>
   <path id="svg_23" d="m3391,8549c-18,-6 -31,-12 -28,-15c6,-6 87,14 87,21c0,7 -20,5 -59,-6z"/>
   <path id="svg_24" d="m3300,8520c-13,-9 -13,-10 0,-10c8,0 22,5 30,10c13,9 13,10 0,10c-8,0 -22,-5 -30,-10z"/>
   <path id="svg_25" d="m5728,8515c17,-8 32,-20 33,-27c5,-74 -4,-754 -10,-756c-4,-1 -21,9 -37,23c-34,30 -173,100 -181,91c-3,-3 3,-9 13,-12c67,-25 125,-55 157,-83c20,-18 44,-31 54,-29c17,3 18,28 21,385l2,382l-22,21c-12,11 -31,20 -42,20c-16,-1 -13,-4 12,-15z"/>
   <path id="svg_26" d="m3161,8464c-19,-25 -21,-40 -21,-190c0,-103 4,-164 10,-164c6,0 10,64 10,172c0,145 3,174 17,190c9,10 13,18 10,18c-3,0 -15,-12 -26,-26z"/>
   <path id="svg_27" d="m5231,7879c-38,-15 -21,-18 38,-7c38,8 70,8 114,0c66,-12 86,-9 43,8c-34,12 -163,12 -195,-1z"/>
   <path id="svg_28" d="m5155,7860c-8,-13 15,-13 35,0c12,8 11,10 -7,10c-12,0 -25,-4 -28,-10z"/>
   <path id="svg_29" d="m5470,7860c8,-5 22,-10 30,-10c13,0 13,1 0,10c-8,5 -22,10 -30,10c-13,0 -13,-1 0,-10z"/>
   <path id="svg_30" d="m5040,7810c-19,-10 -48,-31 -65,-45c-34,-30 -19,-24 41,17c23,15 47,28 52,28c6,0 14,5 17,10c9,15 -6,12 -45,-10z"/>
   <path id="svg_31" d="m4822,7608c-37,-54 -65,-108 -59,-114c2,-3 17,19 32,48c15,29 33,60 40,68c17,21 27,40 21,40c-3,0 -18,-19 -34,-42z"/>
   <path id="svg_32" d="m3147,7493c-4,-3 -7,-15 -7,-26c0,-10 -8,-31 -18,-45c-32,-45 -35,-58 -8,-27c14,17 30,45 37,63c11,33 9,49 -4,35z"/>
   <path id="svg_33" d="m2180,7405l-25,-15l30,6c33,7 58,24 35,24c-8,-1 -26,-7 -40,-15z"/>
   <path id="svg_34" d="m4725,7400c-4,-12 -5,-24 -2,-27c3,-2 8,5 12,17c4,12 5,24 2,27c-3,2 -8,-5 -12,-17z"/>
   <path id="svg_35" d="m2376,7392c23,-21 207,-133 210,-129c3,2 -26,23 -63,45c-37,22 -83,52 -102,66c-32,24 -69,38 -45,18z"/>
   <path id="svg_36" d="m3059,7324c-7,-15 -29,-37 -49,-50c-19,-13 -29,-24 -23,-24c26,0 104,83 90,96c-2,2 -10,-8 -18,-22z"/>
   <path id="svg_37" d="m4710,7326c-5,-15 -10,-48 -9,-74c1,-45 1,-44 14,23c13,75 12,94 -5,51z"/>
   <path id="svg_38" d="m2105,7310c-4,-12 -5,-24 -2,-27c3,-2 8,5 12,17c4,12 5,24 2,27c-3,2 -8,-5 -12,-17z"/>
   <path id="svg_39" d="m2086,7244c-3,-9 -6,-51 -6,-95c0,-124 54,-216 141,-239c56,-15 100,-4 166,43c32,22 85,55 118,73c33,19 54,34 48,34c-14,0 -130,-69 -182,-109c-27,-20 -48,-26 -101,-29c-63,-4 -69,-2 -102,27c-20,17 -46,54 -58,83c-19,44 -22,65 -18,140c2,48 3,88 2,88c-1,0 -5,-7 -8,-16z"/>
   <path id="svg_40" d="m2925,7229c-30,-15 -57,-19 -112,-17c-80,3 -89,-7 -15,-17c36,-5 61,-1 105,15c31,12 59,26 62,31c8,11 9,11 -40,-12z"/>
   <path id="svg_41" d="m4704,7108c1,-38 7,-73 13,-79c7,-7 8,3 2,38c-4,26 -10,62 -13,78c-2,17 -3,0 -2,-37z"/>
   <path id="svg_42" d="m2755,7130c-4,-6 10,-10 35,-10c25,0 39,4 35,10c-3,6 -19,10 -35,10c-16,0 -32,-4 -35,-10z"/>
   <path id="svg_43" d="m2690,7120c-13,-9 -13,-10 0,-10c8,0 22,5 30,10c13,9 13,10 0,10c-8,0 -22,-5 -30,-10z"/>
   <path id="svg_44" d="m2865,7120c11,-5 27,-9 35,-9c13,-1 13,0 0,9c-8,5 -24,9 -35,9l-20,0l20,-9z"/>
   <path id="svg_45" d="m2944,7097c100,-65 133,-105 172,-212c29,-80 33,-226 9,-295c-17,-49 -18,-53 -7,-46c5,3 17,39 27,81c30,129 3,266 -74,372c-30,42 -116,113 -136,112c-5,0 -2,-6 9,-12z"/>
   <path id="svg_46" d="m2584,7075c-18,-13 -18,-14 4,-8c12,3 25,9 28,14c8,14 -10,11 -32,-6z"/>
   <path id="svg_47" d="m4721,6995c-1,-15 24,-83 33,-92c5,-5 5,3 1,17c-11,38 -33,86 -34,75z"/>
   <path id="svg_48" d="m4849,6743c12,-18 24,-33 27,-33c9,0 -15,37 -33,51c-12,10 -11,5 6,-18z"/>
   <path id="svg_49" d="m5695,6659c-39,-24 -21,-24 25,1c19,11 28,19 20,19c-8,0 -28,-9 -45,-20z"/>
   <path id="svg_50" d="m5560,6585c-47,-24 -95,-44 -107,-44c-12,-1 -25,-6 -29,-12c-5,-9 1,-10 20,-5c35,9 195,86 202,97c7,12 9,13 -86,-36z"/>
   <path id="svg_51" d="m5010,6594c0,-9 150,-77 157,-71c3,4 -3,9 -13,12c-10,4 -47,19 -81,36c-35,16 -63,26 -63,23z"/>
   <path id="svg_52" d="m3086,6494c-9,-20 -15,-39 -12,-41c3,-3 12,12 21,32c20,49 14,56 -9,9z"/>
   <path id="svg_53" d="m3053,6423c-3,-10 -8,-22 -10,-28c-3,-5 3,-1 11,9c16,20 21,36 11,36c-3,0 -8,-8 -12,-17z"/>
   <path id="svg_54" d="m3001,6320c-18,-33 -30,-60 -27,-60c7,0 69,111 64,115c-2,2 -19,-23 -37,-55z"/>
   <path id="svg_55" d="m2901,6157c-29,-44 -49,-77 -44,-74c13,8 107,146 102,151c-2,2 -28,-33 -58,-77z"/>
   <path id="svg_56" d="m2815,6043l-17,-28l23,22c12,12 20,25 17,28c-3,3 -13,-7 -23,-22z"/>
   <path id="svg_57" d="m2755,5975c-15,-19 -25,-38 -22,-41c3,-3 10,3 16,14c6,11 18,28 27,37c9,9 14,18 11,21c-3,3 -17,-11 -32,-31z"/>
   <path id="svg_58" d="m5774,5960c-6,-6 -138,-11 -334,-13l-325,-2l331,-3c287,-2 333,0 338,13c6,17 4,19 -10,5z"/>
   <path id="svg_59" d="m2815,5940c-4,-7 192,-10 580,-10c388,0 584,3 580,10c-4,6 -208,10 -580,10c-372,0 -576,-4 -580,-10z"/>
   <path id="svg_60" d="m4864,5935c-18,-15 -18,-15 6,-10c14,3 54,10 90,14l65,8l-71,2c-49,1 -76,-4 -90,-14z"/>
   <path id="svg_61" d="m4000,5930c0,-5 16,-10 36,-10c21,0 33,4 29,10c-3,6 -19,10 -36,10c-16,0 -29,-4 -29,-10z"/>
   <path id="svg_62" d="m4130,5920c20,-13 43,-13 35,0c-3,6 -16,10 -28,10c-18,0 -19,-2 -7,-10z"/>
   <path id="svg_63" d="m4790,5920c-13,-9 -13,-10 0,-10c8,0 22,5 30,10c13,9 13,10 0,10c-8,0 -22,-5 -30,-10z"/>
   <path id="svg_64" d="m4707,5886c-64,-39 -66,-50 -2,-15c72,39 72,39 54,38c-8,0 -31,-11 -52,-23z"/>
   <path id="svg_65" d="m4255,5880c3,-5 12,-10 20,-10c20,0 114,-89 135,-129c11,-20 19,-31 20,-25c0,24 -68,109 -114,141c-48,33 -73,42 -61,23z"/>
   <path id="svg_66" d="m4559,5738c-18,-35 -22,-61 -23,-138c0,-89 16,-184 35,-196c5,-2 2,17 -6,43c-22,73 -20,237 5,291c25,55 17,55 -11,0z"/>
   <path id="svg_67" d="m4422,5453c-19,-52 -78,-158 -136,-245c-10,-16 -16,-28 -13,-28c21,0 183,298 175,322c-2,6 -14,-16 -26,-49z"/>
   <path id="svg_68" d="m4600,5346c0,-8 42,-76 46,-76c3,0 -5,18 -16,40c-18,35 -30,49 -30,36z"/>
   <path id="svg_69" d="m4650,5255c0,-8 41,-79 52,-90c6,-5 -2,14 -16,43c-23,46 -36,63 -36,47z"/>
   <path id="svg_70" d="m4245,5140c-9,-16 -13,-30 -11,-30c3,0 12,14 21,30c9,17 13,30 11,30c-3,0 -12,-13 -21,-30z"/>
   <path id="svg_71" d="m4720,5121c0,-5 4,-12 9,-15c4,-3 11,-20 15,-37c3,-18 9,-30 12,-26c8,7 -14,75 -27,82c-5,4 -9,2 -9,-4z"/>
   <path id="svg_72" d="m4252,4981c13,-24 35,-52 50,-62c36,-26 97,-51 111,-46c7,2 -8,10 -33,17c-43,11 -104,63 -138,115c-7,11 -2,0 10,-24z"/>
   <path id="svg_73" d="m4745,5000c-4,-12 -5,-24 -2,-27c3,-2 8,5 12,17c4,12 5,24 2,27c-3,2 -8,-5 -12,-17z"/>
   <path id="svg_74" d="m4716,4941c-10,-11 -40,-29 -68,-41c-27,-12 -48,-24 -45,-26c8,-8 100,41 121,65c11,12 17,21 14,21c-3,0 -13,-9 -22,-19z"/>
   <path id="svg_75" d="m4460,4860c20,-13 87,-13 95,0c4,6 -16,10 -52,10c-41,0 -54,-3 -43,-10z"/>
   <path id="svg_76" d="m8292,4413c-15,-16 -18,-20 -7,-10c12,9 26,17 33,17c6,0 14,5 17,10c13,21 -16,9 -43,-17z"/>
   <path id="svg_77" d="m8450,4415c0,-7 61,-37 66,-33c2,3 -12,12 -31,21c-19,9 -35,15 -35,12z"/>
   <path id="svg_78" d="m8220,4328c-32,-58 -39,-174 -15,-252c10,-31 20,-54 23,-52c2,3 -1,20 -9,38c-8,20 -14,70 -14,128c0,81 4,101 23,134c13,21 21,40 19,42c-2,2 -14,-15 -27,-38z"/>
   <path id="svg_79" d="m8555,4355c30,-25 59,-39 51,-26c-4,6 -22,18 -39,27c-30,14 -31,14 -12,-1z"/>
   <path id="svg_80" d="m8620,4316c0,-7 71,-49 75,-44c3,2 -13,15 -35,27c-22,12 -40,20 -40,17z"/>
   <path id="svg_81" d="m8734,4245c22,-17 40,-20 32,-6c-3,5 -16,11 -28,14c-22,6 -22,5 -4,-8z"/>
   <path id="svg_82" d="m8834,4173c-3,-11 -15,-25 -27,-31c-18,-9 -19,-11 -5,-11c19,-1 55,45 44,56c-4,4 -9,-2 -12,-14z"/>
   <path id="svg_83" d="m8703,4110c-24,-11 -43,-22 -43,-25c0,-6 82,25 95,37c15,13 -6,8 -52,-12z"/>
   <path id="svg_84" d="m8590,4047c-30,-19 -76,-46 -102,-61c-48,-27 -68,-47 -25,-25c44,23 187,110 187,115c0,7 -4,5 -60,-29z"/>
   <path id="svg_85" d="m8370,3940l-45,-7l40,-1c22,-1 47,3 55,8c8,5 11,9 5,8c-5,0 -30,-4 -55,-8z"/>
   <path id="svg_86" d="m1345,3500c-11,-5 -33,-9 -48,-9c-31,-1 -92,-29 -83,-38c3,-3 12,-1 19,6c23,18 117,35 199,36c42,0 74,3 71,8c-6,10 -133,8 -158,-3z"/>
   <path id="svg_87" d="m1549,3479c46,-18 79,-49 100,-94c23,-49 38,-63 19,-17c-28,65 -90,123 -130,121c-7,0 -2,-5 11,-10z"/>
   <path id="svg_88" d="m1175,3408l-16,-33l20,25c20,24 26,40 16,40c-2,0 -12,-15 -20,-32z"/>
   <path id="svg_89" d="m1670,3304c0,-9 -25,-55 -55,-103c-30,-48 -55,-91 -55,-95c0,-10 114,162 123,186c3,10 2,20 -3,23c-6,4 -10,-1 -10,-11z"/>
   <path id="svg_90" d="m1170,3303c0,-5 25,-49 55,-98c30,-50 55,-86 55,-81c0,5 -20,42 -45,82c-25,39 -45,76 -45,82c0,6 -4,14 -10,17c-5,3 -10,2 -10,-2z"/>
   <path id="svg_91" d="m1508,3015c-17,-37 -29,-68 -27,-70c3,-2 18,28 36,66c17,38 29,69 27,69c-3,0 -19,-29 -36,-65z"/>
   <path id="svg_92" d="m1334,3005c12,-33 26,-73 30,-89c4,-15 9,-26 13,-23c7,8 -34,129 -52,153c-8,11 -4,-7 9,-41z"/>
   <path id="svg_93" d="m1467,2917c-11,-29 -9,-43 4,-30c6,6 9,19 7,29c-3,18 -4,18 -11,1z"/>
   <path id="svg_94" d="m1446,2818c-4,-27 -4,-65 0,-85l8,-38l4,43c2,23 2,61 0,85l-3,42l-9,-47z"/>
   <path id="svg_95" d="m1365,2720c-4,-12 -5,-24 -2,-27c3,-2 8,5 12,17c4,12 5,24 2,27c-3,2 -8,-5 -12,-17z"/>
   <path id="svg_96" d="m1327,2629c-15,-27 -25,-49 -22,-49c6,0 58,90 54,95c-2,2 -16,-19 -32,-46z"/>
   <path id="svg_97" d="m1460,2675c0,-10 49,-95 55,-95c4,0 -41,90 -50,99c-3,2 -5,1 -5,-4z"/>
   <path id="svg_98" d="m1575,2526c29,-25 106,-67 122,-66c5,1 -17,14 -47,30c-30,17 -66,37 -80,46c-19,12 -17,9 5,-10z"/>
   <path id="svg_99" d="m1120,2474c-41,-13 -94,-24 -117,-24c-23,0 -45,-5 -49,-11c-15,-26 211,24 241,52c11,11 16,12 -75,-17z"/>
   <path id="svg_100" d="m8062,2467c-9,-10 2,-36 45,-105c31,-51 58,-91 60,-89c2,3 -21,44 -52,93l-56,89l172,3c95,1 174,0 177,-3c3,-2 -1,-11 -8,-20c-7,-9 -10,-18 -7,-22c4,-3 12,7 19,21c10,23 9,29 -3,37c-24,15 -335,11 -347,-4z"/>
   <path id="svg_101" d="m1717,2459c22,-22 173,-39 173,-19c0,6 -28,10 -64,10c-36,0 -77,5 -93,11c-22,8 -25,8 -16,-2z"/>
   <path id="svg_102" d="m6295,2460c3,-5 23,-10 43,-9c30,0 33,2 17,9c-28,12 -67,12 -60,0z"/>
   <path id="svg_103" d="m6435,2452c14,-14 435,-27 435,-13c0,8 -60,11 -197,11c-109,0 -209,3 -223,6c-17,5 -22,3 -15,-4z"/>
   <path id="svg_104" d="m651,2370c12,-22 25,-38 27,-35c5,4 -37,75 -44,75c-3,0 5,-18 17,-40z"/>
   <path id="svg_105" d="m8351,2349c-33,-53 -41,-78 -15,-44c18,23 56,95 51,95c-2,0 -18,-23 -36,-51z"/>
   <path id="svg_106" d="m6940,2329c-17,-28 -29,-53 -26,-56c2,-3 12,10 22,29c9,18 24,43 32,56c8,12 12,22 9,22c-3,0 -19,-23 -37,-51z"/>
   <path id="svg_107" d="m717,2261c15,-28 29,-48 31,-46c4,4 -48,95 -55,95c-2,0 8,-22 24,-49z"/>
   <path id="svg_108" d="m8290,2244c-12,-19 -20,-38 -17,-40c3,-3 15,12 27,35c25,50 19,54 -10,5z"/>
   <path id="svg_109" d="m6867,2189c-37,-95 -29,-98 10,-4c17,41 28,75 24,75c-4,0 -19,-32 -34,-71z"/>
   <path id="svg_110" d="m8195,2200c12,-40 26,-59 19,-25c-4,17 -11,35 -16,40c-7,7 -8,1 -3,-15z"/>
   <path id="svg_111" d="m760,2186c0,-10 124,-213 177,-288c90,-129 77,-97 -21,50c-50,76 -102,159 -115,186c-22,42 -41,66 -41,52z"/>
   <path id="svg_112" d="m6827,2067c-11,-29 -9,-53 4,-40c6,6 9,21 7,34c-3,21 -4,22 -11,6z"/>
   <path id="svg_113" d="m6820,1920c0,-14 5,-32 10,-40c8,-12 10,-10 10,10c0,14 -5,32 -10,40c-8,12 -10,10 -10,-10z"/>
   <path id="svg_114" d="m2104,1845c-17,-13 -16,-14 16,-3c43,14 49,18 24,18c-11,0 -29,-7 -40,-15z"/>
   <path id="svg_115" d="m2421,1856c2,-1 20,-8 39,-14c32,-11 33,-10 16,3c-16,12 -69,23 -55,11z"/>
   <path id="svg_116" d="m2025,1819c-61,-30 -67,-43 -7,-16c29,14 56,28 59,31c12,12 -13,5 -52,-15z"/>
   <path id="svg_117" d="m2500,1836c0,-3 25,-16 56,-30c32,-15 79,-42 105,-61c27,-19 54,-35 61,-35c14,0 -101,75 -163,107c-47,23 -59,27 -59,19z"/>
   <path id="svg_118" d="m6840,1830c0,-8 5,-22 10,-30c9,-13 10,-13 10,0c0,8 -5,22 -10,30c-9,13 -10,13 -10,0z"/>
   <path id="svg_119" d="m1026,1779c20,-35 78,-109 82,-104c3,2 -12,26 -33,52c-47,59 -61,74 -49,52z"/>
   <path id="svg_120" d="m6860,1777c0,-15 35,-87 43,-87c4,0 -2,19 -14,43c-23,45 -29,54 -29,44z"/>
   <path id="svg_121" d="m1801,1628c-17,-23 -31,-46 -31,-51c0,-9 42,45 64,81c17,28 -5,9 -33,-30z"/>
   <path id="svg_122" d="m1129,1645c15,-29 61,-82 61,-70c0,6 -16,28 -36,50c-19,22 -30,31 -25,20z"/>
   <path id="svg_123" d="m6997,1570c29,-30 54,-52 56,-50c1,3 -22,27 -53,55l-55,49l52,-54z"/>
   <path id="svg_124" d="m6197,1564c-4,-4 -7,-14 -7,-23c0,-11 3,-12 11,-4c6,6 10,16 7,23c-2,6 -7,8 -11,4z"/>
   <path id="svg_125" d="m1228,1523c11,-16 40,-46 63,-68c35,-33 32,-28 -15,28c-60,69 -82,88 -48,40z"/>
   <path id="svg_126" d="m1719,1484c-17,-36 -28,-69 -25,-72c3,-2 9,4 12,14c4,10 18,43 30,72c13,28 21,52 18,52c-3,0 -19,-30 -35,-66z"/>
   <path id="svg_127" d="m6181,1479c-7,-24 -28,-72 -47,-106c-38,-71 -39,-82 -2,-25c31,47 71,147 66,163c-2,7 -10,-8 -17,-32z"/>
   <path id="svg_128" d="m7145,1460c7,-11 54,-34 114,-55c51,-18 65,-19 56,-5c-3,6 -16,10 -28,10c-12,0 -50,13 -85,30c-35,16 -60,25 -57,20z"/>
   <path id="svg_129" d="m5300,1423c-8,-3 -26,-10 -39,-15c-13,-5 -22,-10 -20,-13c6,-5 76,18 85,28c8,8 -4,8 -26,0z"/>
   <path id="svg_130" d="m5350,1426c0,-4 11,-11 25,-16c14,-5 59,-33 101,-61c42,-28 78,-49 80,-46c5,4 -160,112 -189,123c-9,3 -17,3 -17,0z"/>
   <path id="svg_131" d="m7635,1393c-45,-16 -62,-29 -25,-19c77,20 77,20 -15,-75l-90,-94l98,95c53,52 97,98 97,102c0,11 -18,8 -65,-9z"/>
   <path id="svg_132" d="m7380,1380c8,-5 26,-10 40,-10c20,0 22,2 10,10c-8,5 -26,10 -40,10c-20,0 -22,-2 -10,-10z"/>
   <path id="svg_133" d="m1677,1374c-4,-4 -7,-17 -7,-28c1,-19 1,-20 11,-3c11,19 8,43 -4,31z"/>
   <path id="svg_134" d="m5181,1334c-6,-15 -9,-29 -7,-32c3,-2 10,8 16,23c14,36 7,43 -9,9z"/>
   <path id="svg_135" d="m1440,1292c0,-10 26,-34 50,-47c8,-4 2,6 -14,23c-32,34 -36,37 -36,24z"/>
   <path id="svg_136" d="m5570,1295c0,-7 81,-47 86,-43c2,3 -17,14 -41,26c-25,12 -45,20 -45,17z"/>
   <path id="svg_137" d="m1663,1230c0,-30 2,-43 4,-27c2,15 2,39 0,55c-2,15 -4,2 -4,-28z"/>
   <path id="svg_138" d="m5157,1273c-10,-9 -9,-191 1,-196c4,-3 7,42 7,99c0,57 0,104 -1,104c0,0 -4,-3 -7,-7z"/>
   <path id="svg_139" d="m7460,1175c-13,-14 -19,-25 -13,-25c5,0 20,11 33,25c13,14 19,25 13,25c-5,0 -20,-11 -33,-25z"/>
   <path id="svg_140" d="m1625,1110c10,-11 20,-18 23,-16c5,6 -23,36 -34,36c-4,0 1,-9 11,-20z"/>
   <path id="svg_141" d="m1670,1106c0,-14 5,-26 10,-26c6,0 10,9 10,19c0,11 -4,23 -10,26c-6,4 -10,-5 -10,-19z"/>
   <path id="svg_142" d="m5795,1123c-34,-7 -129,-46 -140,-56c-7,-7 -3,-7 10,-2c11,5 52,19 90,33c85,29 100,38 40,25z"/>
   <path id="svg_143" d="m5930,1120c8,-5 22,-10 31,-10c8,0 41,-16 73,-35c32,-19 53,-28 45,-19c-16,19 -94,59 -134,68c-22,5 -26,4 -15,-4z"/>
   <path id="svg_144" d="m7345,1075c-27,-25 -46,-45 -43,-45c4,0 30,20 58,45c28,25 47,45 43,45c-4,-1 -30,-21 -58,-45z"/>
   <path id="svg_145" d="m5171,1033c15,-41 57,-92 93,-114c33,-20 61,-25 51,-9c-3,6 -15,10 -25,10c-28,0 -75,45 -99,95c-23,49 -37,61 -20,18z"/>
   <path id="svg_146" d="m5535,999c-43,-28 -89,-55 -102,-60c-23,-8 -31,-19 -15,-19c5,0 40,20 78,43c38,24 85,53 104,65c19,12 30,22 24,22c-6,0 -47,-23 -89,-51z"/>
   <path id="svg_147" d="m7210,959c-36,-32 -26,-28 24,9c16,12 25,22 19,22c-5,0 -24,-14 -43,-31z"/>
   <path id="svg_148" d="m6152,938c11,-35 28,-59 28,-42c0,12 -30,74 -35,74c-2,0 1,-15 7,-32z"/>
   <path id="svg_149" d="m5355,910c-3,-5 1,-10 9,-10c8,0 18,5 21,10c3,6 -1,10 -9,10c-8,0 -18,-4 -21,-10z"/>
   <path id="svg_150" d="m7135,900c-3,-5 -52,-40 -108,-77c-56,-37 -131,-88 -167,-114c-66,-48 -131,-86 -232,-139c-32,-17 -58,-33 -58,-36c0,-15 215,112 385,229c205,139 215,147 198,147c-7,0 -15,-4 -18,-10z"/>
   <path id="svg_151" d="m6185,817c8,-33 17,-62 21,-65c4,-4 4,4 1,18c-4,14 -7,34 -7,46c0,11 -6,29 -14,40c-13,16 -13,11 -1,-39z"/>
   <path id="svg_152" d="m6210,721c0,-20 54,-159 83,-214c34,-65 56,-82 94,-72c31,7 176,86 170,91c-2,3 -35,-13 -73,-34c-81,-46 -107,-55 -132,-48c-25,8 -83,124 -118,234c-15,49 -24,64 -24,43z"/>
   <path id="svg_153" d="m2731,604c-13,-10 -49,-32 -80,-51c-30,-18 -50,-33 -45,-33c5,0 42,20 82,45c76,48 92,53 92,32c0,-7 7,-22 15,-33c14,-17 14,-16 2,16c-16,41 -33,47 -66,24z"/>
   <path id="svg_154" d="m2567,503c-10,-16 -1,-33 17,-33c7,0 59,-23 116,-50c56,-28 106,-49 111,-48c4,2 -46,28 -111,58c-66,30 -120,62 -122,70c-3,11 -5,12 -11,3z"/>
   <path id="svg_155" d="m2820,496c0,-11 59,-124 68,-130c4,-2 -7,25 -25,62c-34,67 -43,81 -43,68z"/>
  </g>
 </g>
</svg>