<?xml version="1.0"?>
<svg width="9630" height="2570" xmlns="http://www.w3.org/2000/svg" xmlns:svg="http://www.w3.org/2000/svg" preserveAspectRatio="xMidYMid meet">
 <g>
  <title>Layer 1</title>
  <g fill-opacity="0" fill="#ffffff" id="layer1">
   <path fill="#000000" id="svg_1" d="m0,2546c0,-21 5,-24 65,-30c35,-3 106,-4 158,0c66,5 100,3 116,-6l23,-12l-3,-296c-5,-344 -6,-338 84,-256c28,26 81,61 117,78c62,30 70,31 195,31c122,0 134,-2 198,-30c123,-54 246,-175 314,-308c43,-86 64,-190 64,-317c0,-209 -57,-356 -191,-490c-129,-129 -258,-178 -435,-165c-97,7 -162,33 -258,102c-28,20 -58,33 -70,31c-20,-3 -22,-8 -19,-55c2,-32 -1,-54 -9,-58c-6,-4 -68,-7 -136,-6c-69,1 -145,-1 -169,-5l-44,-6l0,-374l0,-374l4815,0l4815,0l0,1285l0,1285l-4815,0l-4815,0l0,-24zm8770,-24c75,-30 146,-86 192,-153c37,-55 122,-262 358,-869c57,-146 143,-365 191,-488c49,-122 89,-229 89,-237c0,-13 -25,-15 -162,-15c-90,0 -168,4 -175,8c-7,4 -24,39 -38,77c-84,223 -269,677 -282,690c-28,28 -39,18 -70,-65c-142,-374 -268,-687 -281,-697c-18,-15 -308,-18 -330,-4c-14,9 -7,28 185,521c109,280 228,598 269,715c36,104 30,142 -32,203c-43,44 -44,44 -103,40c-45,-3 -73,-12 -111,-36c-28,-18 -56,-30 -60,-27c-5,3 -39,55 -75,116c-53,89 -64,113 -54,125c19,23 124,84 182,105c71,27 227,22 307,-9zm-6506,-493c35,-13 79,-42 121,-80c36,-32 67,-59 69,-59c28,0 36,16 36,75c0,35 4,66 8,69c4,2 76,6 161,7c124,2 154,0 162,-12c10,-16 13,-1150 3,-1223l-7,-46l-153,0c-141,0 -154,2 -164,19c-6,13 -10,149 -10,374c0,332 -1,359 -21,422c-37,122 -147,205 -269,205c-60,0 -147,-43 -177,-88c-53,-81 -58,-118 -63,-537l-5,-390l-160,0l-160,0l-7,170c-10,247 1,696 18,774c33,146 127,253 275,311c110,44 242,47 343,9zm5719,0c81,-31 172,-91 175,-116c2,-11 -19,-60 -47,-109c-28,-48 -51,-92 -51,-96c0,-14 -27,-9 -41,8c-44,54 -148,69 -214,31c-62,-35 -64,-49 -64,-409c-1,-275 1,-319 15,-332c12,-13 41,-16 155,-16l139,0l6,-26c8,-30 -2,-189 -12,-205c-4,-7 -47,-8 -133,-4c-70,4 -137,4 -149,1c-21,-7 -22,-12 -22,-181c0,-144 -3,-176 -16,-189c-13,-13 -42,-16 -159,-16c-79,0 -150,3 -159,6c-14,5 -16,29 -16,164c0,87 -4,170 -9,183c-8,20 -18,25 -65,30c-30,3 -60,8 -66,12c-13,8 -13,180 0,206c8,15 21,19 60,19c83,0 80,-15 80,363c0,365 3,389 60,496c39,73 103,134 173,166c103,47 260,53 360,14zm-2389,5c9,-23 7,-247 -2,-261c-6,-10 -87,-13 -328,-15c-289,-3 -319,-5 -319,-19c0,-10 108,-140 240,-290c132,-151 271,-309 308,-352l68,-78l-3,-127l-3,-127l-515,0l-515,0l0,133c0,107 3,135 15,143c9,6 112,9 270,7c249,-2 255,-2 258,18c3,21 -153,207 -413,494c-72,80 -139,157 -149,172c-14,21 -18,53 -20,155c-1,70 2,136 6,146c8,16 44,17 552,17c487,0 544,-2 550,-16zm-1364,-129c0,-74 -3,-135 -7,-135c-602,-6 -633,-8 -633,-41c0,-5 29,-39 64,-76c35,-38 172,-192 305,-343l241,-275l-2,-135l-3,-135l-505,0l-505,0l-3,124c-2,79 1,128 8,135c7,7 105,13 273,16c258,5 262,5 265,26c2,16 -33,62 -125,165c-70,79 -180,205 -245,279c-64,74 -133,151 -153,170c-60,57 -65,74 -65,218c0,71 3,132 7,135c3,4 249,7 545,7l538,0l0,-135zm1994,113c3,-13 6,-404 6,-870c0,-756 -2,-848 -16,-862c-12,-13 -40,-16 -144,-16c-71,0 -135,3 -144,6c-14,6 -16,92 -16,878c0,480 3,876 7,879c3,4 73,7 154,7c144,0 147,0 153,-22zm714,-607c1,-459 -1,-627 -9,-638c-9,-11 -44,-13 -163,-11l-151,3l-3,638l-2,637l162,-2l163,-3l3,-624zm-97,-792c47,-16 96,-54 114,-89c31,-60 13,-192 -33,-243c-29,-33 -93,-59 -144,-60c-88,-1 -187,91 -196,183c-14,146 121,255 259,209z"/>
   <path fill="#000000" id="svg_2" d="m563,1764c-91,-33 -174,-138 -204,-257c-6,-27 -10,-85 -7,-136c3,-74 9,-99 36,-152c64,-131 141,-188 263,-197c57,-4 75,-1 123,21c82,38 147,103 187,189c32,68 34,80 34,178c0,93 -3,112 -27,162c-34,73 -99,143 -163,176c-63,32 -178,40 -242,16z"/>
  </g>
  <g fill="#f3722b" id="layer2">
   <path id="svg_3" d="m8463,2531c-58,-21 -163,-82 -182,-105c-10,-12 1,-36 54,-125c36,-61 70,-113 75,-116c4,-3 32,9 60,27c38,24 66,33 111,36c59,4 60,4 103,-40c62,-61 68,-99 32,-203c-41,-117 -160,-435 -269,-715c-192,-493 -199,-512 -185,-521c22,-14 312,-11 330,4c13,10 139,323 281,697c31,83 42,93 70,65c13,-13 198,-467 282,-690c14,-38 31,-73 38,-77c7,-4 85,-8 175,-8c137,0 162,2 162,15c0,8 -40,115 -89,237c-48,123 -134,342 -191,488c-327,843 -348,888 -446,963c-76,58 -143,80 -259,84c-81,3 -110,0 -152,-16z"/>
   <path id="svg_4" d="m0,1635l0,-880l167,2c92,2 174,5 181,8c9,3 12,20 10,57c-3,48 -1,53 19,56c12,2 42,-11 70,-31c96,-69 161,-95 258,-102c177,-13 306,36 435,165c134,134 191,281 191,490c0,127 -21,231 -64,317c-68,133 -191,254 -314,308c-64,28 -76,30 -198,30c-125,0 -133,-1 -195,-31c-36,-17 -89,-52 -117,-78c-90,-82 -89,-87 -84,255c3,243 1,298 -10,305c-8,5 -89,9 -181,9l-168,1l0,-881zm805,113c64,-33 129,-103 163,-176c24,-50 27,-69 27,-162c0,-98 -2,-110 -34,-178c-40,-86 -105,-151 -187,-189c-48,-22 -66,-25 -123,-21c-122,9 -199,66 -263,197c-27,53 -33,78 -36,152c-3,51 1,109 7,136c30,119 113,224 204,257c64,24 179,16 242,-16z"/>
   <path id="svg_5" d="m2023,2050c-196,-35 -337,-163 -377,-341c-17,-78 -28,-527 -18,-774l7,-170l160,0l160,0l5,390c5,419 10,456 63,537c30,45 117,88 177,88c122,0 232,-83 269,-205c20,-63 21,-90 21,-422c0,-225 4,-361 10,-374c10,-17 23,-19 164,-19l153,0l7,46c10,73 7,1207 -3,1223c-8,12 -38,14 -162,12c-85,-1 -157,-5 -161,-7c-4,-3 -8,-34 -8,-69c0,-59 -8,-75 -36,-75c-2,0 -33,27 -69,59c-42,38 -86,67 -121,80c-65,25 -169,33 -241,21z"/>
   <path id="svg_6" d="m7740,2049c-131,-20 -230,-89 -290,-200c-57,-107 -60,-131 -60,-496c0,-378 3,-363 -80,-363c-39,0 -52,-4 -60,-19c-13,-26 -13,-198 0,-206c6,-4 36,-9 66,-12c47,-5 57,-10 65,-30c5,-13 9,-96 9,-183c0,-135 2,-159 16,-164c9,-3 80,-6 159,-6c117,0 146,3 159,16c13,13 16,45 16,189c0,169 1,174 22,181c12,3 79,3 149,-1c86,-4 129,-3 133,4c10,16 20,175 12,205l-6,26l-139,0c-114,0 -143,3 -155,16c-14,13 -16,57 -15,332c0,360 2,374 64,409c66,38 170,23 214,-31c14,-17 41,-22 41,-8c0,4 23,48 51,96c28,49 49,98 47,109c-3,25 -94,85 -175,116c-64,25 -158,33 -243,20z"/>
   <path id="svg_7" d="m4492,2033c-4,-10 -7,-76 -6,-146c2,-102 6,-134 20,-155c10,-15 77,-92 149,-172c260,-287 416,-473 413,-494c-3,-20 -9,-20 -258,-18c-158,2 -261,-1 -270,-7c-12,-8 -15,-36 -15,-143l0,-133l515,0l515,0l3,127l3,127l-68,78c-37,43 -176,201 -308,352c-132,150 -240,280 -240,290c0,14 30,16 319,19c241,2 322,5 328,15c9,14 11,238 2,261c-6,14 -63,16 -550,16c-508,0 -544,-1 -552,-17z"/>
   <path id="svg_8" d="m3147,2033c-4,-3 -7,-64 -7,-135c0,-144 5,-161 65,-218c20,-19 89,-96 153,-170c65,-74 175,-200 245,-279c92,-103 127,-149 125,-165c-3,-21 -7,-21 -265,-26c-168,-3 -266,-9 -273,-16c-7,-7 -10,-56 -8,-135l3,-124l505,0l505,0l3,135l2,135l-241,275c-133,151 -270,305 -305,343c-35,37 -64,71 -64,76c0,33 31,35 633,41c4,0 7,61 7,135l0,135l-538,0c-296,0 -542,-3 -545,-7z"/>
   <path id="svg_9" d="m5917,2033c-4,-3 -7,-399 -7,-879c0,-786 2,-872 16,-878c9,-3 73,-6 144,-6c104,0 132,3 144,16c14,14 16,106 16,862c0,466 -3,857 -6,870c-6,22 -9,22 -153,22c-81,0 -151,-3 -154,-7z"/>
   <path id="svg_10" d="m6612,1403l3,-638l151,-3c119,-2 154,0 163,11c8,11 10,179 9,638l-3,624l-163,3l-162,2l2,-637z"/>
   <path id="svg_11" d="m6706,615c-117,-42 -165,-198 -89,-293c51,-64 106,-96 161,-95c118,2 192,83 192,213c0,71 -17,109 -62,143c-64,47 -131,58 -202,32z"/>
  </g>
 </g>
</svg>