<?xml version="1.0"?>
<svg width="11000" height="13800" xmlns="http://www.w3.org/2000/svg" xmlns:svg="http://www.w3.org/2000/svg" preserveAspectRatio="xMidYMid meet">
 <g>
  <title>Layer 1</title>
  <g fill-opacity="0" fill="#ffffff" id="layer1">
   <path fill="#000000" id="svg_1" d="m0,6900l0,-6900l5500,0l5500,0l0,6900l0,6900l-5500,0l-5500,0l0,-6900zm9946,6849c131,-24 264,-119 326,-234c28,-52 186,-446 378,-940c62,-159 157,-401 211,-538c55,-136 99,-252 99,-257c0,-16 -375,-13 -388,3c-5,6 -35,77 -65,157c-92,243 -258,654 -273,678c-10,15 -23,22 -36,20c-18,-3 -46,-68 -184,-423c-90,-231 -171,-425 -180,-432c-13,-9 -67,-13 -191,-13c-148,0 -175,2 -180,15c-6,16 16,76 200,545c142,365 292,765 318,849c19,63 20,78 10,113c-16,51 -73,114 -117,128c-45,15 -116,-1 -179,-41c-25,-16 -51,-29 -58,-29c-12,0 -150,222 -155,251c-3,18 96,86 176,121c88,37 183,46 288,27zm-9266,-44c9,-11 11,-92 9,-336c-5,-383 -7,-375 90,-288c65,60 142,102 212,118c56,13 221,14 276,1c197,-46 390,-236 470,-465c26,-76 28,-89 27,-255c0,-163 -2,-180 -27,-255c-39,-116 -91,-199 -187,-296c-138,-138 -259,-185 -457,-177c-125,6 -176,24 -307,111c-55,37 -73,44 -87,36c-16,-8 -18,-17 -13,-63c6,-46 4,-55 -12,-64c-11,-6 -98,-9 -201,-9l-183,1l0,978l0,978l189,0c154,0 191,-3 201,-15zm2073,-510c83,-21 133,-50 197,-111c87,-83 107,-75 112,46l3,55l165,6c91,3 173,1 183,-3c16,-8 17,-50 15,-711l-3,-702l-169,-3c-116,-2 -173,1 -182,9c-11,9 -14,81 -14,394c0,215 -4,406 -10,435c-32,166 -140,276 -285,288c-101,8 -187,-31 -238,-109c-9,-13 -25,-62 -37,-109c-18,-78 -20,-117 -20,-486c0,-330 -2,-404 -14,-413c-9,-8 -66,-11 -182,-9l-169,3l-3,478c-2,529 1,567 59,685c96,196 371,315 592,257zm6398,-14c65,-25 188,-99 203,-123c8,-13 5,-26 -12,-55c-13,-21 -38,-68 -56,-104c-46,-89 -56,-96 -92,-66c-74,62 -148,73 -224,35c-80,-41 -80,-40 -80,-454c0,-287 3,-364 13,-373c8,-6 76,-12 173,-13l159,-3l3,-121c2,-92 -1,-124 -11,-132c-8,-7 -74,-13 -173,-14l-159,-3l-5,-195c-3,-107 -9,-201 -13,-207c-6,-10 -55,-13 -188,-13c-134,0 -181,3 -184,13c-3,6 -6,93 -8,193c-2,212 -3,214 -83,214c-80,0 -87,11 -82,137c2,56 8,107 14,113c6,6 38,14 70,17c36,3 64,11 72,21c9,12 12,104 12,382c0,393 4,429 54,528c89,175 246,258 467,247c42,-2 100,-13 130,-24zm-2647,3c3,-9 6,-78 6,-154c0,-100 -3,-141 -12,-147c-7,-4 -164,-6 -348,-4c-184,1 -343,-1 -352,-4c-10,-4 -18,-13 -18,-21c0,-8 149,-183 331,-390c182,-207 337,-388 345,-402c10,-19 14,-65 14,-154c0,-116 -2,-128 -19,-138c-21,-11 -1087,-15 -1115,-4c-14,5 -16,28 -16,154c0,116 3,150 14,159c11,9 91,12 296,10c300,-2 316,0 288,43c-24,35 -219,259 -432,496c-105,117 -196,225 -203,240c-17,37 -17,304 -1,320c9,9 159,12 614,12c540,0 602,-2 608,-16zm-1516,-138c1,-77 -1,-143 -6,-148c-5,-5 -159,-11 -341,-13c-336,-4 -367,-7 -359,-41c2,-7 57,-72 123,-146c67,-73 219,-244 338,-381l217,-247l0,-134c0,-74 -3,-141 -6,-150c-6,-14 -65,-16 -565,-16l-559,0l0,149c0,146 0,149 23,155c12,3 144,6 293,6c229,0 274,2 284,15c17,20 4,39 -144,204c-67,75 -176,200 -244,278c-67,78 -154,176 -192,218l-70,75l0,153c0,85 3,157 7,160c3,4 275,6 602,5l596,-3l3,-139zm2216,122c11,-42 7,-1898 -4,-1919c-10,-18 -23,-19 -168,-19c-110,0 -162,4 -170,12c-9,9 -12,237 -12,964c0,524 3,959 6,968c5,14 30,16 174,16c165,0 168,0 174,-22zm790,6c3,-9 6,-323 6,-699c0,-569 -2,-684 -14,-694c-9,-8 -66,-11 -182,-9l-169,3l-3,695c-1,382 0,701 3,708c3,9 48,12 179,12c149,0 175,-2 180,-16zm-68,-1578c81,-38 122,-115 110,-209c-17,-122 -68,-182 -180,-207c-79,-18 -166,28 -226,118c-50,75 -38,185 28,256c64,68 175,85 268,42zm249,-1559c410,-202 627,-350 1033,-705c423,-370 746,-788 1007,-1302c96,-191 185,-388 185,-412c0,-17 -17,-18 -327,-18c-361,0 -405,-5 -513,-60c-70,-35 -127,-89 -155,-145c-16,-31 -21,-66 -23,-158c-3,-107 -1,-123 22,-185c15,-37 59,-124 100,-193c83,-143 101,-186 92,-234c-13,-69 -67,-109 -191,-140c-114,-28 -211,-5 -294,71c-93,83 -92,129 3,266c156,226 199,407 132,554c-42,92 -124,153 -253,191c-50,14 -127,17 -553,21c-305,2 -499,7 -507,13c-8,8 -13,130 -16,467c-3,362 -7,469 -19,513c-62,233 -239,343 -449,279c-85,-26 -148,-56 -242,-116c-115,-74 -161,-94 -220,-94c-92,0 -139,47 -173,173c-16,62 -18,147 -4,199c15,51 68,128 109,155c26,18 48,23 96,23c52,0 70,-5 119,-35c31,-19 112,-64 179,-101c122,-67 122,-68 231,-78c108,-10 109,-10 162,18c105,55 172,156 206,311c18,78 21,138 25,458c4,268 8,367 17,367c6,0 106,-46 221,-103zm-2785,-928c36,-5 112,-14 170,-19c100,-8 174,-21 320,-55c36,-8 79,-15 95,-15c17,0 62,-11 100,-24c39,-13 106,-31 150,-41c44,-9 88,-24 98,-33c16,-14 17,-47 17,-419c0,-450 4,-431 -69,-374c-94,74 -265,131 -395,131c-245,0 -473,-151 -581,-385c-78,-167 -92,-404 -35,-586c54,-175 221,-356 392,-426c35,-15 73,-18 196,-18l152,0l165,84c111,57 168,82 175,75c7,-7 9,-145 8,-390l-3,-379l-480,-6c-516,-6 -523,-7 -630,-62c-126,-64 -175,-138 -183,-275c-7,-125 12,-183 123,-390c52,-98 98,-191 101,-208c4,-21 -1,-47 -14,-77c-17,-39 -29,-49 -90,-80c-93,-46 -153,-54 -243,-32c-182,45 -255,181 -169,317c173,273 195,328 188,458c-10,178 -118,286 -323,325c-63,12 -202,15 -771,15c-490,0 -694,3 -694,11c0,6 30,45 67,87c94,108 182,247 263,414c101,209 116,285 86,429c-38,178 -140,281 -307,309c-56,10 -78,9 -129,-4c-86,-22 -210,-82 -327,-157c-91,-60 -102,-64 -154,-64c-49,0 -63,4 -96,31c-21,17 -49,53 -63,80c-22,43 -25,61 -24,149c1,115 24,192 73,239c24,23 41,29 94,33c77,7 122,-6 197,-57c151,-101 244,-148 310,-156c121,-15 150,-11 231,27c80,39 96,54 165,164l44,69l0,522l0,523l26,20c15,12 45,25 68,31c22,6 115,30 206,54c172,47 532,115 610,117c25,0 86,7 135,14c111,16 663,19 755,4zm-2230,-408c13,-25 14,-617 1,-626c-5,-3 -64,26 -130,64c-67,38 -145,75 -174,83c-31,8 -106,13 -187,13l-135,0l-93,-48c-52,-26 -114,-61 -138,-78c-78,-53 -154,-164 -215,-314l-33,-80l-1,-180l0,-180l46,-113c58,-140 81,-173 190,-273c82,-74 92,-81 166,-100c66,-18 101,-20 233,-17l155,3l89,43c49,23 104,54 122,67c93,71 75,-20 -37,-186c-154,-230 -300,-365 -531,-495c-80,-45 -102,-63 -112,-88c-7,-21 -10,-87 -8,-199l3,-168l27,-11c19,-7 330,-8 1037,-4c556,4 1019,4 1028,0c26,-10 21,-32 -22,-88c-125,-164 -161,-285 -141,-469c6,-55 20,-123 31,-151c28,-74 123,-202 177,-239c25,-18 60,-44 77,-59c18,-15 69,-42 114,-59c44,-17 83,-35 86,-40c3,-4 19,-6 36,-2c17,3 58,-2 94,-12c39,-10 81,-15 107,-12c24,3 80,10 125,15c45,5 92,16 105,24c13,8 42,17 66,21c30,3 70,23 130,64c105,71 177,160 224,278c30,74 32,89 32,195c-1,146 -26,229 -119,385c-36,60 -64,115 -63,122c2,9 251,13 1065,19c583,3 1066,3 1072,0c13,-8 -9,-55 -76,-158c-26,-40 -59,-101 -75,-137c-26,-63 -27,-73 -28,-226c0,-158 0,-161 31,-225c24,-52 53,-87 139,-171c114,-111 145,-130 275,-172c102,-33 181,-47 266,-47c71,0 220,25 252,42c34,18 43,-5 25,-59c-47,-136 -60,-310 -33,-437c28,-133 150,-343 237,-409c60,-46 188,-109 226,-112c20,-1 63,-8 95,-16c47,-11 65,-11 100,0c23,7 67,16 97,21c49,7 173,64 277,126c17,10 35,16 39,12c3,-4 -3,-42 -14,-85c-12,-43 -30,-130 -42,-193c-18,-105 -101,-401 -137,-493c-10,-23 -23,-39 -37,-42c-11,-3 -187,-6 -391,-8c-359,-2 -372,-3 -427,-25c-72,-29 -145,-95 -183,-163c-23,-43 -30,-69 -33,-134c-3,-71 0,-90 28,-166c31,-87 100,-216 165,-311c30,-43 35,-59 35,-108c0,-97 -54,-151 -186,-184c-135,-34 -305,-8 -358,55c-35,42 -51,103 -37,149c6,20 43,89 82,155c40,66 86,152 103,190c27,63 30,80 31,175c0,83 -4,113 -19,143c-29,58 -98,130 -156,161c-111,60 -97,59 -800,64c-355,2 -668,1 -696,-3c-97,-12 -88,48 -94,-637c-6,-681 0,-642 -83,-574c-108,89 -277,141 -430,134c-150,-8 -258,-60 -382,-183c-144,-143 -215,-347 -203,-579c6,-101 45,-233 100,-340c47,-91 187,-224 286,-273l77,-38l167,-3l166,-3l74,31c40,17 106,52 146,77c40,24 78,43 85,40c7,-2 23,-40 35,-82c13,-43 43,-122 67,-175c25,-53 45,-109 45,-123c0,-22 -6,-26 -52,-37c-29,-7 -143,-37 -253,-67c-110,-29 -249,-62 -310,-73c-515,-91 -1039,-103 -1515,-34c-237,34 -252,38 -312,93c-72,64 -208,219 -253,287c-63,94 -131,233 -169,341c-19,56 -44,119 -55,140c-27,53 -101,119 -169,151c-51,24 -69,27 -162,27c-123,-1 -169,-16 -301,-97c-151,-93 -207,-118 -262,-118c-128,0 -184,114 -176,358c4,96 7,112 32,155c36,61 87,95 157,103c54,6 57,5 157,-55c56,-33 118,-67 138,-75c20,-9 48,-24 63,-34c44,-30 170,-66 228,-64c71,2 108,19 176,81c72,66 92,108 125,267l27,129l3,589c4,521 2,591 -12,612l-15,24l-650,0c-358,0 -650,4 -650,8c0,5 32,62 71,128c104,173 114,204 113,349c0,104 -4,131 -28,199c-15,43 -38,98 -52,121c-84,145 -267,268 -458,310c-118,26 -313,17 -421,-19c-209,-71 -349,-201 -420,-390c-36,-97 -39,-149 -15,-256c35,-154 49,-190 116,-300c67,-110 75,-135 47,-144c-10,-2 -120,-4 -245,-3c-188,2 -230,5 -243,17c-25,25 -112,295 -149,460c-110,491 -144,842 -126,1294c15,369 49,585 151,976c83,315 155,509 304,815c251,515 561,932 1005,1352c256,242 419,364 753,565c187,112 431,245 454,247c7,1 17,-8 23,-18zm6254,-2983c20,-33 84,-307 96,-413c5,-49 17,-125 25,-168c8,-43 15,-108 15,-143c0,-78 -7,-80 -89,-24c-129,88 -235,120 -399,120c-84,0 -121,-4 -144,-16c-46,-24 -56,-7 -35,59c45,142 -8,376 -118,519c-34,46 -42,68 -28,81c3,4 154,7 334,7l329,0l14,-22zm-269,-1086c33,-16 110,-60 170,-97c61,-38 139,-81 175,-96c101,-43 93,-81 -24,-118c-39,-12 -113,-48 -165,-80c-151,-92 -211,-121 -248,-121c-106,0 -179,114 -177,275c1,89 16,133 65,194c34,43 80,70 119,71c14,0 52,-13 85,-28zm-7240,-972c72,-22 145,-121 145,-196c0,-11 -30,-64 -66,-119c-220,-335 -227,-563 -20,-704c22,-15 68,-39 101,-52c60,-24 62,-24 568,-29c437,-4 509,-7 517,-20c14,-21 13,-723 0,-736c-8,-8 -36,5 -93,43c-244,161 -574,144 -781,-38c-94,-83 -189,-248 -221,-381c-17,-71 -19,-183 -5,-243c5,-24 5,-44 0,-49c-13,-13 -196,159 -352,330c-252,275 -429,515 -601,811c-60,103 -118,205 -130,225c-12,20 -18,40 -14,45c5,4 106,11 225,14c200,5 224,8 299,33c181,59 276,217 252,419c-11,87 -44,166 -136,320c-87,147 -99,193 -65,249c24,39 87,78 128,79c16,0 38,5 49,10c25,11 147,5 200,-11zm7205,-1082c0,-7 -23,-51 -51,-98c-29,-47 -72,-125 -97,-173c-24,-49 -48,-85 -52,-80c-4,4 -16,35 -27,68c-11,34 -50,109 -87,168c-36,59 -66,112 -66,117c0,6 73,10 190,10c145,0 190,-3 190,-12zm-1758,-15c141,-3 262,-9 269,-13c8,-6 -3,-32 -39,-91c-107,-180 -132,-252 -132,-387c0,-151 53,-286 156,-401c136,-150 315,-223 554,-225c90,0 124,3 154,17c22,9 42,15 45,12c10,-10 -247,-254 -419,-398c-141,-118 -287,-225 -530,-387c-45,-30 -294,-167 -412,-227c-16,-8 -37,-12 -48,-8c-49,15 -115,163 -171,382c-21,84 -45,166 -54,183c-41,79 -148,147 -249,157c-97,10 -230,-37 -378,-132c-104,-68 -166,-95 -218,-95c-111,0 -191,115 -192,275c0,163 62,254 180,263c56,4 60,3 142,-53c47,-31 133,-80 191,-110l106,-53l119,2c100,2 126,5 159,23c52,27 117,97 149,162c52,103 56,139 56,626c0,248 3,461 7,474l6,24l146,-7c80,-3 262,-9 403,-13zm-4111,-2011c21,-51 49,-112 63,-136c39,-67 20,-70 -102,-11c-59,28 -133,62 -165,76c-70,29 -70,45 -2,80c28,14 73,39 100,57c28,17 54,30 59,29c5,-2 26,-45 47,-95z"/>
   <path fill="#000000" id="svg_2" d="m913,12879c-74,-28 -147,-97 -182,-172c-41,-87 -54,-159 -49,-265c4,-79 9,-99 40,-164c74,-149 155,-209 294,-216c72,-4 89,-1 138,21c75,34 159,116 195,189c40,78 54,155 49,254c-4,70 -10,94 -41,157c-89,180 -274,261 -444,196z"/>
  </g>
  <g fill="#1aa79d" id="layer2">
   <path id="svg_3" d="m7937,9773c-4,-320 -7,-380 -25,-458c-34,-155 -101,-256 -206,-311c-53,-28 -54,-28 -162,-18c-109,10 -109,11 -231,78c-67,37 -148,82 -179,101c-49,30 -67,35 -119,35c-48,0 -70,-5 -96,-23c-41,-27 -94,-104 -109,-155c-14,-52 -12,-137 4,-199c34,-126 81,-173 173,-173c59,0 105,20 220,94c94,60 157,90 242,116c210,64 387,-46 449,-279c12,-44 16,-151 19,-513c3,-337 8,-459 16,-467c8,-6 202,-11 507,-13c426,-4 503,-7 553,-21c129,-38 211,-99 253,-191c67,-147 24,-328 -132,-554c-95,-137 -96,-183 -3,-266c83,-76 180,-99 294,-71c124,31 178,71 191,140c9,48 -9,91 -92,234c-41,69 -85,156 -100,193c-23,62 -25,78 -22,185c2,92 7,127 23,158c28,56 85,110 155,145c108,55 152,60 513,60c310,0 327,1 327,18c0,24 -89,221 -185,412c-261,514 -584,932 -1007,1302c-304,265 -459,382 -718,538c-107,64 -515,270 -536,270c-9,0 -13,-99 -17,-367z"/>
   <path id="svg_4" d="m2998,8651c-277,-145 -625,-367 -820,-522c-114,-91 -392,-355 -516,-491c-298,-325 -543,-686 -737,-1083c-149,-306 -221,-500 -304,-815c-102,-391 -136,-607 -151,-976c-18,-452 16,-803 126,-1294c37,-165 124,-435 149,-460c13,-12 55,-15 243,-17c125,-1 235,1 245,3c28,9 20,34 -47,144c-67,110 -81,146 -116,300c-24,107 -21,159 15,256c71,189 211,319 420,390c108,36 303,45 421,19c191,-42 374,-165 458,-310c14,-23 37,-78 52,-121c24,-68 28,-95 28,-199c1,-145 -9,-176 -113,-349c-39,-66 -71,-123 -71,-128c0,-4 292,-8 650,-8l650,0l15,-24c14,-21 16,-91 12,-612l-3,-589l-27,-129c-33,-159 -53,-201 -125,-267c-68,-62 -105,-79 -176,-81c-58,-2 -184,34 -228,64c-15,10 -43,25 -63,34c-20,8 -82,42 -138,75c-100,60 -103,61 -157,55c-70,-8 -121,-42 -157,-103c-25,-43 -28,-59 -32,-155c-8,-244 48,-358 176,-358c55,0 111,25 262,118c132,81 178,96 301,97c93,0 111,-3 162,-27c68,-32 142,-98 169,-151c11,-21 36,-84 55,-140c38,-108 106,-247 169,-341c45,-68 181,-223 253,-287c60,-55 75,-59 312,-93c476,-69 1000,-57 1515,34c61,11 200,44 310,73c110,30 224,60 253,67c46,11 52,15 52,37c0,14 -20,70 -45,123c-24,53 -54,132 -67,175c-12,42 -28,80 -35,82c-7,3 -45,-16 -85,-40c-40,-25 -106,-60 -146,-77l-74,-31l-166,3l-167,3l-77,38c-99,49 -239,182 -286,273c-55,107 -94,239 -100,340c-12,232 59,436 203,579c124,123 232,175 382,183c153,7 322,-45 430,-134c83,-68 77,-107 83,574c6,685 -3,625 94,637c28,4 341,5 696,3c703,-5 689,-4 800,-64c58,-31 127,-103 156,-161c15,-30 19,-60 19,-143c-1,-95 -4,-112 -31,-175c-17,-38 -63,-124 -103,-190c-39,-66 -76,-135 -82,-155c-14,-46 2,-107 37,-149c53,-63 223,-89 358,-55c132,33 186,87 186,184c0,49 -5,65 -35,108c-65,95 -134,224 -165,311c-28,76 -31,95 -28,166c3,65 10,91 33,134c38,68 111,134 183,163c55,22 68,23 427,25c204,2 380,5 391,8c14,3 27,19 37,42c36,92 119,388 137,493c12,63 30,150 42,193c11,43 17,81 14,85c-4,4 -22,-2 -39,-12c-104,-62 -228,-119 -277,-126c-30,-5 -74,-14 -97,-21c-35,-11 -53,-11 -100,0c-32,8 -75,15 -95,16c-38,3 -166,66 -226,112c-87,66 -209,276 -237,409c-27,127 -14,301 33,437c18,54 9,77 -25,59c-32,-17 -181,-42 -252,-42c-85,0 -164,14 -266,47c-130,42 -161,61 -275,172c-86,84 -115,119 -139,171c-31,64 -31,67 -31,225c1,153 2,163 28,226c16,36 49,97 75,137c67,103 89,150 76,158c-6,3 -489,3 -1072,0c-814,-6 -1063,-10 -1065,-19c-1,-7 27,-62 63,-122c93,-156 118,-239 119,-385c0,-106 -2,-121 -32,-195c-47,-118 -119,-207 -224,-278c-60,-41 -100,-61 -130,-64c-24,-4 -53,-13 -66,-21c-13,-8 -60,-19 -105,-24c-45,-5 -101,-12 -125,-15c-26,-3 -68,2 -107,12c-36,10 -77,15 -94,12c-17,-4 -33,-2 -36,2c-3,5 -42,23 -86,40c-45,17 -96,44 -114,59c-17,15 -52,41 -77,59c-54,37 -149,165 -177,239c-11,28 -25,96 -31,151c-20,184 16,305 141,469c43,56 48,78 22,88c-9,4 -472,4 -1028,0c-707,-4 -1018,-3 -1037,4l-27,11l-3,168c-2,112 1,178 8,199c10,25 32,43 112,88c231,130 377,265 531,495c112,166 130,257 37,186c-18,-13 -73,-44 -122,-67l-89,-43l-155,-3c-132,-3 -167,-1 -233,17c-74,19 -84,26 -166,100c-109,100 -132,133 -190,273l-46,113l0,180l1,180l33,80c61,150 137,261 215,314c24,17 86,52 138,78l93,48l135,0c81,0 156,-5 187,-13c29,-8 107,-45 174,-83c66,-38 125,-67 130,-64c13,9 12,601 -1,626c-6,10 -16,19 -23,18c-7,-1 -69,-31 -139,-68z"/>
   <path id="svg_5" d="m8737,5733c-14,-13 -6,-35 28,-81c110,-143 163,-377 118,-519c-21,-66 -11,-83 35,-59c23,12 60,16 144,16c164,0 270,-32 399,-120c82,-56 89,-54 89,24c0,35 -7,100 -15,143c-8,43 -20,119 -25,168c-12,106 -76,380 -96,413l-14,22l-329,0c-180,0 -331,-3 -334,-7z"/>
  </g>
  <g fill="#f37129" id="layer3">
   <path id="svg_6" d="m9745,13750c-90,-18 -269,-119 -263,-149c5,-29 143,-251 155,-251c7,0 33,13 58,29c63,40 134,56 179,41c44,-14 101,-77 117,-128c10,-35 9,-50 -10,-113c-26,-84 -176,-484 -318,-849c-184,-469 -206,-529 -200,-545c5,-13 32,-15 180,-15c124,0 178,4 191,13c9,7 90,201 180,432c138,355 166,420 184,423c13,2 26,-5 36,-20c15,-24 181,-435 273,-678c30,-80 60,-151 65,-157c13,-16 388,-19 388,-3c0,5 -44,121 -99,257c-54,137 -149,379 -211,538c-192,494 -350,888 -378,940c-39,73 -129,158 -204,193c-99,47 -219,63 -323,42z"/>
   <path id="svg_7" d="m290,12742l0,-978l183,-1c103,0 190,3 201,9c16,9 18,18 12,64c-5,46 -3,55 13,63c14,8 32,1 87,-36c131,-87 182,-105 307,-111c198,-8 319,39 457,177c96,97 148,180 187,296c25,75 27,92 27,255c1,166 -1,179 -27,255c-63,181 -204,349 -350,418c-100,48 -141,57 -257,57c-158,0 -245,-32 -351,-129c-97,-87 -95,-95 -90,288c2,244 0,325 -9,336c-10,12 -47,15 -201,15l-189,0l0,-978zm865,137c80,-30 156,-104 202,-196c31,-63 37,-87 41,-157c5,-99 -9,-176 -49,-254c-36,-73 -120,-155 -195,-189c-49,-22 -66,-25 -138,-21c-139,7 -220,67 -294,216c-31,65 -36,85 -40,164c-13,267 131,456 350,457c45,1 86,-6 123,-20z"/>
   <path id="svg_8" d="m2555,13203c-169,-22 -327,-129 -394,-265c-58,-118 -61,-156 -59,-685l3,-478l169,-3c116,-2 173,1 182,9c12,9 14,83 14,413c0,369 2,408 20,486c12,47 28,96 37,109c51,78 137,117 238,109c145,-12 253,-122 285,-288c6,-29 10,-220 10,-435c0,-313 3,-385 14,-394c9,-8 66,-11 182,-9l169,3l3,702c2,661 1,703 -15,711c-10,4 -92,6 -183,3l-165,-6l-3,-55c-5,-121 -25,-129 -112,-46c-107,103 -233,141 -395,119z"/>
   <path id="svg_9" d="m8894,13201c-160,-26 -269,-104 -340,-243c-50,-99 -54,-135 -54,-528c0,-278 -3,-370 -12,-382c-8,-10 -36,-18 -72,-21c-32,-3 -64,-11 -70,-17c-6,-6 -12,-57 -14,-113c-5,-126 2,-137 82,-137c80,0 81,-2 83,-214c2,-100 5,-187 8,-193c3,-10 50,-13 184,-13c133,0 182,3 188,13c4,6 10,100 13,207l5,195l159,3c99,1 165,7 173,14c10,8 13,40 11,132l-3,121l-159,3c-97,1 -165,7 -173,13c-10,9 -13,86 -13,373c0,414 0,413 80,454c76,38 150,27 224,-35c36,-30 46,-23 92,66c18,36 43,83 56,104c17,29 20,42 12,55c-15,24 -138,98 -203,123c-61,23 -181,32 -257,20z"/>
   <path id="svg_10" d="m5282,13188c-16,-16 -16,-283 1,-320c7,-15 98,-123 203,-240c213,-237 408,-461 432,-496c28,-43 12,-45 -288,-43c-205,2 -285,-1 -296,-10c-11,-9 -14,-43 -14,-159c0,-126 2,-149 16,-154c28,-11 1094,-7 1115,4c17,10 19,22 19,138c0,89 -4,135 -14,154c-8,14 -163,195 -345,402c-182,207 -331,382 -331,390c0,8 8,17 18,21c9,3 168,5 352,4c184,-2 341,0 348,4c9,6 12,47 12,147c0,76 -3,145 -6,154c-6,14 -68,16 -608,16c-455,0 -605,-3 -614,-12z"/>
   <path id="svg_11" d="m3787,13183c-4,-3 -7,-75 -7,-160l0,-153l70,-75c38,-42 125,-140 192,-218c68,-78 177,-203 244,-278c148,-165 161,-184 144,-204c-10,-13 -55,-15 -284,-15c-149,0 -281,-3 -293,-6c-23,-6 -23,-9 -23,-155l0,-149l559,0c500,0 559,2 565,16c3,9 6,76 6,150l0,134l-217,247c-119,137 -271,308 -338,381c-66,74 -121,139 -123,146c-8,34 23,37 359,41c182,2 336,8 341,13c5,5 7,71 6,148l-3,139l-596,3c-327,1 -599,-1 -602,-5z"/>
   <path id="svg_12" d="m6856,13174c-3,-9 -6,-444 -6,-968c0,-727 3,-955 12,-964c8,-8 60,-12 170,-12c145,0 158,1 168,19c11,21 15,1877 4,1919c-6,22 -9,22 -174,22c-144,0 -169,-2 -174,-16z"/>
   <path id="svg_13" d="m7635,13178c-3,-7 -4,-326 -3,-708l3,-695l169,-3c116,-2 173,1 182,9c12,10 14,125 14,694c0,376 -3,690 -6,699c-5,14 -31,16 -180,16c-131,0 -176,-3 -179,-12z"/>
   <path id="svg_14" d="m7725,11601c-80,-37 -125,-111 -125,-204c0,-123 141,-243 256,-217c112,25 163,85 180,207c12,94 -29,171 -110,209c-63,29 -144,31 -201,5z"/>
   <path id="svg_15" d="m4635,9105c-49,-7 -110,-14 -135,-14c-78,-2 -438,-70 -610,-117c-91,-24 -184,-48 -206,-54c-23,-6 -53,-19 -68,-31l-26,-20l0,-523l0,-522l-44,-69c-69,-110 -85,-125 -165,-164c-81,-38 -110,-42 -231,-27c-66,8 -159,55 -310,156c-75,51 -120,64 -197,57c-53,-4 -70,-10 -94,-33c-49,-47 -72,-124 -73,-239c-1,-88 2,-106 24,-149c14,-27 42,-63 63,-80c33,-27 47,-31 96,-31c52,0 63,4 154,64c117,75 241,135 327,157c51,13 73,14 129,4c167,-28 269,-131 307,-309c30,-144 15,-220 -86,-429c-81,-167 -169,-306 -263,-414c-37,-42 -67,-81 -67,-87c0,-8 204,-11 694,-11c569,0 708,-3 771,-15c205,-39 313,-147 323,-325c7,-130 -15,-185 -188,-458c-86,-136 -13,-272 169,-317c90,-22 150,-14 243,32c61,31 73,41 90,80c13,30 18,56 14,77c-3,17 -49,110 -101,208c-111,207 -130,265 -123,390c8,137 57,211 183,275c107,55 114,56 630,62l480,6l3,379c1,245 -1,383 -8,390c-7,7 -64,-18 -175,-75l-165,-84l-152,0c-123,0 -161,3 -196,18c-171,70 -338,251 -392,426c-75,241 -30,528 114,718c84,111 224,203 361,238c164,42 401,-10 536,-116c73,-57 69,-76 69,374c0,372 -1,405 -17,419c-10,9 -54,24 -98,33c-44,10 -111,28 -150,41c-38,13 -83,24 -100,24c-16,0 -59,7 -95,15c-146,34 -220,47 -320,55c-58,5 -134,14 -170,19c-92,15 -644,12 -755,-4z"/>
   <path id="svg_16" d="m9004,4644c-37,-18 -89,-79 -111,-132c-23,-53 -23,-183 0,-250c32,-90 90,-142 160,-142c37,0 97,29 248,121c52,32 126,68 165,80c117,37 125,75 24,118c-36,15 -114,58 -175,96c-130,81 -221,125 -255,125c-14,0 -39,-7 -56,-16z"/>
   <path id="svg_17" d="m1705,3671c-11,-5 -33,-10 -49,-10c-41,-1 -104,-40 -128,-79c-34,-56 -22,-102 65,-249c92,-154 125,-233 136,-320c24,-202 -71,-360 -252,-419c-75,-25 -99,-28 -299,-33c-119,-3 -220,-10 -225,-14c-4,-5 2,-25 14,-45c12,-20 70,-122 130,-225c172,-296 349,-536 601,-811c156,-171 339,-343 352,-330c5,5 5,25 0,49c-54,230 98,562 315,689c203,120 486,108 692,-27c57,-38 85,-51 93,-43c13,13 14,715 0,736c-8,13 -80,16 -517,20c-506,5 -508,5 -568,29c-33,13 -79,37 -101,52c-207,141 -200,369 20,704c36,55 66,108 66,119c0,75 -73,174 -145,196c-53,16 -175,22 -200,11z"/>
   <path id="svg_18" d="m8730,2580c0,-5 30,-58 66,-117c37,-59 76,-134 87,-168c11,-33 23,-64 27,-68c4,-5 28,31 52,80c25,48 68,126 97,173c28,47 51,91 51,98c0,9 -45,12 -190,12c-117,0 -190,-4 -190,-10z"/>
   <path id="svg_19" d="m6797,2559c-4,-13 -7,-226 -7,-474c0,-487 -4,-523 -56,-626c-32,-65 -97,-135 -149,-162c-33,-18 -59,-21 -159,-23l-119,-2l-106,53c-58,30 -144,79 -191,110c-82,56 -86,57 -142,53c-118,-9 -180,-100 -180,-263c1,-160 81,-275 192,-275c52,0 114,27 218,95c148,95 281,142 378,132c101,-10 208,-78 249,-157c9,-17 33,-99 54,-183c56,-219 122,-367 171,-382c11,-4 32,0 48,8c118,60 367,197 412,227c243,162 389,269 530,387c172,144 429,388 419,398c-3,3 -23,-3 -45,-12c-30,-14 -64,-17 -154,-17c-239,2 -418,75 -554,225c-103,115 -156,250 -156,401c0,135 25,207 132,387c36,59 47,85 39,91c-7,4 -128,10 -269,13c-141,4 -323,10 -403,13l-146,7l-6,-24z"/>
   <path id="svg_20" d="m3135,618c-27,-18 -72,-43 -100,-57c-68,-35 -68,-51 2,-80c32,-14 106,-48 165,-76c122,-59 141,-56 102,11c-14,24 -42,85 -63,136c-21,50 -42,93 -47,95c-5,1 -31,-12 -59,-29z"/>
  </g>
 </g>
</svg>