<?xml version="1.0"?>
<svg width="502.643" height="502.643" xmlns="http://www.w3.org/2000/svg" xmlns:svg="http://www.w3.org/2000/svg">
 <g>
  <title>Layer 1</title>
  <g id="svg_1">
   <g id="svg_2">
    <path d="m251.256,237.591c37.166,0 67.042,-30.048 67.042,-66.977c0.043,-37.037 -29.876,-66.999 -67.042,-66.999c-36.908,0 -66.869,29.962 -66.869,66.999c0,36.973 29.962,66.977 66.869,66.977z" id="svg_3" fill="#ffffff"/>
    <path d="m305.032,248.506l-107.379,0c-19.198,0 -34.923,17.602 -34.923,39.194l0,107.854c0,1.186 0.604,2.243 0.669,3.473l175.823,0c0.129,-1.229 0.626,-2.286 0.626,-3.473l0,-107.854c0.064,-21.592 -15.661,-39.194 -34.816,-39.194z" id="svg_4" fill="#ffffff"/>
    <path d="m431.588,269.559c29.832,0 53.754,-24.008 53.754,-53.668s-23.922,-53.711 -53.754,-53.711c-29.617,0 -53.582,24.051 -53.582,53.711c-0.064,29.639 23.966,53.668 53.582,53.668z" id="svg_5" fill="#ffffff"/>
    <path d="m474.708,278.317l-86.046,0c-15.445,0 -28.064,14.107 -28.064,31.472l0,86.413c0,0.928 0.453,1.812 0.518,2.826l141.03,0c0.065,-1.014 0.496,-1.898 0.496,-2.826l0,-86.413c0.065,-17.365 -12.532,-31.472 -27.934,-31.472z" id="svg_6" fill="#ffffff"/>
    <path d="m71.011,269.559c29.789,0 53.733,-24.008 53.733,-53.668s-23.944,-53.711 -53.733,-53.711c-29.638,0 -53.603,24.051 -53.603,53.711s23.965,53.668 53.603,53.668l0,0z" id="svg_7" fill="#ffffff"/>
    <path d="m114.109,278.317l-86.132,0c-15.401,0 -27.977,14.107 -27.977,31.472l0,86.413c0,0.928 0.453,1.812 0.539,2.826l141.03,0c0.065,-1.014 0.475,-1.898 0.475,-2.826l0,-86.413c0.043,-17.365 -12.555,-31.472 -27.935,-31.472z" id="svg_8" fill="#ffffff"/>
   </g>
   <g id="svg_9"/>
   <g id="svg_10"/>
   <g id="svg_11"/>
   <g id="svg_12"/>
   <g id="svg_13"/>
   <g id="svg_14"/>
   <g id="svg_15"/>
   <g id="svg_16"/>
   <g id="svg_17"/>
   <g id="svg_18"/>
   <g id="svg_19"/>
   <g id="svg_20"/>
   <g id="svg_21"/>
   <g id="svg_22"/>
   <g id="svg_23"/>
  </g>
  <g id="svg_24"/>
  <g id="svg_25"/>
  <g id="svg_26"/>
  <g id="svg_27"/>
  <g id="svg_28"/>
  <g id="svg_29"/>
  <g id="svg_30"/>
  <g id="svg_31"/>
  <g id="svg_32"/>
  <g id="svg_33"/>
  <g id="svg_34"/>
  <g id="svg_35"/>
  <g id="svg_36"/>
  <g id="svg_37"/>
  <g id="svg_38"/>
 </g>
</svg>