<?xml version="1.0"?>
<svg width="573.445" height="573.445" xmlns="http://www.w3.org/2000/svg" xmlns:svg="http://www.w3.org/2000/svg">
 <g>
  <title>Layer 1</title>
  <g id="svg_1">
   <g id="svg_2">
    <path id="svg_3" fill="#ffffff" d="m174.727,79.56c-3.06,-6.936 -4.59,-14.484 -4.59,-22.644c0,-7.752 1.53,-15.096 4.59,-22.032s7.14,-12.954 12.24,-18.054c5.1,-5.1 11.118,-9.18 18.054,-12.24s14.484,-4.59 22.644,-4.59c7.752,0 15.096,1.53 22.032,4.59s13.056,7.14 18.36,12.24s9.384,11.118 12.24,18.054s4.284,14.28 4.284,22.032c0,15.912 -5.508,29.478 -16.524,40.698s-24.48,16.83 -40.392,16.83c-8.16,0 -15.708,-1.53 -22.644,-4.59c-6.936,-3.06 -12.954,-7.14 -18.054,-12.24c-5.1,-5.1 -9.18,-11.118 -12.24,-18.054zm222.462,313.344c-6.936,-1.633 -13.157,-0.611 -18.665,3.061s-9.078,8.771 -10.71,15.301c-1.224,6.119 -3.06,12.035 -5.508,17.748c-5.304,14.279 -12.75,27.336 -22.338,39.168s-20.605,22.033 -33.048,30.6c-12.444,8.568 -26.112,15.199 -41.004,19.893c-14.892,4.689 -30.294,7.037 -46.206,7.037c-20.808,0 -40.392,-3.875 -58.752,-11.627c-18.36,-7.754 -34.374,-18.156 -48.042,-31.213c-13.668,-13.059 -24.48,-28.459 -32.436,-46.205c-7.956,-17.748 -11.934,-36.824 -11.934,-57.225c0,-15.096 2.346,-29.682 7.038,-43.758s11.322,-27.133 19.89,-39.168c8.568,-12.037 18.768,-22.645 30.6,-31.825c11.832,-9.18 25.092,-16.626 39.78,-22.338c6.528,-2.04 11.22,-6.12 14.076,-12.24s3.06,-12.24 0.612,-18.36s-6.834,-10.506 -13.158,-13.158c-6.324,-2.652 -12.75,-2.958 -19.278,-0.918c-19.176,7.344 -36.72,17.136 -52.632,29.376c-15.912,12.24 -29.58,26.316 -41.004,42.228s-20.196,33.25 -26.316,52.02c-6.12,18.767 -9.18,38.146 -9.18,58.14c0,26.93 5.304,52.121 15.912,75.582c10.608,23.459 24.99,43.961 43.146,61.506c18.156,17.543 39.372,31.416 63.648,41.615c24.276,10.201 50.286,15.301 78.03,15.301c21.216,0 41.616,-3.061 61.2,-9.18c19.583,-6.121 37.739,-14.791 54.468,-26.01c16.727,-11.219 31.416,-24.787 44.062,-40.699c12.648,-15.912 22.44,-33.455 29.376,-52.631c2.857,-6.939 5.304,-14.689 7.344,-23.256c1.634,-6.938 0.612,-13.059 -3.06,-18.361c-3.672,-5.3 -8.974,-8.771 -15.911,-10.404zm154.223,93.637l-93.636,-162.793c-3.264,-6.938 -8.161,-12.445 -14.688,-16.525c-6.528,-4.08 -13.872,-6.119 -22.032,-6.119l-104.04,0l-12.24,-59.976l81.398,0c4.895,0.408 9.588,-0.408 14.076,-2.448c4.485,-2.04 7.953,-5.304 10.401,-9.792c3.267,-5.712 3.979,-11.832 2.145,-18.36c-1.836,-6.528 -5.815,-11.424 -11.937,-14.688c-3.264,-2.04 -6.936,-3.06 -11.016,-3.06l-95.473,0l-5.507,-28.152c0,-0.816 -0.103,-1.326 -0.307,-1.53s-0.307,-0.714 -0.307,-1.53l-0.611,-1.836c-2.856,-9.384 -8.262,-17.136 -16.218,-23.256s-17.238,-9.18 -27.846,-9.18c-13.056,0 -24.072,4.386 -33.048,13.158c-8.976,8.772 -13.464,19.278 -13.464,31.518c0,2.04 0.204,3.672 0.612,4.896l-0.612,0l33.66,162.18c1.632,9.385 6.12,17.035 13.464,22.951c7.344,5.916 15.912,8.873 25.704,8.873c2.856,0 5.1,-0.203 6.732,-0.611l138.925,0l80.784,140.76c2.446,5.303 6.118,9.588 11.016,12.854c4.896,3.264 10.609,4.896 17.136,4.896c8.16,0 15.198,-2.854 21.114,-8.568c5.916,-5.713 8.874,-12.646 8.874,-20.809c0.003,-4.492 -1.018,-8.773 -3.059,-12.853z"/>
   </g>
  </g>
  <g id="svg_4"/>
  <g id="svg_5"/>
  <g id="svg_6"/>
  <g id="svg_7"/>
  <g id="svg_8"/>
  <g id="svg_9"/>
  <g id="svg_10"/>
  <g id="svg_11"/>
  <g id="svg_12"/>
  <g id="svg_13"/>
  <g id="svg_14"/>
  <g id="svg_15"/>
  <g id="svg_16"/>
  <g id="svg_17"/>
  <g id="svg_18"/>
 </g>
</svg>