<?xml version="1.0"?>
<svg width="96.992" height="96.992" xmlns="http://www.w3.org/2000/svg" xmlns:svg="http://www.w3.org/2000/svg">
 <g>
  <title>Layer 1</title>
  <g id="svg_1">
   <path fill="#ffffff" id="svg_2" d="m82.297,16.976l-16.269,-16.244c-0.469,-0.469 -1.104,-0.732 -1.768,-0.732l-47.797,0c-1.381,0 -2.5,1.119 -2.5,2.5l0,91.992c0,1.381 1.119,2.5 2.5,2.5l64.066,0c1.381,0 2.5,-1.119 2.5,-2.5l0,-75.748c0,-0.663 -0.263,-1.299 -0.732,-1.768zm-62.428,4.491c0,-0.829 0.672,-1.5 1.5,-1.5l27.262,0c0.828,0 1.5,0.671 1.5,1.5l0,4.389c0,0.829 -0.672,1.5 -1.5,1.5l-27.262,0c-0.828,0 -1.5,-0.671 -1.5,-1.5l0,-4.389zm0,15c0,-0.829 0.672,-1.5 1.5,-1.5l27.262,0c0.828,0 1.5,0.671 1.5,1.5l0,4.389c0,0.829 -0.672,1.5 -1.5,1.5l-27.262,0c-0.828,0 -1.5,-0.671 -1.5,-1.5l0,-4.389zm35.5,0c0,-0.829 0.672,-1.5 1.5,-1.5l16.762,0c0.828,0 1.5,0.671 1.5,1.5l0,34.388c0,0.83 -0.672,1.5 -1.5,1.5l-16.762,0c-0.828,0 -1.5,-0.67 -1.5,-1.5l0,-34.388zm-35.5,15c0,-0.828 0.672,-1.5 1.5,-1.5l27.262,0c0.828,0 1.5,0.672 1.5,1.5l0,4.389c0,0.83 -0.672,1.5 -1.5,1.5l-27.262,0c-0.828,0 -1.5,-0.67 -1.5,-1.5l0,-4.389zm0,15c0,-0.828 0.672,-1.5 1.5,-1.5l27.262,0c0.828,0 1.5,0.672 1.5,1.5l0,4.389c0,0.83 -0.672,1.5 -1.5,1.5l-27.262,0c-0.828,0 -1.5,-0.67 -1.5,-1.5l0,-4.389zm55.762,19.388c0,0.828 -0.672,1.5 -1.5,1.5l-52.762,0c-0.828,0 -1.5,-0.672 -1.5,-1.5l0,-4.39c0,-0.829 0.672,-1.5 1.5,-1.5l52.762,0c0.828,0 1.5,0.671 1.5,1.5l0,4.39zm-13.58,-63.512c-0.337,0 -0.658,-0.134 -0.896,-0.372c-0.237,-0.238 -0.372,-0.561 -0.372,-0.897l0.002,-15.126l16.395,16.396l-15.129,-0.001l0,0z"/>
  </g>
  <g id="svg_3"/>
  <g id="svg_4"/>
  <g id="svg_5"/>
  <g id="svg_6"/>
  <g id="svg_7"/>
  <g id="svg_8"/>
  <g id="svg_9"/>
  <g id="svg_10"/>
  <g id="svg_11"/>
  <g id="svg_12"/>
  <g id="svg_13"/>
  <g id="svg_14"/>
  <g id="svg_15"/>
  <g id="svg_16"/>
  <g id="svg_17"/>
 </g>
</svg>