<?xml version="1.0"?>
<svg width="326.983" height="326.983" xmlns="http://www.w3.org/2000/svg" xmlns:svg="http://www.w3.org/2000/svg">
 <g>
  <title>Layer 1</title>
  <g id="svg_1">
   <g id="Layer_5_4_">
    <path fill="#ffffff" id="svg_2" d="m245.758,137.029c-15.409,15.409 -38.478,13.495 -53.887,-1.915c-15.409,-15.409 -17.324,-38.478 -1.914,-53.887c18.039,-18.04 30.199,-8.048 42.918,-13.674c1.167,-0.516 1.826,-2.574 0.176,-4.224l-58.953,-58.953c-5.833,-5.833 -15.379,-5.833 -21.213,0l-62.862,62.863c-1.326,1.326 -1.98,0.201 -2.243,-0.371c-5.902,-12.83 4.854,-24.38 -13.316,-42.55c-15.409,-15.409 -38.478,-13.495 -53.887,1.915c-15.409,15.409 -17.324,38.478 -1.915,53.887c17.985,17.985 29.577,7.721 42.204,13.185c0.683,0.295 2.198,0.892 0.43,2.66l-56.92,56.92c-5.834,5.833 -5.834,15.379 0,21.213l59.542,59.542c1.65,1.65 0.538,2.468 -0.089,2.741c-12.676,5.516 -24.176,-4.852 -42.163,13.136c-15.409,15.409 -13.495,38.478 1.914,53.887s38.478,17.324 53.887,1.914c18.033,-18.034 7.657,-29.639 13.221,-42.306c0.253,-0.577 0.66,-1.943 1.809,-0.794l60.389,60.389c5.834,5.833 15.379,5.833 21.213,0l148.509,-148.51c5.834,-5.834 5.834,-15.379 0,-21.213l-59.976,-59.977c-1.65,-1.65 -2.957,0.343 -3.428,1.345c-6.035,12.853 4.809,24.522 -13.446,42.777z"/>
   </g>
  </g>
  <g id="svg_3"/>
  <g id="svg_4"/>
  <g id="svg_5"/>
  <g id="svg_6"/>
  <g id="svg_7"/>
  <g id="svg_8"/>
  <g id="svg_9"/>
  <g id="svg_10"/>
  <g id="svg_11"/>
  <g id="svg_12"/>
  <g id="svg_13"/>
  <g id="svg_14"/>
  <g id="svg_15"/>
  <g id="svg_16"/>
  <g id="svg_17"/>
 </g>
</svg>