<svg xmlns="http://www.w3.org/2000/svg" width="11450" height="7450"><g fill="#e29c59"><path d="M3970 7332c-19-19-33-26-42-21-7 5-31 9-54 9-31 0-46-6-65-26l-24-26-3-1011c-1-556 0-1018 3-1025 4-11 8-12 20-2 13 11 15 147 17 1021 3 885 5 1011 18 1019 25 16 66 11 93-10 23-18 24-22 12-48-10-21-13-201-13-857-1-456-1-1104-2-1439-1-597 2-648 30-620 6 6 11 507 12 1442l3 1432 1503 3 1504 2v180l-1492 3-1491 2-29-28zm1958-12h1022v-49c0-36-4-51-16-55-9-4-670-6-1468-6-1351 1-1452 2-1473 18-19 15-20 20-10 52l12 35 420 6c231 3 436 4 455 2 19-1 495-3 1058-3zm1558-31l-26-31V5775c0-816 4-1486 8-1489 5-3 19 2 31 10 17 12 19 19 11 30-9 10-11 195-10 696 2 376 3 1033 4 1461 1 856-4 797 62 797 29 0 33-4 39-37 8-41 8-2910 0-2923-7-11 22-33 35-25 7 4 10 470 10 1489v1483l-21 27c-17 22-28 26-69 26-42 0-52-4-74-31z"/><path d="M3786 5163c-9-10-7-871 3-878 5-2 15 3 22 12 15 17 13 61-4 81-7 9-7 16 1 24 18 18 17 742-1 757-8 6-17 8-21 4zm5393-1353c-1593-5-1519-3-1534-51-6-16-9-18-21-8-8 7-38 11-67 11-42-2-56-7-74-28l-23-25V2226c0-815 3-1485 6-1489 10-10 66 22 59 34-4 5-11 7-16 4-12-8-11-50-9 485 6 1746 6 2062 1 2115-7 67 3 290 14 324 5 17 14 21 45 21s40-4 46-22c13-39 6-2919-7-2934-9-11-7-15 5-20 9-3 23-4 31 0 13 5 15 175 15 1452 0 1374 1 1446 18 1438 9-5 688-9 1507-9h1490l5 80c3 44 8 85 13 92 4 6 4 13 0 15-5 2-681 1-1504-2zm1455-56c9-23 7-67-3-83-8-13-524-15-2863-11-72 0-102 25-86 70 5 17 18 31 31 33 12 2 673 5 1468 6 1311 1 1447 0 1453-15zM295 3776c-21-23-36-31-42-25s-37 9-69 7c-102-5-93 150-91-1547 2-1470 2-1476 22-1473 11 2 26 9 33 15 11 9 11 13-2 23-15 10-16 139-12 1455 2 794 6 1453 8 1464 4 15 14 21 45 23 39 3 42 1 52-31 9-26 11-416 8-1468-3-789-6-1443-8-1454-3-15 1-20 17-20h22l6 1005c3 553 6 1204 6 1448 0 434 0 442 19 432 23-12 2980-15 2992-3 4 5 9 46 10 93l2 85-1493 3-1493 2-32-34zm2979-22c10-26 7-59-7-78-13-18-73-19-1453-19-1564-1-1504-3-1504 52 0 14 7 33 17 43 15 17 74 18 1478 18 1325 0 1463-1 1469-16zm718 46c-12-5-25-17-28-25-5-12-20-15-66-14-51 2-63-1-84-22l-24-25V737c0-4 7-4 16 1 14 8 16 158 19 1473 2 805 6 1474 10 1487 6 17 15 22 41 22 18 0 44-4 57-9 21-8 29-5 56 25l31 34h2930v-49c0-28-5-53-11-57-18-11-2914-5-2944 6-56 21-53 94-59-1460-3-784-7-1434-8-1445-2-15 3-20 22-20h25l3 1444c2 1300 4 1443 18 1437 23-9 2966-8 2975 1 4 5 9 46 10 93l2 85-1484 2c-878 1-1493-2-1507-7zm7181-67c-17-25-18-77-21-847-2-450 0-826 3-834 5-14 7-14 21-1 12 13 15 119 15 790 0 426 4 796 7 824 7 46 9 50 40 56 44 9 58-7 67-78 7-63-3-2861-10-2873-8-12 25-34 35-24 4 5 11 668 15 1474 8 1694 17 1533-92 1538-58 3-63 1-80-25z"/><path d="M11157 2024c-11-12-8-139 4-151 8-8 8-13 0-17-13-9-15-202-2-210 5-3 15 2 22 11 21 24 18 338-3 359-8 8-17 11-21 8zm0-420c-10-11-8-302 2-308 5-3 15 1 22 10 19 24 17 270-3 290-8 8-17 11-21 8zm-1-345c-3-8-4-126-3-264 2-243 3-250 22-250s20 6 17 135c-1 74-2 148-3 165 0 16-5 35-11 42-7 9-7 17 1 26 8 10 7 17-1 25-9 9-9 15 0 24 17 17 15 83-3 98-12 10-16 10-19-1zM324 290c-57-23-71-99-28-149l26-31h1488c819 0 1491 4 1494 8 2 4 6 46 7 92l2 85-1484 2c-819 1-1494-2-1505-7zm2950-61c3-17 3-42 0-55l-6-24-1387-2c-1291-3-1543-1-1554 12-2 3-7 17-11 32-5 21-1 33 14 48 20 20 30 20 1479 20h1459l6-31zm4409 61c-30-12-43-41-43-93 0-33 6-49 23-65l23-22 1493 2 1493 3v180l-1484 2c-838 1-1492-2-1505-7zm2955-79c2-24-1-48-6-53-7-7-386-9-2553-8h-387l-4 38c-6 45-1 59 20 65 10 3 672 4 1472 3l1455-1 3-44z"/></g><path fill="#f78c2e" d="M4415 7340l-419-5-21-31c-20-29-23-31-46-18-34 19-73 17-100-5l-24-19-3-1008c-1-646-6-1012-12-1018-13-13-13-73 0-81 15-9 14-737-2-753-8-8-8-15 0-24 5-7 12-29 14-48l4-35h69c65 0 68 1 71 25 2 14 5 669 6 1457 2 787 6 1435 10 1439 5 4 16 0 26-9 16-15 146-16 1477-17 1659 0 1505-9 1505 86 0 35-5 56-12 59-19 7-2054 11-2543 5zm3094-59l-24-19-1-779c-1-428-2-1085-4-1460-1-375 2-688 6-695 5-7 9-17 9-23s28-10 64-10c56 0 64 2 67 20 7 44 6 2902-1 2930-4 17-12 36-18 43-14 18-72 15-98-7zM315 3764c-30-33-35-92-7-100 9-3 27-11 40-17 15-7 440-10 1435-9 776 0 1429 1 1450 1 33 1 39 5 54 36 13 27 14 43 7 72l-9 38-1473 3-1473 2-24-26zm3670-7c-27-27-37-32-56-25-13 5-41 8-63 6-34-3-41-7-49-33-12-41-19-2908-7-2941 9-21 15-24 64-24 47 0 57 3 67 22 9 16 13 387 15 1437 3 779 7 1426 9 1438 5 19 9 21 31 13 15-6 577-10 1486-11 1404-2 1462-1 1475 17 16 22 17 106 1 122-9 9-351 12-1476 12H4018l-33-33zm3721 24c-23-5-32-15-43-46-14-39-13-40 17-67 26-24 39-28 88-28 1947-3 2865-1 2874 8 19 19 22 90 4 117l-16 25-1448-1c-796-1-1460-4-1476-8zm3527-39c-21-2-38-11-45-25-10-17-14-207-16-836-2-549-6-819-13-827-7-9-7-19 2-35 8-15 10-48 6-97-4-48-2-81 6-93 8-13 8-43-1-116-8-69-8-122-2-178 11-88 5-197-13-233-8-18-8-28 1-42 15-25 16-82 0-98-8-8-8-15 0-25 9-10 9-16 0-25-8-8-8-15 0-24 6-8 10-27 10-44-1-17 2-36 6-42 3-6 3-13-2-16-8-4 3-208 12-233 4-10 22-13 67-11 53 3 63 6 65 23 2 11 5 673 6 1470 2 1093 0 1456-9 1476-13 29-31 36-80 31zM135 3731c-3-6-9-21-12-33-3-13-7-672-9-1466-5-1635-12-1492 77-1492 40 0 51 4 61 23 20 34 25 2875 5 2932-14 39-15 40-65 43-27 2-53-2-57-7zm7370-15c-19-28-34-242-24-341 5-54 4-857-2-2120-2-349 1-476 10-493 10-18 20-22 60-22 89 0 81-152 83 1492 2 1365 1 1457-15 1482-24 36-89 38-112 2zM337 273c-24-6-46-53-40-86 12-61-85-57 1509-57 1633 0 1490-7 1488 75-2 83 147 75-1483 74-801-1-1464-3-1474-6zm7366-3c-12-5-26-17-31-27-12-23-4-89 13-103 8-7 480-10 1475-10 1645-1 1500-8 1500 75 0 82 142 75-1486 74-810 0-1459-4-1471-9z"/><g fill="#912219"><path d="M7201 7419c-17-7-21-13-14-20 12-12 58-2 74 17 9 11 7 14-12 13-13 0-35-5-48-10zm129 6c0-2 11-12 25-21 30-19 58-8 30 13-18 12-55 18-55 8zm-205-34c-7-12 12-24 25-16 11 7 4 25-10 25-5 0-11-4-15-9zm-50-15c-14-10-15-15-6-21 8-4 19-1 28 8 20 19 1 30-22 13zm239-7c-3-6-17-8-31-4-14 3-31 1-39-6-11-9-18-9-29 1-14 12-20 7-16-14 1-5-6-17-15-27-9-11-13-19-9-19s1-8-8-18c-18-19-17-42 1-64 15-19 4-30-18-18-21 11-96 21-104 13-3-4 0-13 8-22s15-20 14-26c0-16 163-67 177-55 6 5 28 8 49 7 20-2 40 1 43 6s10 2 15-7c9-15 11-15 39 1 16 10 37 28 45 41 16 24 10 47-8 36-7-4-8-2-4 5 4 6 11 9 16 6 11-7 33 22 25 35-3 6-12 7-18 3-9-5-9-3-1 8 16 20 13 75-4 71-7-1-21 7-30 18s-27 21-39 23-26 6-29 10c-10 10-22 9-30-4z"/><path d="M6990 7357c-23-11-25-19-28-88-3-81 2-91 49-102 32-8 41 0 29 23-6 12-17 16-30 13-19-5-20-1-20 60 0 64 1 65 31 76 17 6 28 15 24 21-8 13-24 12-55-3zm480-3056c-6-12-6-22-1-26 6-3 15 3 21 14 6 12 6 22 1 26-6 3-15-3-21-14zm-3655-1c-4-6-10-8-15-5s-11 1-14-4c-4-5-2-12 3-15 5-4 12-2 16 4s10 8 15 5 11-1 14 4c4 5 2 12-3 15-5 4-12 2-16-4zm99-2c-6-9-4-10 26-11 11-1 19 3 18 8-4 12-37 14-44 3zm3712 3c-4-5-1-13 4-16 8-5 6-13-6-26-17-19-16-66 2-143 5-22 4-28-7-24-8 3-13 14-11 25 4 27-23 49-42 34-10-8-21-8-41-1-15 6-30 8-33 5-10-9-17-71-23-182-2-35-7-54-17-58-12-4-10-11 9-31 22-24 23-26 4-23-11 2-28 21-39 42-13 27-22 35-29 28-16-16 5-54 48-87 35-27 38-27 50-10 12 15 18 16 48 7 19-6 42-9 51-5 11 4 16 2 14-7-4-19 28-12 62 13 20 14 26 26 22 41-3 13-1 18 6 13 17-10 25 13 10 31-9 12-10 15 0 9 18-11 27 21 13 47-6 12-10 33-9 47 2 17-1 24-11 22-11-2-12 0-3 11 16 19-9 93-30 89-8-1-15 4-15 12s3 15 6 14c18-2 21 4 11 22-6 11-15 18-21 15-13-9-11 9 2 22 7 7 8 19 4 30-5 10-9 21-9 25-2 13-14 19-20 9zm-3681-50c-14-16-17-32-13-71 4-35 1-53-8-61-11-9-14-6-14 18 0 43-10 47-42 16-25-24-28-25-26-8 2 11-1 20-7 20-5 0-9-6-8-13 0-8-8-23-19-34-16-16-19-28-14-57 4-25 1-44-9-58-13-19-13-27-2-61 12-33 12-42 0-58-13-18-15-17-37 10-14 18-25 25-29 19-8-13 35-68 65-84 14-8 25-7 42 5 18 11 26 12 35 3 8-8 19-8 43 1 26 10 33 9 43-4 10-15 16-13 48 16 28 24 35 36 27 45-12 15-4 41 16 49 19 7 18 40-1 56-12 10-13 16-4 27 16 18-5 68-24 57-9-6-9-5 0 8 10 12 9 25-6 69-10 30-24 53-30 52-15-4-14 10 1 25 8 8 9 15 2 22s-16 4-29-9zm-170-1c-4-6-4-14-1-17s1-12-5-19-8-18-4-24c9-14 28-1 21 15-2 7 1 18 7 24 8 8 8 14 0 22s-13 8-18-1zm3680-1c-9-26-10-58-1-61 15-5 30 52 17 65-7 7-12 6-16-4zm-60-209c-4-6-3-16 3-22s12-6 17 2c4 6 3 16-3 22s-12 6-17-2zm-3814-161c-29-12-18-26 24-31 24-2 30 1 30 17 0 23-20 28-54 14zm3688 6c-3-2-20-7-38-10-19-3-43-11-55-18-11-6-25-10-29-9s-18-3-30-10c-12-6-35-13-52-15-37-4-54-20-31-29 9-4 29-1 44 6 15 8 31 13 35 12s18 3 30 10 25 11 29 10 20 3 35 10c15 6 35 10 44 9 19-2 44 25 31 33-5 3-11 4-13 1z"/><path d="M7315 3880c-6-10 14-27 39-31 11-2 20-12 22-21 2-15-6-18-39-19-52-1-80-5-137-18-25-6-51-13-58-14-16-4-11-21 7-24 7-1 18-6 24-12 8-8 5-11-8-12-35-2-40-4-43-14-2-5 10-15 27-20 70-24 46-45-44-37-56 4-64 2-74-16-13-24 3-37 52-46 15-2 31-8 37-11 6-4 18-1 27 7 11 8 14 9 10 1-12-20 31-37 51-21 11 9 14 10 8 0-11-19 41-34 100-30 65 6 110 37 136 96 19 41 19 47 5 57-12 8-13 15-6 22 15 15 7 59-10 55-11-2-12 0-3 11 16 19-12 59-35 50-12-5-15-2-10 10 3 9 2 19-4 22-21 13-69 23-74 15zm3623-4c-15-8-29-12-31-10-2 3-17-1-33-7-16-7-38-14-48-16-11-2-25-8-31-13-7-5-14-7-17-5-3 3-18 1-33-5-21-8-25-14-17-22 9-9 19-8 39 2 16 7 35 12 44 11s22 5 29 14c7 8 16 13 20 10 5-3 21 0 37 6 15 7 38 11 51 10 26-3 55 16 46 30-7 13-25 11-56-5zm-7273-5c-3-6 11-17 30-27 20-9 41-26 47-38l11-21-24 21c-26 23-33 23-144-3-83-19-98-29-91-59 4-13 1-26-4-29-15-9-2-25 19-25 10 0 24-7 31-15 11-13 8-15-19-16-17-1-37-2-43-3-7-1-13 4-13 11 0 22-14 25-26 4-9-14-17-17-25-10-15 12-59-4-67-26-8-20 40-42 57-25 13 13 29 13 21 1-3-6 4-15 15-21 18-10 24-7 21 12 0 4 6 5 14 2 8-4 13-10 10-15-3-4 4-13 15-19 16-9 25-8 38 2 11 9 14 10 8 0-9-16 32-32 82-32 44 0 107 29 108 50 2 37 5 42 19 36 9-3 19 3 25 14 10 19 6 25-15 20-5-1-2 7 8 18 22 24 21 38-4 73-11 16-15 28-9 27 29-7 19 26-19 63-41 39-64 48-76 30zm7360-1c-3-6 2-13 12-16s26-10 37-16c12-6 22-6 28 0 7 7 0 16-20 26-36 19-48 20-57 6zm-7507-5c-3-3-14-7-24-9-16-4-58-17-133-42-10-3-11-8-4-15 11-11 104 12 129 32 6 5 13 6 17 3 9-9 48 16 42 27-7 10-19 12-27 4zm7591-40c-1-5-1-13-1-16s-22-2-50 1c-31 4-75 1-112-7-34-7-68-15-76-17-9-2-14-11-12-22s5-23 5-29c1-5-8-9-21-8-13 2-25-4-28-12-7-16 13-48 25-41 4 3 13 1 20-4 18-11 3-33-18-25-9 4-35 10-58 14-37 7-45 5-64-15l-22-23 29-11c21-8 34-9 47-1 13 9 16 8 15-1-2-9 8-12 30-10 19 1 31-2 30-9-4-15 39-31 48-18 3 6 11 3 18-7 25-33 181-26 160 8-5 7-2 9 8 5 28-10 78 63 59 87-12 16-18 95-7 93 19-4 17 30-3 54-11 13-21 20-22 14zm-7807-27c-18-18-16-162 3-178 17-14 17-18 15 82-1 45 3 79 10 83 11 7 5 25-9 25-4 0-12-5-19-12zm3669-2c-14-17-11-171 4-171 6 0 11 34 13 75s7 79 12 85c10 12 4 25-10 25-4 0-13-6-19-14zm3689-6c-13-25-9-166 5-163 6 2 11 26 13 55s8 58 13 64c7 8 6 14-1 19-8 5-8 11-1 19 11 13 5 26-10 26-5 0-13-9-19-20zM100 745c-7-8-9-23-5-32 6-17 7-17 19-1 15 20 157 31 149 12-6-16 14-27 22-14 4 6-1 20-11 31-14 15-31 19-89 19-52 0-76-4-85-15zm3694 3c-4-7-8-24-9-38s-5-31-9-38-4-17-1-22c9-15 27-1 21 16-3 7-1 16 5 19 5 4 8 14 7 23-3 14 9 18 70 22 40 3 77 1 81-3 10-10 25 9 17 22-9 14-173 14-182-1zm3691 3c-3-6 0-14 9-17 24-9 151 0 149 11-4 14-149 19-158 6zm3681-4c-11-8-16-19-12-26 5-8 12-9 20-2 6 6 45 11 86 13s75 7 75 13c0 16-147 18-169 2zm151-29c-12-9-17-30-18-71-2-51-4-58-20-54-20 6-69-34-69-56 0-8-11-19-25-25s-25-17-26-24c-1-16-7-57-14-84-2-11 4-38 15-59 23-45 23-45 11-45-16 0-69 49-67 62 0 7-3 13-9 13-5 0-9-6-9-12 1-9-3-10-18-2-14 8-23 8-31 0-7-7 0-15 24-25 20-9 41-27 48-43l13-28-29 28c-16 15-33 24-37 20-3-4-26-6-50-4-29 1-47-3-55-13-21-26-67-44-84-34-10 5-18 4-22-2-3-6 1-13 10-16 15-6 15-8 0-24-15-17-15-19 1-28 22-12 10-32-19-31-35 1-101-12-113-22-6-5-19-7-28-3-12 5-16 20-16 69 0 61 1 62 31 71 40 12 37 30-4 26-52-6-58-17-55-101 3-70 5-76 30-91 23-12 31-13 48-2 24 14 33 16 25 3-3-6 4-15 15-21 18-10 24-7 21 12 0 4 6 5 14 2s13-11 12-17c-2-13 93-48 107-39 14 8 127 8 133-1 2-4 13-2 24 3 11 6 17 16 13 21-3 6 1 18 9 27s15 24 16 32c3 46 17 105 24 103 15-6 15-2 7 28-8 26-7 29 5 19 8-7 41-14 73-17 82-8 143 20 172 77 21 40 21 78 0 65-11-7-2 23 12 42 12 15 0 36-15 26-8-5-8-2 0 9 17 20-7 94-29 90-10-1-18 12-25 42-7 32-7 44 1 43 12-2 10 53-3 66-4 4-15 1-24-5zm-3692-11c-15-11-17-22-12-58 3-25 2-51-3-59-18-30-92-15-87 18 1 9-2 18-8 19-5 2-10-6-10-16s-6-26-14-35c-11-13-12-22-4-35 9-14 8-22-1-32-23-24-34-72-22-91 8-13 8-23-2-38-11-18-10-25 7-49 14-19 17-31 10-38-8-8-7-13 0-17 14-9 33 2 26 15-3 5 1 6 9 3 9-3 14-11 13-17-3-16 62-21 99-7 28 11 28 12 10 26-11 8-16 15-10 15 32 4 40 3 51-4 8-6 17 2 27 22 9 17 15 34 15 38-1 4 1 15 5 25 11 25 3 73-12 70-9-1-10 2-2 15 14 23-31 160-51 155-10-3-10 0 0 12 15 18 5 40-12 29-7-4-6 1 2 11 19 23 1 41-24 23z"/><path d="M244 697c-4-10-2-48 4-85s8-70 3-75c-4-4-8 6-9 24-1 42-14 54-42 39-12-6-28-9-35-6-34 13-63-73-66-197-1-43 3-63 16-77 14-16 15-20 4-20-8 0-20 5-27 12-9 9-15 9-24 0s-1-16 33-31c63-28 152-24 198 8 40 29 68 86 51 107-7 7-10 36-8 66 2 42 0 52-11 50s-12 0-3 11 9 23-2 53c-7 21-17 38-22 37-17-3-26 27-13 43 9 11 9 18 1 26-7 7-12 8-12 3s-6 0-14 11c-14 18-15 18-22 1zm3696-6c-5-11-10-36-10-55 0-37-8-44-27-25-18 18-92-63-97-107-3-20-10-42-15-47-19-19-13-96 10-128s15-37-19-13c-28 19-44 56-46 104 0 19-5 35-11 35-8 0-10-56-4-115 6-47 62-74 165-78 50-2 100 15 93 33-2 6-7 9-11 8-4-2-5 4-2 11 3 8 12 12 19 10 7-3 19 4 25 16 6 11 15 18 20 15 15-9 22 15 9 31-11 13-10 18 4 25 13 8 16 18 12 41-7 38-14 50-25 43s-20 31-9 42c12 12-15 89-30 85-17-3-26 27-12 41 16 16 14 25-9 37-15 8-21 6-30-9zm7205-1c-4-6-3-16 3-22s12-6 17 2c4 6 3 16-3 22s-12 6-17-2zM85 680c-4-6-3-16 3-22s12-6 17 2c4 6 3 16-3 22s-12 6-17-2zm7360-20c-4-6-3-16 3-22s12-6 17 2c4 6 3 16-3 22s-12 6-17-2zm-3630-20c-4-6-3-16 3-22s12-6 17 2c4 6 3 16-3 22s-12 6-17-2zm-64-48c-13-25 2-38 19-16 9 10 10 18 3 25-8 8-14 5-22-9zm3664-28c-8-21-13-45-10-53 7-19 19-5 34 38 17 51-3 64-24 15zm3694 9c-6-15-12-37-13-48-1-12-6-26-10-33s-4-17-1-22c8-13 26-3 24 13-1 7 2 23 8 37 20 49 24 68 13 75-5 3-15-6-21-22zm-7379-48c-7-19-7-32-1-38 7-7 14-1 21 18s7 32 1 38c-7 7-14 1-21-18zM35 520c-4-6-4-14-1-17s1-12-5-19c-15-18-4-31 23-29 22 2 29 19 8 21-21 3-22 4-10 19 9 11 10 19 3 26-8 8-13 7-18-1zm-9-138c-9-15 12-54 25-47 12 8 11 18-4 40-10 12-16 14-21 7zm3512-26c-15-8-29-12-31-9-3 2-16-1-29-8-12-7-34-14-47-15-13-2-29-8-34-13-17-17 18-24 45-10 13 7 27 12 31 11s18 3 30 10 28 11 34 10c19-4 54 18 48 29-8 12-15 11-47-5zm138 5c-9-15 23-36 35-24 8 8 5 14-9 22-12 6-23 7-26 2zm3720 1c-4-6 6-25 22-43s31-28 35-23c3 5-7 25-22 43-17 21-31 30-35 23zm3505-3c-18-7-21-13-14-20 13-13 69 2 66 17-3 13-24 14-52 3zm-76-29c-3-6-10-8-15-5-15 10-54-15-42-27 7-7 18-6 33 3 13 7 29 13 34 14 14 0 19 19 7 23-6 2-13-2-17-8z"/><path d="M3686 311c-4-6-11-9-15-7-10 6-146-21-171-34-11-6-18-15-14-21 3-5 0-17-7-26-11-13-10-18 8-33 12-9 21-27 20-38-1-19-3-19-17-7-14 13-100 13-121-1-4-2-11 1-15 7-5 9-11 7-21-6-11-16-13-10-13 51s3 70 21 79c28 13 25 31-4 27-41-7-47-21-47-103 0-74 2-80 24-91 27-12 61-4 51 12-3 6 1 7 9 4 9-3 14-10 11-15-7-10 22-26 58-33 15-2 31-8 37-11 6-4 18-1 27 7 11 8 14 9 10 1-9-15 29-37 45-27s111 12 123 3c15-11 77 30 68 44-13 21-12 42 3 64 7 12 14 34 14 48 0 28-28 90-37 81-3-3-13 4-23 16-12 15-19 18-24 9z"/><path d="M3755 140c-4-6-3-16 3-22s12-6 17 2c4 6 3 16-3 22s-12 6-17-2z"/></g><g fill="#711711"><path d="M7215 7418c-22-6-47-13-55-16s-23-6-32-7c-10-1-25-8-33-15-9-7-18-10-21-8-3 3-26-2-52-12l-47-18v-154l35-12c19-6 62-18 95-25 33-8 64-18 70-23 5-4 16-8 25-8 10 0 32-7 49-16 41-21 87-14 139 21 50 33 65 65 66 141 1 83-24 131-79 150-45 16-101 16-160 2zm180-94c24-18 28-27 27-65-1-23-7-48-12-53-6-6-10-6-10-2 0 5-7 3-15-4-11-9-12-16-4-26 8-9 5-15-9-23-11-6-22-8-25-4-3 3-19 1-35-5-23-8-35-7-50 4-11 7-23 10-27 6-3-4-5-2-3 3 3 11-11 15-30 7-7-2-18 0-23 7-5 6-6 9-3 6 4-3 13 0 21 7 11 9 10 14-6 32-29 30-29 29 2 69 15 20 24 37 20 38-13 2 121 26 138 24 8 0 28-10 44-21zM3785 4280c-8-15-12-30-9-33s2-12-2-19c-5-7-9-17-9-23-1-5-4-17-7-25-35-85-51-144-52-196-1-51 3-66 26-96 60-79 164-101 234-49 21 15 47 38 58 49 23 26 27 104 8 151-7 18-11 36-8 39s2 10-3 16c-16 21-39 105-44 162-4 42-23 52-103 51-71 0-76-1-89-27zm115-184c6-5 15-4 23 3 12 9 16 8 21-5s9-14 20-5c12 10 17 2 30-43 20-67 20-84 1-131-13-30-19-35-30-25-12 10-16 9-21-3-3-8-19-21-35-27-24-10-35-10-64 4-20 10-35 23-33 29 1 7-3 29-10 51-9 31-8 42 4 61 9 15 12 33 8 50-5 22-4 26 12 23 14-2 25 8 39 37 18 37 20 38 23 15 2-14 8-29 12-34z"/><path d="M3955 3970c-4-6-3-16 3-22s12-6 17 2c4 6 3 16-3 22s-12 6-17-2zm3515 320c-6-10-10-28-10-39s-14-55-30-98c-17-43-31-91-32-106s-5-30-10-33c-12-8-10-61 4-87 31-56 61-96 69-91 5 3 19-2 31-10 39-28 102-20 163 19 34 21 55 42 55 53 0 10 3 21 6 25 11 11 13 91 2 104-5 7-7 17-4 22 4 5 2 12-2 15-5 3-15 27-22 53-6 27-15 55-18 63-6 16-11 42-16 77-5 44-23 53-102 52-61-1-76-4-84-19zm116-175c-5-18-2-27 9-31 8-4 15-13 15-20 0-8 6-17 14-20s13-19 12-39c0-19 3-35 9-35 12 0 15 81 3 97-6 7-6 19 0 29 15 27 46-89 38-144-8-57-15-67-32-45-13 17-15 16-18-8 0-7-13-21-28-32-26-19-27-19-77-1-51 18-60 27-41 39 8 5 8 11 1 19-6 7-9 15-6 18s6 36 6 74c1 51 4 63 10 46 6-15 13-21 21-15 7 4 20 6 30 5 23-4 29 10 19 46-9 31-6 42 12 42 5 0 6-11 3-25zm-3962-236c-3-6-20-9-38-6-18 2-40-2-54-11-12-8-25-12-29-8-3 3-11 2-17-3-17-13-117-44-123-37-3 3-18-1-34-10-28-14-29-17-29-93 0-85 12-108 49-96 11 3 33-1 49-9s32-13 35-10 16-2 29-10c14-9 27-13 31-10 4 4 17 0 30-9 15-9 29-12 37-7s22 4 33-2c47-25 163 15 173 60 4 15 10 32 14 37 12 18 4 109-13 142-17 32-51 60-100 81-34 15-34 15-43 1zm99-111c33-31 36-77 7-103-11-10-20-14-20-9s-7 0-15-10c-10-14-12-23-4-32 15-19-18-33-71-30-38 2-150 32-150 40 0 5 79-2 89-8 17-11 50 12 46 31-2 10-4 20-4 23-1 2-6-1-12-7-9-9-18-3-38 20-14 17-25 36-23 43 1 7-2 15-8 19-23 14-9 27 25 22 19-3 37-1 41 4 21 35 98 33 137-3zm3552 112c-4-6-14-10-23-9-10 1-30-3-45-9-15-7-31-11-35-10s-18-4-30-11c-13-7-26-10-29-7s-15-1-27-9c-11-8-33-15-49-15-58 0-67-13-67-100 0-70 2-81 21-90 11-7 27-9 35-6s27 0 42-6 32-12 37-13c24-3 72-17 92-27 12-6 31-8 42-5 12 3 23 1 26-3 9-14 79-8 121 10 32 15 43 27 54 60 35 107-1 222-75 236-19 3-38 10-41 15-7 12-41 11-49-1zm135-105c20-24 8-113-18-131-12-8-19-21-16-29 4-10-4-18-22-26-43-16-84-15-128 4-21 9-44 17-50 17-6 1-22 8-36 16-16 10-18 13-5 8 45-15 128-25 138-15 11 11-8 41-27 41-6 1-24 11-40 25-24 19-27 26-18 38 7 8 10 21 7 29-12 32 189 54 215 23zm3575 104c-4-6-19-9-33-8-15 1-40-3-55-10-16-6-34-11-42-11s-17-5-20-10c-4-6-14-10-23-8-10 1-27-4-40-11s-29-10-36-8c-7 3-26-1-44-9l-32-13v-80c0-68 3-82 18-90 10-6 28-8 39-5 12 3 32 0 44-7 13-7 28-12 32-11s17-4 29-12c11-8 27-12 35-9 7 3 21-1 31-9 18-16 77-17 77-3 0 5-25 19-55 32l-55 23 62-5c34-2 65 0 68 5 7 11-52 43-65 35-5-3-14 4-20 15s-21 20-33 20h-22l22 18c16 12 21 24 17 39-5 17-1 23 17 27 127 29 181 26 198-10 12-27 16-112 4-101-3 4-17-3-30-15-17-16-20-24-12-34 9-11 5-16-16-24-15-6-35-9-44-8-9 2-16-4-16-12 0-12 11-14 50-12 56 3 73 17 106 90 24 55 24 78-1 130-11 22-20 46-20 51 0 6-17 17-37 26-21 9-46 21-55 26-23 12-35 11-43-2zM187 752c-74-3-78-4-89-30-5-15-11-34-12-42s-5-22-9-30c-17-40-37-107-37-126 0-11-3-24-7-28-14-14-14-96 0-138 16-45 53-76 94-77 12-1 24-5 28-10 3-6 16-4 32 4 14 8 39 11 53 8 38-7 74 19 100 71 21 45 27 120 9 131-6 4-8 13-5 20 2 7 1 16-4 21-12 12-44 130-54 197-4 28-17 32-99 29zm32-214c-7-13-2-22 22-39 29-20 30-25 26-73-9-100-25-124-82-120-23 2-45 11-52 21-11 15-20 101-13 128 2 6 5 21 7 35 9 55 14 72 19 67 3-3 20 3 37 14 30 18 32 18 38 1 4-9 3-25-2-34zm85-22c19-57 22-150 5-144-6 2-12 31-14 63-1 33-7 79-12 103-13 56-1 42 21-22zm3574 236c-74-3-89-14-95-65-2-17-8-36-13-41-6-6-10-22-10-37s-4-31-10-34c-5-3-10-15-10-25s-5-31-11-47c-12-29-16-120-5-130 24-24-18-31-48-8-26 19-71 19-101-1-13-8-29-14-37-13-7 2-24-3-36-10-13-7-26-10-29-7s-15-1-27-9c-11-8-33-15-48-15-16 0-36-4-46-9-9-5-25-12-34-15-15-4-18-18-18-79 0-50 4-78 13-86 8-6 17-8 20-5s16-1 28-9c11-9 27-13 34-10 8 2 24-1 37-8s29-12 36-10c8 1 22-5 31-13 15-13 20-14 36-2 22 16 12 36-18 36-12 0-29 4-37 9-17 11 54 7 83-4 23-10 54 2 40 16-8 8-30 14-75 18-3 1-4 9-1 20 3 12-3 24-17 34l-21 14 23 6c18 5 20 9 10 19-20 20-14 26 41 37 109 22 122 21 156-9 38-35 39-57 5-125-24-50-28-53-70-60-24-3-53-4-63 0-10 3-23-1-30-9-10-12-8-17 8-25 26-14 87-14 114 0 46 24 96 70 91 83-3 8-1 17 5 21 16 9 13 95-3 128-17 32-16 32 33 9 37-18 39-18 62-1l24 18-28 10c-16 6-31 11-34 11-27 0-45 104-23 126 5 5 12 24 14 42 3 31 13 48 49 84 17 18 47 14 50-8 1-5 4-8 7-7s6-10 7-24c1-33 19-51 34-36 8 8 7 19-4 41-8 17-11 35-7 42 11 18 51-94 50-144 0-58-2-76-11-76-3 0-9 10-12 22-6 21-7 21-26 4-14-13-19-26-15-42 5-19 1-26-22-35-27-10-28-11-11-24 35-25 109 13 121 63 19 79 23 103 15 108-5 3-9 18-9 33 0 16-7 42-15 57-8 16-18 45-21 64s-8 42-12 50c-3 8-7 26-8 39-5 43-32 56-106 53zm3592-7c-5-5-13-32-18-60-15-73-41-167-51-179-15-18-23-76-17-111 7-36 82-129 97-119 6 3 17 0 25-7 12-10 19-9 36 9l22 21-25 9c-13 5-27 9-31 8-4 0-15 10-24 23-13 18-14 25-4 31 14 9 21 78 9 86-5 2-5 12-2 22 8 21 43 68 43 57 0-4 7-2 15 5 25 21 65 21 65 1 0-9 6-26 14-36 13-18 14-18 27 6l13 24 12-40c17-53 16-106 0-128-13-16-14-16-19 5-5 18-9 20-19 10-6-6-13-22-15-34s-10-29-18-38c-19-21-10-30 26-30 28 0 66 39 84 85 8 23 10 98 3 111-14 22-67 226-62 238 9 25-24 38-102 39-41 1-79-2-84-8zm3689 10s-3-18-5-40c-3-21-9-44-13-50-5-5-13-33-19-60-6-28-16-64-23-80-6-17-13-37-14-45s-5-25-9-38c-5-14-3-36 4-53 17-39 6-48-31-26-35 19-80 22-96 6-6-6-27-12-48-14-20-2-42-8-48-13-11-9-54-23-87-28-8-2-35-9-60-17l-45-14-3-77c-3-75-3-76 25-86 15-6 36-15 46-20 10-6 22-8 27-5 6 3 19 0 31-8 11-8 29-13 40-10 10 3 26 0 34-7s22-9 31-6c13 5 14 9 4 21-7 8-20 15-29 15-14 0-14 2-1 10 8 5 15 19 15 31 0 22 11 32 50 44l20 6-20 15c-11 8-30 13-43 11-22-4-22-3-6 14 9 11 26 19 36 19s21 7 24 15c4 8 10 13 14 10 5-3 11-1 15 5 8 13 47 13 82-2 15-6 33-12 38-12 6-1 11-22 13-48 2-37-1-51-17-67-12-12-23-21-26-21h-10c-3 0-1-9 5-20 9-17 7-22-17-31-15-6-50-9-77-7-56 3-74-16-31-32 59-22 123-7 182 44 28 24 51 117 36 149-6 12-15 34-21 48l-10 26 34-17c26-14 43-16 71-10 20 5 43 5 51 1 39-22 113 36 132 104 13 45 5 82-51 262-11 35-18 67-15 72 12 18-22 29-101 33-46 2-83 3-84 3zm215-308c0-29-3-65-7-81l-8-29-15 22c-18 25-34 20-27-8 7-26-41-50-85-44-56 9-75 58-58 147 3 16 10 34 16 40 9 8 11 7 8-4-1-9 2-15 7-15 6 0 9 3 8 7-4 12 25 74 41 88 14 10 16 9 16-7 0-11 3-23 8-27 4-4 7-12 7-17s5-9 10-8c6 1 9 5 7 11-1 5 2 7 7 3 6-3 8-18 5-33-7-35 21-66 32-37 4 10 2 26-4 36-7 10-9 25-6 34 4 8-1 26-9 39-9 13-13 27-10 30 14 13 55-96 57-147z"/><path d="M7616 481c-7-11 28-43 37-34 12 11 8 22-12 33-11 5-22 6-25 1z"/></g></svg>