<svg xmlns="http://www.w3.org/2000/svg" width="500" height="370"><path fill="#f7ea92" d="M267.37 0h96.32c2.93 1.69 6.19 3.31 7.95 6.35 1.6 2.56 1.64 5.68 1.71 8.59-.08 29.35.01 58.7-.04 88.05.16 6.67-5.62 12.67-12.31 12.62-30.34.03-60.69.04-91.03.01-6.94-.19-12.53-6.72-12.07-13.59-.02-29.66-.02-59.32.03-88.98-.29-6.06 4.36-10.62 9.44-13.05z"/><path fill="#efff0f" d="M8.13 1.31c3.87-.83 7.88-.21 11.8-.3 27.68-.1 55.36.08 83.04-.08 7.04-.82 12.37 6.58 12.13 13.09.06 28.66.01 57.32.02 85.98.32 5.28-2.27 10.78-7.09 13.22-3.65 2.15-8.01 1.64-12.05 1.7-23.35-.32-46.68.43-70-.08-6.75-.08-14.4 1.69-20.28-2.56-2.98-2.15-5.23-5.55-4.76-9.37.06-30.6.05-61.2 0-91.8-.09-4.4 3.42-8.05 7.19-9.8zm129.03.97c3.89-.8 7.9-.28 11.84-.29 28.66-.04 57.33-.02 85.98.04 5.58 1.4 9.3 7.37 9.11 13 .08 28.66 0 57.33.04 85.99.23 4.73-1.72 9.62-5.69 12.36-4.17 2.98-9.57 2.88-14.46 2.6-23.98.21-47.97-.27-71.95-.01-5.99.13-12.9.99-17.85-3.13-3.93-2.98-5.31-8.11-5.42-12.83 0-27.66-.01-55.32 0-82.98-.04-5.92 2.63-12.36 8.4-14.75zm258.12-1c4.52-.93 9.16-.49 13.73-.47 25-.1 50 .03 74.99-.06 4.96-.08 10.05 2.17 12.81 6.4 2.18 2.79 2.25 6.46 2.28 9.84.04 28 .07 56.01.03 84.01.29 5.03-1.98 10.21-6.38 12.84-4.69 3.04-10.49 1.77-15.73 2.02-14.68.53-29.37-.37-44.05.29-11.98-.36-23.95-.12-35.92-.31-6.12-.12-11.77-5.07-12.64-11.13-.34-2.9-.19-5.82-.21-8.73.02-27-.01-53.99.01-80.99-.36-6.51 4.72-12.59 11.08-13.71z"/><path fill="#feffb8" d="M8.02 18.04c.32-6.34 7.33-9.91 13.11-9.08 24.52.03 49.03.01 73.55 0 4.08.24 8.24 2.43 10.52 5.86 2.54 6.05 1.74 12.76 1.82 19.16-.02 21.68-.09 43.36.05 65.04.49 4.31-3.56 8.76-8.02 8.03-26.32-.06-52.65-.05-78.98-.04-3.23-.02-6.67.44-9.59-1.28-.97-1.82-2.58-3.49-2.49-5.68.02-27.34-.05-54.68.03-82.01zm129-.13c.44-6.28 7.34-9.76 13.1-8.95 24.51.01 49.03.04 73.54-.01 4.11.24 8.25 2.47 10.57 5.9 2.59 6.39 1.68 13.44 1.78 20.16-.02 21.67-.05 43.35.03 65.03-.04 3.54-3.34 7.3-7.07 6.99-28.33-.01-56.67-.06-85-.02-4.23.35-7.36-4.14-7.03-8.03.13-27.02-.03-54.05.08-81.07z"/><path fill="#1aa79d" d="M45.32 11.14c2.58-.14 5.12-.63 7.69-.92 5.11.3 10.1 1.63 15.21 1.9-.52 1.32-1 2.66-1.48 4-3.06-1.94-6.44-.47-9.65.11-.08.57-.25 1.7-.33 2.27-1.28 2.6-2.14 7.11 1.16 8.53 1.33.75 2.7 1.45 4.14 1.96 1.89.36 3.37-1.07 4.91-1.87.02 3.96.04 7.92.05 11.89 4.93 0 9.85-.01 14.78-.02 2.18-3.18.28-6.59.05-9.99 1.31 0 2.62.01 3.92.01.31.42.91 1.27 1.22 1.69-.99.85-1.97 1.7-2.95 2.55-.01 1.15-.03 2.3-.04 3.45 1.42.12 2.18.88 2.29 2.29 2.84.01 5.67.01 8.51.01.71 1.13 1.4 2.27 2.12 3.4.04 1.62.07 3.24.11 4.85-1.44-.07-2.22-.83-2.35-2.27-1.88.26-5.07-.97-5 1.97-.63.02-1.88.06-2.51.09-1.1 2.52-1.33 5.25-1.04 7.96-2 .01-4.01 0-6.01-.01-2.63 2.74-2.41 6.74-.99 10.01-6.52 0-13.05-.01-19.58.01 1.61-2.34 1.56-5.21 1.47-7.92-2.58-1.06-5.19-2.44-8.08-2.16-1.62.15-3.79-.4-4.7 1.37-.96 1.91-1.25 4.06-1.21 6.17.33.62.99 1.86 1.31 2.47-6.45.13-12.9.03-19.36.06.01 1.22.03 2.43.04 3.65 2.8.91 3.28 4.43 5.69 5.98.2.4.61 1.19.81 1.58-1.92-.47-4.11-1.88-6.01-.68-3.16 1.32-3.78 5.17-3.49 8.21.98.87 1.97 1.77 2.2 3.13 2.51 1.22 5.24.9 7.74-.15.03 1.87.03 3.75.01 5.62-3.52-1.81-6.75-4.12-10.25-5.97-2.78-1.19-4.1-4.08-6.42-5.84-1.02-.74-1.19-2.08-1.67-3.15-2.3-2.97-3.7-6.47-5.38-9.79-.37-4.95-2.8-9.57-2.32-14.6.36-4.72 1.51-9.34 2.28-14 2.04.02 4.07.01 6.11.04-.76.77-1.52 1.54-2.29 2.3-.01 1.79-.01 3.59-.02 5.38.77.7 1.53 1.4 2.28 2.11 3.1 1.09 6.31.57 9.45.01.65-.72 1.32-1.43 1.99-2.13 1.2-2.45 1.61-5.38-.95-7.14l-.1-.57c3.75.02 7.49.03 11.24-.04.06-4.15.22-8.31-.06-12.46-.31-.62-.93-1.86-1.24-2.49-2.25.28-6.17-1.3-6.03 2.3-2.63-1.58-1.29-5.05-1.59-7.56 1.91.05 2.87 1.59 3.37 3.24 1.47.01 2.95.02 4.42.02.21-3.26 2.46-5.79 3.69-8.7.53-1.13 1.91-1.44 2.84-2.16zm132.7-.4c6.42-1.38 12.78 1.18 19.18 1.37-.52 1.32-1 2.66-1.44 4.01-3.08-1.92-6.47-.5-9.69.12-.07.57-.22 1.71-.29 2.27-1.22 2.19-1.48 4.87-.62 7.23 1.7 1.48 3.81 2.44 5.91 3.25 1.88.36 3.38-1.04 4.94-1.83-.03 3.94 0 7.88-.02 11.82 4.88.02 9.76.06 14.64-.02.31-.61.94-1.84 1.26-2.46 0-.98-.01-1.96-.01-2.94-1.06-1.36-.86-3.08-.98-4.69 1.87.07 3.82.11 5.36 1.34-1.06 1.03-2.12 2.06-3.19 3.08-.03 1.14-.05 2.27-.07 3.41 1.4.13 2.17.9 2.32 2.3 2.81.01 5.63-.15 8.43.13 2.21 2.03 2.43 5.1 2.31 7.9-.5-.01-1.5-.04-2-.06-.03-.49-.09-1.48-.12-1.97-1.56 0-3.12.01-4.68.02.08 2.01-1.58 2.08-3.13 2.16-1.11 2.47-1.27 5.16-1 7.82-2.02.01-4.03.01-6.03 0-2.57 2.76-2.44 6.74-.95 9.99-6.59.01-13.17.04-19.76-.02.38-.6 1.14-1.81 1.52-2.41.02-1.81.08-3.62.13-5.43-3.6-1.93-7.69-2.77-11.74-1.96-2.63 2.5-2.81 6.72-1.12 9.82-6.4.03-12.8-.01-19.2.02.02 1.21.04 2.41.06 3.62 2.77.96 3.27 4.43 5.65 6.01.2.38.62 1.16.83 1.54-1.94-.31-4.03-1.92-5.94-.68-3.23 1.27-3.87 5.16-3.55 8.21.98.89 2.01 1.79 2.13 3.2 2.54 1.15 5.29.86 7.82-.15.02 1.86.01 3.72-.03 5.58-3.72-1.97-7.18-4.38-10.9-6.36-2.4-1.25-3.58-3.89-5.74-5.45-1.05-.7-1.21-2.04-1.67-3.12-2.27-2.99-3.7-6.48-5.38-9.81-.4-4.94-2.8-9.57-2.33-14.61.38-4.71 1.49-9.34 2.29-14 2.03.01 4.06.02 6.1.06l-2.31 2.34c.01 1.81-.01 3.61-.03 5.42 3 3.43 7.75 2.9 11.74 2.01.66-.71 1.32-1.4 2-2.09.41-1.41 1.06-2.81 1.12-4.3-.64-1.25-1.51-2.36-2.37-3.45 3.8.05 7.61.02 11.41.01-.15-5 1.07-10.29-1.06-15.01-2.19.39-6.26-1.36-6.12 2.17-.43-.27-1.3-.81-1.73-1.08 0-2.12.04-4.24.08-6.37 1.84.18 2.88 1.6 3.31 3.28 1.47.02 2.93.02 4.39.02.25-2.39 1.31-4.58 2.78-6.47.34-3.75 4.39-4.62 7.49-4.79z"/><path fill="#feffb8" d="M392.02 18.96c.38-6.3 7.37-9.83 13.13-9 24.59.04 49.17-.02 73.75.02 4.04.28 8.03 2.52 10.34 5.86 1.45 3.52 1.81 7.39 1.81 11.17-.09 24.65-.08 49.3-.01 73.94.02 3.97-3.91 7.8-8 7.1-28-.08-56-.03-84-.05-3.9.42-6.92-3.41-7.07-6.99.06-27.35-.03-54.7.05-82.05z"/><path fill="#1aa79d" d="M429.29 12.15c2.58-.14 5.12-.63 7.68-.92 5.12.28 10.13 1.59 15.24 1.9-.51 1.33-1.01 2.66-1.48 3.99-3.05-1.95-6.42-.46-9.63.11-.09.57-.28 1.72-.38 2.29-1.06 2.23-1.47 4.83-.57 7.19 1.69 1.49 3.75 2.52 5.89 3.25 1.87.43 3.39-1.05 4.95-1.82-.01 3.95.03 7.9.01 11.86 4.87-.01 9.75.03 14.63-.04.33-.61.99-1.84 1.32-2.45 0-1.39.11-2.85-.78-4.04-.09-1.16-.16-2.31-.23-3.47 1.28 0 2.56 0 3.85.01.29.42.89 1.27 1.18 1.69-.99.86-1.96 1.72-2.94 2.57-.02 1.14-.03 2.28-.03 3.42 1.41.12 2.18.88 2.3 2.3 2.83.01 5.67.01 8.51.01.7 1.13 1.39 2.26 2.1 3.38.04 1.54.08 3.08.13 4.61-.44 0-1.31.01-1.74.01.12-2.99-3.07-1.78-4.97-2.02.01 1.99-1.63 2.1-3.18 2.19-1.13 2.47-1.31 5.16-1.01 7.83-2 .01-4.01 0-6-.02-2.62 2.75-2.49 6.74-.98 10.01-6.54.02-13.08 0-19.62.01 1.63-2.3 1.56-5.18 1.46-7.87-1.49-.65-2.98-1.29-4.45-1.98-2.42-.15-4.87-.37-7.27.03-2.62 2.51-2.76 6.72-1.12 9.83-6.4-.01-12.8-.01-19.19-.01.02 1.21.04 2.42.07 3.63 2.75.97 3.29 4.43 5.67 6.01.19.41.57 1.22.76 1.63-2.03-.7-4.46-2.03-6.43-.49-2.85 1.49-3.2 5.05-3.05 7.91.99.88 2.03 1.78 2.22 3.19 2.51 1.18 5.26.88 7.77-.12.01 1.86.01 3.72-.02 5.58-3.52-1.82-6.75-4.13-10.25-5.97-2.77-1.2-4.09-4.08-6.41-5.85-1.03-.73-1.22-2.06-1.69-3.13-2.25-3-3.68-6.47-5.36-9.8-.29-4.63-2.58-8.91-2.33-13.6.14-5.07 1.5-10 2.29-15 2.02.01 4.05 0 6.08.03-.75.78-1.5 1.56-2.26 2.33-.01 1.78-.02 3.57-.03 5.36.76.68 1.53 1.37 2.29 2.07 1.3.3 2.61.61 3.91.93 1.81-.38 3.64-.68 5.48-.91.72-.7 1.43-1.4 2.16-2.09.11-.56.32-1.67.42-2.22 1.77-1.96-.79-3.9-1.76-5.52 3.8.06 7.6.04 11.41-.01-.2-5 1.06-10.29-1.11-15.01-2.27.38-6.35-1.29-6.17 2.35-2.7-1.55-1.33-5.04-1.63-7.57 1.9.1 2.87 1.59 3.38 3.24 1.45.02 2.91.03 4.38.04.29-3.24 2.43-5.81 3.71-8.68.51-1.14 1.9-1.46 2.82-2.18z"/><path fill="#f47833" d="M34.39 14.07c1.4-.32 1.91.22 1.53 1.62-1.38.29-1.89-.25-1.53-1.62z"/><path fill="#f37129" d="M69.81 22c.97-2.86 1.87-5.81 3.75-8.23.41.53 1.23 1.59 1.63 2.12.66.06 1.96.16 2.61.21 2.21 3.11 5.05 5.7 7.37 8.76-2.44.2-5.28.38-6.95 2.43-.69 2.23 0 4.52.8 6.61-2.46.08-4.92.37-7.26 1.13-.81-3.01-.32-6.16-.78-9.21.09-1.91-2.1-2.08-3.35-2.84-1.03.54-2.08 1.03-3.15 1.47-1.17.3-2.34.55-3.52.75.02-2.53-.73-6.36 2.94-6.41.34 1.06.69 2.13 1.03 3.19 1.63.01 3.25.02 4.88.02z"/><path fill="#f47833" d="M163.35 14.09c1.38-.39 1.91.12 1.6 1.55-1.36.36-1.89-.15-1.6-1.55z"/><path fill="#f37129" d="M202.18 13.86c.71.62 1.42 1.25 2.11 1.89 4.63.8 6.65 6.09 9.89 9.11-2.42.22-5.3.33-6.92 2.43-.85 2.2.02 4.53.76 6.62-2.47.04-4.93.36-7.28 1.13-.84-3.32-.19-6.79-.93-10.11-.64-1.14-2.14-1.33-3.19-1.97-1.03.57-2.08 1.08-3.16 1.54-1.17.2-2.33.44-3.48.73.29-2.15-1.01-5.71 1.99-6.35 1.46.18 1.42 2.1 2.15 3.07 1.55.03 3.1.05 4.66.06.92-2.8 2.04-5.53 3.4-8.15z"/><path fill="#f47833" d="M418.38 15.08c1.4-.35 1.91.19 1.55 1.6-1.37.31-1.89-.23-1.55-1.6z"/><path fill="#f37129" d="M453.82 22.98c.94-2.86 1.89-5.76 3.72-8.2.42.49 1.25 1.49 1.67 1.99 4.69.66 6.71 6.06 9.96 9.07-2.44.24-5.31.38-6.96 2.46-.71 2.22.02 4.52.81 6.61-2.47.06-4.93.37-7.29 1.11-.8-3.33-.25-6.79-.86-10.14-.88-.93-2.14-1.34-3.23-1.93-1.03.56-2.08 1.07-3.15 1.54-1.19.21-2.36.45-3.53.71.31-2.04-.78-4.8 1.25-6.17 2.03-.69 2.15 1.66 2.82 2.94 1.59.01 3.19.02 4.79.01z"/><path fill="#ad1380" d="M319.08 21.27c3.82-1.34 7.77.92 11.22 2.44 4.61 2.12 8.24 5.71 11.66 9.36-5.59-.92-11.29-.31-16.84.61.28-2.6 1.23-5.75-1.19-7.65-1.63-1.51-4.75-2.16-4.85-4.76z"/><path fill="#f37129" d="M24.36 22.05c.4-.02 1.19-.06 1.59-.08.05 1.26.09 2.51.14 3.77 1.55 1.2 2.96 2.76 4.92 3.27 1.76.28 3.35-.71 4.98-1.19 0 2.06.01 4.12.03 6.17-4.44-.17-9-.17-13.05 1.89.02 1.25.05 2.5.07 3.76.81 1.23 1.53 2.61 3.2 2.76-.71 2.74-4.37 3.09-6.4 1.55.66-1.47 1.32-2.93 1.99-4.4.08-1.16.16-2.31.25-3.47-2.19-1.36-4.6-2.27-7.22-2.21 2.3-3.94 4.85-7.88 8.76-10.4.19-.35.55-1.06.74-1.42zM143.84 33.9c2.68-4.86 6.3-9.3 11.03-12.24.09 1.37.17 2.73.23 4.11 1.55 1.18 2.96 2.71 4.9 3.24 1.76.26 3.38-.66 5-1.19-.02 2.06 0 4.13-.01 6.19-4.47-.22-9.06-.15-13.15 1.92.18 2.43.18 6.21 3.41 6.47-.75 2.7-4.31 3.11-6.37 1.56 1.15-2.49 2.31-5.08 2.22-7.89-2.21-1.33-4.63-2.29-7.26-2.17zm255 1.01c2.67-4.87 6.29-9.35 11.07-12.23.06 1.35.11 2.69.16 4.03 1.34 1.09 2.61 2.31 4.18 3.08 1.95.81 3.89-.4 5.73-.97 0 2.06.01 4.12.03 6.18-4.31.06-9.29-.6-12.93 2.15-.96 3.09 1.27 5.35 3.19 7.36-.71.38-2.13 1.13-2.83 1.51-1.22-.24-2.42-.57-3.57-1.01 1.14-2.51 2.29-5.09 2.27-7.9-2.23-1.35-4.64-2.37-7.3-2.2z"/><path fill="#fff" d="M323.93 26.03c2.42 1.9 1.47 5.05 1.19 7.65-2.72.92-5.31 2.18-7.8 3.61-6.56 3.62-11.1 10.22-18.36 12.7-11.31 4.53-24.13-2.29-30.34-11.97 2.37.45 3.44 2.83 5.17 4.24 5.26 4.67 11.89 8.89 19.22 8.25 4.02-.16 7.53-2.4 10.94-4.32 4.3-3.02 7.79-7.14 12.47-9.66 2.36-1.32 5.05-2.1 7.19-3.82.78-2.13.28-4.47.32-6.68z"/><path fill="#f3732c" d="M90.38 30.68c1.77.84 2.62 2.74 3.64 4.31-1.66.01-3.32.03-4.97.05.43-1.46.87-2.91 1.33-4.36zm128.99.01c1.78.82 2.63 2.74 3.64 4.31-1.65.01-3.31.02-4.96.03.42-1.45.86-2.9 1.32-4.34zm254.98 1.02c1.84.74 2.62 2.73 3.66 4.28-1.67.01-3.33.03-4.98.05.45-1.44.87-2.88 1.32-4.33z"/><path fill="#4ec1e5" d="M325.12 33.68c5.55-.92 11.25-1.53 16.84-.61 4.58 1.11 8.96 3.13 12.76 5.92 5.17 4.97 9.01 11.31 10.77 18.29-4.76-3.57-6.37-10.53-12.63-12.26-.43-.21-1.29-.62-1.72-.83-7.99-4.61-17.87-5.48-26.83-3.83-6.46 1.16-12.05 4.83-16.98 8.99-6.55 5.31-15.46 4.98-23.33 3.82-4.15-.43-8.16-1.63-11.98-3.25-.49-5.85-5.79-9.12-8.46-13.83l.16-.91c.64-.03 1.92-.08 2.57-.11l.39-.01c.61 1.01 1.26 2 1.94 2.96 6.21 9.68 19.03 16.5 30.34 11.97 7.26-2.48 11.8-9.08 18.36-12.7 2.49-1.43 5.08-2.69 7.8-3.61z"/><path fill="#fff" d="M262.21 34.31c1.38.09 2.96-.34 4.08.76-.65.03-1.93.08-2.57.11l-.16.91c2.67 4.71 7.97 7.98 8.46 13.83-.46 1.47-.99 2.92-1.5 4.37-.39.15-1.17.44-1.56.59 1.11-2.43 2.41-5.18 1.07-7.8-1.38-5.05-7.77-7.23-7.82-12.77z"/><path fill="#1cb7ca" d="M324.31 40.36c8.96-1.65 18.84-.78 26.83 3.83-3.6-.51-6.9.83-8.87 3.92-4.96-.37-10.04-.95-14.92.35-11.28 2.95-22.54 6.85-34.35 6.74-7.5-.14-15.04.21-22.48-.91.51-1.45 1.04-2.9 1.5-4.37 3.82 1.62 7.83 2.82 11.98 3.25 7.87 1.16 16.78 1.49 23.33-3.82 4.93-4.16 10.52-7.83 16.98-8.99z"/><path fill="#fff" d="M354.72 38.99c4.21 1.16 5.99 5.65 8.18 9 2.43 5.01 5.2 10.09 6.03 15.66-2.94.89-6.14 2.03-9.12.67 2.78.36 9.55-.11 6.98-4.37-.43-.89-.86-1.79-1.3-2.67-1.76-6.98-5.6-13.32-10.77-18.29z"/><path fill="#ad1481" d="M342.27 48.11c1.97-3.09 5.27-4.43 8.87-3.92.43.21 1.29.62 1.72.83 1.3 1.37 2.75 2.72 3.51 4.49.12 1.67-.44 3.3-.68 4.93-2.6 1.27-5.59 2.54-8.41 1.14-3.16-1.13-4.35-4.48-5.01-7.47z"/><path fill="#1cb7ca" d="M352.86 45.02c6.26 1.73 7.87 8.69 12.63 12.26.44.88.87 1.78 1.3 2.67l-1.59.58c-3.17-2.04-6.01-4.59-9.51-6.09.24-1.63.8-3.26.68-4.93-.76-1.77-2.21-3.12-3.51-4.49z"/><path fill="#fff" d="M349.41 55.05c-3.56-.75-5.14-5.73-2.37-8.19 2.46-1.29 5.4.14 7.37 1.75 2.12 1.58 1.37 6.23-1.68 5.79.1-2.07-.65-3.94-2.91-4.12-.14 1.59-.28 3.18-.41 4.77z"/><path fill="#1b9aa8" d="M327.35 48.46c4.88-1.3 9.96-.72 14.92-.35.66 2.99 1.85 6.34 5.01 7.47 2.82 1.4 5.81.13 8.41-1.14 3.5 1.5 6.34 4.05 9.51 6.09-4.1 2.68-8.85 1.1-13.34.74 2.17 3.36 5.43 5.76 8.93 7.58-3.37 1.57-7.13 1.21-10.74 1.24-9.01.15-17.84-2.45-25.99-6.14-6.02-2.35-11.74-5.71-18.21-6.7-11.53-1.88-23.49-1.8-34.83 1.21-2.76.15-5.48-.7-8.17-1.17 1.76-1.38 4.1-1.55 6.11-2.41.39-.15 1.17-.44 1.56-.59 7.44 1.12 14.98.77 22.48.91 11.81.11 23.07-3.79 34.35-6.74z"/><path fill="#f3742e" d="M89.73 52.59c1.03-3.67 5.03-2.11 7.56-1.28-.7 2.11-3.17 2.66-4.84 3.82-.29-1.49-1.2-2.34-2.72-2.54zm129.05.12c.74-3.79 5.04-2.32 7.5-1.37-.73 2.1-3.2 2.66-4.89 3.82-.15-1.59-1.02-2.41-2.61-2.45z"/><path fill="#040506" d="M349.82 50.28c2.26.18 3.01 2.05 2.91 4.12-1.12.17-2.23.4-3.32.65.13-1.59.27-3.18.41-4.77z"/><path fill="#f3742e" d="M473.74 53.62c.99-3.76 5-2.17 7.54-1.3-.69 2.11-3.16 2.68-4.85 3.81-.26-1.51-1.16-2.34-2.69-2.51z"/><path fill="#1f919e" d="M271.02 58.46c11.34-3.01 23.3-3.09 34.83-1.21 6.47.99 12.19 4.35 18.21 6.7 8.15 3.69 16.98 6.29 25.99 6.14 3.61-.03 7.37.33 10.74-1.24 1.22.44 2.47.83 3.71 1.23-6.62 6.75-16.42 8.54-25.5 8.74 1.58-1.57 4.95-3.34 3.26-5.93-2.9-3.13-7.97-4.05-11.87-2.42-2.26 1.67-3.39 4.42-5.15 6.55-4.15-1.69-8.26-3.56-11.87-6.25-6.39-4.39-12.45-10.24-20.49-11.2-6.58-.87-12.29 3.22-17.35 6.84-3.5 2.37-6.42 5.91-10.75 6.77 1.92-5.01 8.8-8.54 6.24-14.72z"/><path fill="#1aa79d" d="M94.82 58.92c.29-1.21 1.05-1.97 2.27-2.27-.02 2.52-.08 5.03-.13 7.54-2.65.05-5.3.03-7.95.02.82-1.61 1.08-3.39 1.12-5.18 1.56-.03 3.13-.06 4.69-.11zm128.96.01c.31-1.23 1.08-1.97 2.31-2.24-.02 2.5-.08 4.99-.12 7.48-2.66.07-5.32.06-7.97.04.83-1.61 1.08-3.39 1.15-5.19 1.54-.02 3.09-.05 4.63-.09z"/><path fill="#11b5be" d="M346.55 57.64c1.34-1.69 3.65-.75 5.43-.61.03 1.88-.39 3.91-2.3 4.73-2.12.19-4.21-2.07-3.13-4.12z"/><path fill="#1aa79d" d="M478.83 59.94c.27-1.23 1.02-1.98 2.25-2.27-.01 2.51-.08 5.01-.12 7.52-2.66.05-5.31.04-7.96.02.85-1.6 1.07-3.39 1.12-5.18 1.56-.02 3.13-.05 4.71-.09z"/><path fill="#f37129" d="M50.95 58.98c1.79.01 3.59.04 5.39.08-1.5 2.62-2.82 5.45-2.32 8.55.6.32 1.8.95 2.4 1.27 3.52.16 7.05.15 10.58.11.01 2.41 0 4.81-.02 7.22-3.22-1.34-6.65-1.23-9.88.02-.09.58-.27 1.76-.35 2.34-.62 1.08-1.71 1.98-1.79 3.3.67 1.69 1.51 3.32 2.34 4.94 3.2.93 6.61 1.83 9.7.04-.01 2.37-.01 4.75 0 7.13-1.25.02-2.5.04-3.74.06-.14.45-.43 1.35-.58 1.79-2.96.03-5.81.73-8.7 1.24-2.91-.37-5.76-1.08-8.69-1.28-.15-.44-.43-1.32-.58-1.76-1.57-.03-3.14-.05-4.72-.07.03-3.2.02-6.41-.06-9.61-.78-.81-1.56-1.63-2.32-2.45-2.37.27-4.47 1.46-6.61 2.43.34-1.95-1.31-5.78 1.93-5.55.04.56.1 1.67.14 2.23 1.84 0 3.68-.02 5.53-.03.32-.62.95-1.85 1.27-2.47-.01-.49-.02-1.49-.03-1.99-.46-1.09-.84-2.2-1.14-3.34-1.21-1.23-2.61-2.39-3.05-4.13 4.47-.18 8.95.13 13.41-.12 1.6-.11 2.73-1.43 4.07-2.15.02-1.73-.46-3.29-2.02-4.23-.06-1.19-.11-2.38-.16-3.57zm129 0c1.79.01 3.59.04 5.38.08-1.51 2.67-2.79 5.54-2.36 8.69 4.05 2.08 8.68 1.03 13.04 1.25 0 2.4-.02 4.8-.03 7.21-3.23-1.41-6.66-1.19-9.91.03-.08.58-.24 1.73-.32 2.31-.65 1.06-1.62 2-1.8 3.28.65 1.71 1.53 3.32 2.33 4.96 3.19.92 6.64 1.89 9.72.06-.01 2.38 0 4.76 0 7.13-1.24.01-2.48.03-3.71.04-.12 3.21-3.96 1.43-5.98 2.41-3.97 1.55-7.94-.71-11.98-.54-.05-2.98-3.42-1.59-5.33-1.94.01-3.24-.01-6.48 0-9.72-1.22-.76-2.21-2.65-3.86-2.19-1.75.68-3.43 1.5-5.13 2.27-.05-1.85-.05-3.7-.03-5.55 1.44.04 2.21.78 2.32 2.23 1.82.01 3.64.01 5.46.02 1.64-2.45 1.04-5.28-.03-7.82-1.22-1.22-2.69-2.36-3.01-4.16 4.76-.19 9.55.27 14.3-.22 2.99-.8 4.29-4.7 1.09-6.23-.06-1.2-.12-2.4-.16-3.6z"/><path fill="#f1e936" d="M365.2 60.53l1.59-.58c2.57 4.26-4.2 4.73-6.98 4.37-.9-.13-2.7-.39-3.61-.51 2.27 3.38 9.21.3 9.31 5.38-.25.23-.76.67-1.01.89-1.24-.4-2.49-.79-3.71-1.23-3.5-1.82-6.76-4.22-8.93-7.58 4.49.36 9.24 1.94 13.34-.74z"/><path fill="#f37129" d="M434.96 59.99c1.79 0 3.59.03 5.39.06-1.5 2.62-2.82 5.45-2.36 8.55.61.32 1.82.96 2.42 1.28 3.53.15 7.06.15 10.6.12l-.03 7.2c-3.17-1.29-6.55-1.27-9.72.02-.38 2.04-1.63 3.73-2.3 5.66.63 1.7 1.54 3.28 2.33 4.92 3.19.94 6.6 1.83 9.71.07-.01 2.37-.01 4.74-.01 7.11-1.24.02-2.47.04-3.7.06-.1 3.18-3.9 1.4-5.89 2.37-4.09 1.62-8.17-.76-12.33-.53-.04-.47-.1-1.4-.14-1.87-1.64-.01-3.28-.01-4.91-.01-.01-3.26-.05-6.51-.02-9.76-1.3-1.18-2.6-2.48-4.51-2.27-1.34 1.05-2.89 1.76-4.49 2.31-.04-1.84-.05-3.69-.02-5.53 1.43.05 2.2.8 2.31 2.25 1.83-.01 3.66 0 5.5.01 1.56-2.47 1.04-5.25-.05-7.79-1.26-1.21-2.59-2.44-3.1-4.17 4.49-.19 8.98.13 13.47-.13 1.56-.13 2.68-1.4 4-2.12.06-1.75-.44-3.29-2-4.23-.06-1.2-.11-2.39-.15-3.58z"/><path fill="#fff" d="M365.51 69.19c.37-.28 1.1-.86 1.47-1.15-2.3 6.45-9.86 9.03-15.95 10.62-4.49 1.65-9.56.05-13.83 2.38-4.76 2.23-10.16 1.77-15.26 1.6-1.34.13-2.37-.68-3.28-1.53 6.83 1.03 14.15 1.26 20.34-2.29 9.08-.2 18.88-1.99 25.5-8.74.25-.22.76-.66 1.01-.89z"/><path fill="#ad1380" d="M330.39 70.47c3.9-1.63 8.97-.71 11.87 2.42 1.69 2.59-1.68 4.36-3.26 5.93-6.19 3.55-13.51 3.32-20.34 2.29.65-3.1 4.61-2.28 6.58-4.09 1.76-2.13 2.89-4.88 5.15-6.55z"/><path fill="#1aa79d" d="M92.75 72.04c1.82-.03 3.65-.04 5.48-.03-.61 1.86-1.34 3.68-2.13 5.47-1.44 5.53 5.6 6.01 9.39 5.55-1.73 4.45-4.65 8.32-8.31 11.38-.07.56-.23 1.68-.3 2.24-2.04.57-2.42 3.13-4.47 3.67-3.73 1.54-6.83 4.14-10.36 6.05-.08-2.79.09-5.59-.13-8.38-.6-1.86-2.13-3.25-3.32-4.75 1.12-.45 2.26-.86 3.43-1.21-.04-3.04-.04-6.08-.01-9.11 4.1.04 8.61.32 12.3-1.67 2.03-2.89-1.06-6.21-1.57-9.21zm128.99 0c1.82-.02 3.65-.04 5.48-.03-.59 1.87-1.3 3.7-2.14 5.47-1.41 5.57 5.65 6 9.44 5.54-1.74 4.48-4.73 8.26-8.31 11.42-.08.54-.25 1.62-.33 2.16-1.98.66-2.43 3.12-4.43 3.69-3.74 1.56-6.84 4.17-10.4 6.06-.08-2.78.08-5.57-.13-8.34-.57-1.9-2.16-3.29-3.36-4.8 1.28-.11 2.39-.58 3.31-1.44.28-2.94.12-5.91.13-8.86 4.03.29 8.04-.19 11.98-1.05 2.5-3.12-.54-6.61-1.24-9.82zm254.99 1c1.83-.02 3.66-.03 5.5-.02-.82 2.84-2.78 5.64-2.06 8.7 2.3 2.79 6.13 2.32 9.34 2.3-1.74 4.48-4.71 8.3-8.33 11.42-.07.55-.22 1.63-.29 2.17-2.03.62-2.43 3.16-4.48 3.7-3.72 1.57-6.84 4.13-10.36 6.06-.13-4.5 1.04-10.05-3.52-12.86 1.16-.52 2.32-1.06 3.48-1.6-.02-2.99-.01-5.98-.01-8.97 4.1.02 8.56.27 12.27-1.64 2.14-2.86-1.01-6.26-1.54-9.26zM71.87 91.83c2.23.05 4.4.6 6.52 1.28-1.37 2.45-3.24 4.61-6.36 4.03-.05-1.77-.11-3.54-.16-5.31zm129.01-.01c2.21.06 4.36.59 6.45 1.32-.92 1.22-1.8 2.47-2.61 3.76-1.24.04-2.47.09-3.7.15-.05-1.74-.1-3.49-.14-5.23zm255.02.98c2.22.09 4.36.63 6.46 1.33-1.36 2.49-3.24 4.62-6.37 3.97-.03-1.77-.07-3.53-.09-5.3z"/><path fill="#efff0f" d="M389.11 131.08c2.55-2.64 6.19-4.04 9.85-3.92 28.67-.04 57.34.03 86.02-.02 3.06-.03 6.32.26 8.9 2.11 3.22 2 5.16 5.45 6.12 9.04v92.46c-1.08 3.54-2.89 7.1-6.19 9.03-3.16 2.21-7.15 2.11-10.82 2.09-28.36-.12-56.73.07-85.08-.09-7.62-.08-13.25-7.55-13.26-14.78 0-27.32.02-54.65-.01-81.97.08-4.89.77-10.37 4.47-13.95zM1 138.18c1.96-6.31 8.64-9.64 14.94-9.35 27.36-.11 54.71.03 82.07-.07 4.82-.06 10.17.86 13.47 4.71 2.48 2.5 3.58 6 3.48 9.47.08 29.02 0 58.04 0 87.06.28 4.69-2.17 9.33-6.16 11.79-5.05 3.07-11.2 2.25-16.82 2.18-12.68.01-25.36-.17-38.03.01-13.67-.3-27.34.53-41-.18-5.4-.08-10.27-3.92-11.95-8.99v-96.63z"/><path fill="#f7ea92" d="M137.26 128.28c1.86-.57 3.83-.58 5.77-.61 29.33.11 58.66-.05 87.99.06 6.63-.39 12.82 5.52 12.73 12.15-.01 30.37-.04 60.74-.01 91.1.1 4.55-2.88 8.91-6.95 10.82-3.35 1.7-7.22 1.27-10.84 1.31-28.3-.07-56.61.03-84.92-.05-4.37.04-8.79-2.29-10.81-6.24-1.99-3.23-1.66-7.14-1.65-10.77.1-28.69.01-57.39.05-86.08-.25-5.34 3.68-10.12 8.64-11.69zm129.09.09c1.81-.62 3.76-.63 5.66-.67 29.66.02 59.32-.06 88.99.03 6.51-.03 12.36 5.71 12.29 12.26.11 28.34-.03 56.68.05 85.02-.06 4.14.58 8.78-2.03 12.34-2.37 3.8-6.83 5.94-11.27 5.75-29.01-.07-58.03.01-87.05-.03-3.33-.06-6.99-.12-9.75-2.27-3.67-2.68-5.48-7.27-5.35-11.73.02-29.37-.04-58.74.02-88.1-.39-5.53 3.42-10.62 8.44-12.6z"/><path fill="#b7b7b7" d="M267.5 137.34c.61-1.97 2.1-4.49 4.5-4.23 3.41-.16 6.17 2.2 8.68 4.19 7.05 6.28 13.47 13.26 19.32 20.66 2.05 2.55 4.09 5.13 6.54 7.34-.54.6-1.07 1.21-1.58 1.83-7.79-6.92-14.82-14.66-22.91-21.22-.04 1.6-1.59 3.67-.05 4.96 6.35 5.48 13.19 10.41 19.34 16.14-3.55-.68-6.16-3.33-9.17-5.11-4.11-2.5-8.18-5.06-12.32-7.5-1.58 3.21-3.18 6.42-5.14 9.42-1.1-.28-2.61.05-3.21-1.18-4.26-7.63-4.94-16.76-4-25.3zm84.07.19c1.67-1.2 4.33-3.41 6.1-1.19 7.15 6.86 13.18 17.32 9.7 27.41-4.92-1.59-9.1-4.83-12.35-8.81-.68-1.21-2-.07-2.82.26-7.01 4.04-13.88 8.35-21.08 12.03-.87-1.06-1.77-2.09-2.73-3.07 7.71-8.88 13.98-19.14 23.18-26.63z"/><path fill="#feffb8" d="M393.03 144.94c.39-6.31 7.36-9.8 13.12-8.98 24.57.02 49.14.01 73.7.01 4.06.28 8.15 2.52 10.4 5.94 2.46 6.02 1.7 12.67 1.77 19.03-.05 20.01-.03 40.02-.01 60.04-.15 3.68 1.05 8.11-2.13 10.88-1.55 2.27-4.44 2.28-6.89 2.21-28.02-.16-56.05.03-84.07-.12-3.01-.01-4.36-2.88-5.89-4.96-.07-28.02-.07-56.03 0-84.05z"/><path fill="#1aa79d" d="M430.32 137.14c2.57-.14 5.11-.64 7.67-.91 5.11.28 10.1 1.61 15.21 1.89-.5 1.33-.99 2.66-1.46 4-3.05-1.94-6.42-.46-9.63.1-.1.57-.28 1.7-.37 2.27-1.07 2.25-1.49 4.87-.59 7.25 1.75 1.44 3.79 2.53 5.95 3.24 1.86.38 3.33-1.08 4.86-1.87.03 3.96.06 7.92.04 11.89 4.93.01 9.86-.01 14.8 0 .76-2.04 2.13-4.57.35-6.51-.09-1.2-.16-2.39-.21-3.59 1.84.04 3.76.1 5.31 1.26-1.07 1.05-2.12 2.1-3.18 3.16-.03 1.21-.07 2.42-.1 3.63.5.02 1.49.06 1.99.07.02.49.06 1.47.07 1.97 2.93.01 5.87.03 8.8-.02 1.81 2.32 2.52 5.1 2.23 8.02-.5 0-1.49.01-1.99.02-.03-.5-.09-1.51-.12-2.01-1.57 0-3.14 0-4.69.01.09 2.02-1.58 2.08-3.12 2.17-1.12 2.46-1.28 5.15-1.01 7.81-1.96 0-3.93-.09-5.87.14-3.02 2.4-2.47 6.71-1.11 9.86-6.53.02-13.06.01-19.59.01 1.53-2.37 1.6-5.16 1.48-7.89-3.61-1.9-7.69-2.76-11.73-1.91-2.68 2.45-2.79 6.7-1.15 9.8-6.38 0-12.77-.01-19.15 0-.01 1.2 0 2.41.01 3.61 2.78.96 3.24 4.47 5.69 6 .19.4.57 1.19.77 1.59-1.88-.46-4.01-1.83-5.88-.71-3.24 1.25-3.81 5.14-3.62 8.18.99.91 2.1 1.79 2.12 3.27 2.56 1.08 5.34.8 7.88-.19.01 1.86 0 3.73-.03 5.6-3.49-1.85-6.74-4.11-10.22-5.96-2.77-1.22-4.13-4.11-6.46-5.88-1.03-.73-1.17-2.06-1.64-3.13-2.3-2.96-3.69-6.47-5.37-9.79-.4-4.95-2.79-9.57-2.33-14.6.36-4.72 1.51-9.34 2.29-14 2.02.01 4.04 0 6.06.03-.75.78-1.5 1.56-2.25 2.32-.01 1.79-.01 3.58-.01 5.37.75.69 1.5 1.39 2.25 2.1 3.1 1.11 6.32.59 9.47.01l1.92-2.07c.31-1.2.78-2.33 1.4-3.4-.65-1.58-1.38-3.14-2.56-4.38 3.8.06 7.61.04 11.41-.02.1-4.16.19-8.32-.03-12.48-.3-.62-.92-1.86-1.23-2.48-2.27.31-6.23-1.3-6.07 2.34-2.64-1.63-1.28-5.1-1.56-7.65 1.85.19 2.89 1.63 3.37 3.3 1.5.01 3.01.02 4.52.03l.24-2.64c2.21-2.69 2.54-6.94 6.17-8.23z"/><path fill="#feffb8" d="M7.02 146.04c.31-6.36 7.33-9.91 13.13-9.08 24.57.04 49.16-.02 73.73.03 4.03.27 8.06 2.49 10.33 5.85 1.49 3.52 1.85 7.41 1.85 11.2-.15 25 0 50.01-.08 75.01-.71 3.04-3.54 6.32-6.97 5.98-28.38-.02-56.75-.04-85.12-.02-3.26.35-5.45-2.37-6.65-5.03-.52-2.63-.23-5.34-.25-8 .02-25.31-.05-50.63.03-75.94z"/><path fill="#1aa79d" d="M41.73 140.81c2.45-2.3 6.11-1.81 9.18-2.48 5.49-.19 10.84 1.57 16.31 1.79-.5 1.33-1 2.66-1.48 3.99-3.06-1.95-6.4-.42-9.62.09-.1.58-.29 1.75-.39 2.34-1.15 2.21-1.41 4.85-.59 7.23 1.78 1.42 3.85 2.47 5.99 3.23 1.86.33 3.32-1.08 4.84-1.89.03 3.96.05 7.92.02 11.87 4.94.04 9.87.01 14.81.03.73-2.07 2.14-4.57.34-6.53-.07-1.2-.13-2.4-.18-3.6 1.85.02 3.73.18 5.29 1.29-1.05 1.05-2.11 2.09-3.17 3.13-.04 1.13-.06 2.27-.09 3.41 1.44.09 2.2.86 2.27 2.29h8.54c.72 1.14 1.42 2.28 2.14 3.42.02 1.61.04 3.23.05 4.85-1.41-.1-2.19-.86-2.31-2.29-1.89.25-5.05-.97-5 1.97-.63.02-1.88.06-2.5.08-1.12 2.52-1.36 5.25-1.03 7.98-2.02-.01-4.04-.01-6.05-.03-2.56 2.78-2.42 6.75-.96 10.02-6.53.01-13.05-.02-19.58.02 1.53-2.37 1.61-5.15 1.45-7.87-1.5-.66-3-1.31-4.48-2.01-2.39-.15-4.81-.36-7.19.04-2.72 2.43-2.82 6.72-1.17 9.82-6.39.01-12.79-.02-19.18.01l.03 3.66c1.74.22 2.28 1.91 3.19 3.14.89 1.64 2.76 2.51 3.3 4.38-1.95-.31-4.05-1.96-5.97-.68-2.86 1.19-3.89 4.68-3.54 7.53.73 1.29 1.71 2.44 2.17 3.87 2.52 1.18 5.31.8 7.84-.13-.01 1.86-.03 3.73-.08 5.59-3.46-1.92-6.75-4.13-10.24-6.01-2.76-1.21-4.08-4.11-6.42-5.86-1.01-.73-1.17-2.05-1.64-3.11-2.26-2.98-3.72-6.44-5.35-9.77-.45-2.71-.9-5.42-1.64-8.07-1.99-6.8.62-13.79 1.58-20.56 2.03.01 4.05 0 6.07.03-.75.78-1.5 1.56-2.26 2.33-.01 1.78-.01 3.55-.03 5.33.77.71 1.54 1.42 2.3 2.15 3.09 1.1 6.29.57 9.42-.01.67-.71 1.33-1.41 1.99-2.11.44-1.44.88-2.86 1.31-4.3-.84-1.15-1.69-2.29-2.56-3.41 3.81.01 7.63.01 11.44-.04-.17-4.99 1.04-10.28-1.09-14.99-2.29.36-6.4-1.32-6.2 2.37-2.69-1.63-1.31-5.1-1.57-7.66 1.84.2 2.87 1.6 3.32 3.28 1.46.03 2.92.04 4.39.05.38-3.41 2.63-6.14 3.98-9.2z"/><path fill="#f47833" d="M419.37 140.09c1.38-.36 1.91.17 1.57 1.59-1.36.32-1.88-.21-1.57-1.59z"/><path fill="#f37129" d="M458.19 139.81c.71.69 1.42 1.39 2.13 2.09.65.04 1.93.12 2.57.16.48.84.96 1.68 1.45 2.53 2.69 1.29 3.67 4.33 5.79 6.28-2.4.22-5.24.34-6.87 2.38-.8 2.23-.03 4.56.76 6.67-2.49.04-4.97.32-7.33 1.13-.7-3.33-.22-6.76-.84-10.09-.7-1.11-2.17-1.36-3.22-2.02-1.44.51-2.6 1.67-4.15 1.88-.61.06-1.84.19-2.46.25-.02-1.73-.04-3.45-.06-5.16 2.1-1.88 3.66-.2 4.12 2.04 1.57.02 3.14.04 4.73.05.91-2.81 2.01-5.56 3.38-8.19z"/><path fill="#f47833" d="M33.37 142.08c1.4-.36 1.92.17 1.55 1.59-1.36.32-1.88-.21-1.55-1.59z"/><path fill="#f37129" d="M72.17 141.84c.72.67 1.43 1.35 2.15 2.03.62.06 1.85.17 2.47.22 2.21 3.12 5.07 5.67 7.35 8.76-2.43.22-5.28.39-6.94 2.45-.67 2.24.02 4.51.82 6.6-2.47.07-4.94.38-7.3 1.13-.68-2.98-.34-6.05-.71-9.05.16-1.97-2.07-2.24-3.35-3.02-1.02.55-2.06 1.05-3.12 1.51-1.2.2-2.39.46-3.57.77.02-2.56-.74-6.25 2.84-6.53.38 1.08.76 2.17 1.14 3.26 1.62.01 3.23.03 4.84.03.93-2.8 2.02-5.54 3.38-8.16z"/><path fill="#fff" d="M282.05 145.91c8.09 6.56 15.12 14.3 22.91 21.22-.5.6-.97 1.22-1.43 1.86l-2.19-1.98c-6.15-5.73-12.99-10.66-19.34-16.14-1.54-1.29.01-3.36.05-4.96zm50.14 18.91c5.86-6.23 11.87-12.34 18.05-18.25.98 1.2 2.56 3.27.98 4.64-5.89 5.11-12.23 9.8-19.03 13.61z"/><path fill="#f37129" d="M409.39 148.04c.39-.02 1.17-.04 1.56-.06.04 1.25.08 2.5.13 3.75 1.55 1.2 2.96 2.75 4.92 3.29 1.76.26 3.37-.69 5-1.2-.01 2.06 0 4.12.01 6.17-4.33.06-9.29-.57-12.95 2.16-.36 2.29.11 5.82 2.93 6.17 0 .32-.01.96-.01 1.28-.63.37-1.9 1.1-2.53 1.47-1.23-.3-2.45-.66-3.62-1.1.63-1.5 1.32-2.99 2.08-4.44 1.49-4.42-3.72-5.76-7.06-5.63 1.67-2.62 3.14-5.42 5.36-7.64 1.34-1.47 3.51-2.2 4.18-4.22zM13.88 161.89c2.62-4.9 6.28-9.3 11.01-12.22.08 1.35.15 2.71.2 4.08 1.54 1.19 2.95 2.71 4.87 3.26 1.78.28 3.39-.68 5.03-1.19 0 2.06.01 4.12.02 6.18-4.3.06-9.33-.63-12.91 2.17-1.02 3.13 1.35 5.32 3.18 7.4-.7.38-2.11 1.13-2.82 1.51-1.21-.3-2.41-.67-3.59-1.07 1.14-2.52 2.29-5.09 2.28-7.91-2.22-1.33-4.64-2.31-7.27-2.21z"/><path fill="#381f0b" d="M162.49 151.48c2.7-3.21 8.62-2.51 9.98 1.65-1.57.11-3.15.21-4.72.27-3.32 3.82-3.02 9.11-4.53 13.68-1.82 5.9-4.74 11.66-9.27 15.93-4.54 3.93-12.37 2.04-14.58-3.61 6.18-1.1 10.61-5.95 14.32-10.63 3.86-5.28 4.43-12.34 8.8-17.29zm37.12 3.24c1.11-3.28 5.02-5.5 8.25-3.62 4.42 2.54 5.61 7.96 7.53 12.31 2.26 6.65 7.45 11.78 13.07 15.76-2.2 2.05-4.9 4.4-8.16 3.4-5.21-1.75-7.54-7.42-8.45-12.4-1-4.85.37-10.68-3.45-14.54-2.31-2.55-5.88-1.39-8.79-.91z"/><path fill="#965e38" d="M167.75 153.4c1.57-.06 3.15-.16 4.72-.27l.34-.02c-.02.88-.05 2.65-.06 3.53 8.55-3.44 19.23-3.74 27.12 1.48 1.63 2.01 2.53 4.45 3.34 6.88-2.52-1.21-5.04-2.42-7.43-3.86.02-.54.07-1.62.09-2.16-1.31.29-2.62.57-3.93.84-4.28-1.03-8.71-.66-12.84.78-2.01-.48-4.07-.57-6.12-.67.28.58.84 1.74 1.11 2.33-1.71 1.07-3.45 2.08-5.24 3.02 1.09-3.43 2.87-6.68 3.42-10.25-.73-1.68-3.1-1-4.52-1.63z"/><path fill="#934912" d="M163.22 167.08c1.51-4.57 1.21-9.86 4.53-13.68 1.42.63 3.79-.05 4.52 1.63-.55 3.57-2.33 6.82-3.42 10.25-1.06 2.63-2.25 5.23-3.64 7.7-.91 1.33-1.82 2.67-2.54 4.11-1.69 3.39-4.1 6.37-7.13 8.64-4.29 4.04-10.66 3.37-16.01 2.58-2.98-.95-7.66-2.42-7.11-6.37 1.66-2.1 4.57-1.96 6.95-2.54 2.21 5.65 10.04 7.54 14.58 3.61 4.53-4.27 7.45-10.03 9.27-15.93zm36.39-12.36c2.91-.48 6.48-1.64 8.79.91 3.82 3.86 2.45 9.69 3.45 14.54.91 4.98 3.24 10.65 8.45 12.4 3.26 1 5.96-1.35 8.16-3.4 3.64 1.38 7.75 1.39 11.2 3.24 1.71 2.63-1.38 4.91-3.57 5.78-4.65 1.78-10.17 2.84-14.89.77-5.85-1.99-10-6.82-12.85-12.11-1.87-3.88-3.72-7.78-5.14-11.85-.81-2.43-1.71-4.87-3.34-6.88-.06-.85-.19-2.55-.26-3.4z"/><path fill="#f3732c" d="M475.34 156.72c1.84.74 2.63 2.73 3.66 4.29-1.65.01-3.29.01-4.93.02.41-1.44.83-2.88 1.27-4.31zm-385.99 1.99c1.86.72 2.62 2.75 3.64 4.31-1.65 0-3.29-.01-4.93.01.42-1.45.85-2.89 1.29-4.32z"/><path fill="#936b50" d="M179.1 160.6c4.13-1.44 8.56-1.81 12.84-.78-.2.66-.59 1.99-.78 2.66 1.52-.49 3.07-.91 4.62-1.34 2.39 1.44 4.91 2.65 7.43 3.86 1.42 4.07 3.27 7.97 5.14 11.85-2.78-.8-5.54-1.68-8.31-2.55.28-2.35 1.5-5.06-.11-7.18-.98-1.66-3.01-1.94-4.63-2.65-.38 1.25-.76 2.5-1.15 3.75-.76-1.02-1.53-2.03-2.31-3.03-1.94 2.17-2.28 4.99-2.24 7.8-2.71-.24-5.43-.46-8.14-.72.33-3.92-2.15-8.09-6.55-7.45-.59.21-1.77.62-2.37.83-3.13 1.91-3.18 5.84-1.44 8.76-2 1-4 1.97-6.06 2.83.65-1.34.68-2.88.17-4.26 1.39-2.47 2.58-5.07 3.64-7.7 1.79-.94 3.53-1.95 5.24-3.02 1.62.16 3.24.34 4.85.54l.16-2.2z"/><path fill="#56351d" d="M191.94 159.82c1.31-.27 2.62-.55 3.93-.84-.02.54-.07 1.62-.09 2.16-1.55.43-3.1.85-4.62 1.34.19-.67.58-2 .78-2.66z"/><path fill="#adadac" d="M306.54 165.3c2.79-3.41 6.74-6.54 11.43-6.07 4.13-.41 7.69 2.11 10.42 4.93.96.98 1.86 2.01 2.73 3.07 3.82 5.72 6.94 12.16 7.98 19-.12.37-.34 1.12-.46 1.49-2.2-.22-4.39-.55-6.53-1.11-2.2-.27-2.4-2.97-3.22-4.6-.87-3.04-.98-7.76-4.89-8.4-3.1-1-5.3 1.81-6.22 4.39l-.17.58c-1.01-2.47-2.19-6.15-5.64-5.07-5.27.81-5.38 7.19-5.89 11.33-3.41.29-6.83.57-10.18 1.3 1.46-6.13 4.22-11.88 7.63-17.15.46-.64.93-1.26 1.43-1.86.51-.62 1.04-1.23 1.58-1.83z"/><path fill="#56351c" d="M172.98 159.93c2.05.1 4.11.19 6.12.67l-.16 2.2c-1.61-.2-3.23-.38-4.85-.54-.27-.59-.83-1.75-1.11-2.33z"/><path fill="#e2e2e2" d="M172.54 165.65c.6-.21 1.78-.62 2.37-.83.72 1 .06 4.13-1.52 2.62-.21-.45-.64-1.34-.85-1.79z"/><path fill="#020202" d="M174.91 164.82c4.4-.64 6.88 3.53 6.55 7.45-1.65 1.4-3.09 3.62-5.52 3.52-1.73.11-3.31-.71-4.84-1.38-1.74-2.92-1.69-6.85 1.44-8.76.21.45.64 1.34.85 1.79 1.58 1.51 2.24-1.62 1.52-2.62zm20.39-.35c1.62.71 3.65.99 4.63 2.65 1.61 2.12.39 4.83.11 7.18-2.11.8-4.38 2.08-6.68 1.21-1.37-.66-2.54-1.63-3.76-2.52-.04-2.81.3-5.63 2.24-7.8.78 1 1.55 2.01 2.31 3.03.39-1.25.77-2.5 1.15-3.75z"/><path fill="#965e38" d="M181.46 172.27c2.71.26 5.43.48 8.14.72 1.22.89 2.39 1.86 3.76 2.52 2.3.87 4.57-.41 6.68-1.21 2.77.87 5.53 1.75 8.31 2.55 2.85 5.29 7 10.12 12.85 12.11-.71-.09-2.12-.28-2.83-.38.43 4.63.99 9.38.01 13.98-1.36 4.11-4.53 7.61-8.47 9.42-3.83 1.9-8.11 2.52-12.21 3.63-2.41-.47-4.83-.89-7.24-1.38-1.66-1.29-3.1-2.83-4.53-4.36 5.53 2.17 11.48.58 16.9-1.06 5.23-1.38 9.01-6.76 8.58-12.14-.39-3.77-2.49-7.26-5.37-9.67-9.64-7.53-23.43-8.39-34.41-3.42-8.18 3.06-13.28 12.95-10.62 21.32.84 3.28 3.96 5.28 7.15 5.8 5.68 1.02 11.23-1.48 16.91-1.11-1.33 1.69-2.73 3.36-4.54 4.55-2.5.8-5 1.62-7.46 2.55-4.11-1.74-9.04-1.07-12.72-3.87-5.46-3.6-7.32-10.58-6.82-16.79-.07-3.57 1.69-6.8 2.01-10.3 3.03-2.27 5.44-5.25 7.13-8.64.79.46 1.58.51 2.37.15 2.06-.86 4.06-1.83 6.06-2.83 1.53.67 3.11 1.49 4.84 1.38 2.43.1 3.87-2.12 5.52-3.52z"/><path fill="#b6915d" d="M165.21 172.98c.51 1.38.48 2.92-.17 4.26-.79.36-1.58.31-2.37-.15.72-1.44 1.63-2.78 2.54-4.11z"/><path fill="#fff" d="M306.08 184.84c.51-4.14.62-10.52 5.89-11.33 3.45-1.08 4.63 2.6 5.64 5.07-.06 2.83-.53 5.71-2.79 7.66l-.46.74c-2.25.29-4.5.61-6.7 1.15-1.41-.51-1.37-2.05-1.58-3.29zm11.7-6.84c.92-2.58 3.12-5.39 6.22-4.39 3.91.64 4.02 5.36 4.89 8.4.05 1.75.03 3.51.05 5.27-2.47-.32-4.93-.62-7.39-.88-.26-.29-.77-.86-1.03-1.14-.72-.13-2.17-.4-2.9-.54.02-2.24.05-4.48.16-6.72z"/><path fill="#f3742e" d="M474.74 178.6c1-3.67 5.04-2.19 7.54-1.27-.71 2.09-3.17 2.65-4.84 3.79-.28-1.5-1.18-2.33-2.7-2.52zm-386 2.08c.89-3.85 5-2.24 7.54-1.37-.71 2.11-3.18 2.68-4.86 3.85-.19-1.57-1.08-2.4-2.68-2.48z"/><path fill="#840404" d="M310.53 178.25c3.29-.28 3.76 3.25 1.87 5.25-3.17.17-3.48-3.21-1.87-5.25z"/><path d="M317.61 178.58l.17-.58c-.11 2.24-.14 4.48-.16 6.72.73.14 2.18.41 2.9.54-.77 1.58-.79 4.68-3.17 4.53-1.1-.83-2.05-1.83-2.99-2.81l.46-.74c2.26-1.95 2.73-4.83 2.79-7.66z"/><path fill="#840404" d="M321.34 178.14c2.8-.26 4.27 1.92 3.35 4.55-1.03-.07-2.06-.15-3.08-.25-.66-1.36-.34-2.87-.27-4.3z"/><path fill="#936b50" d="M171.63 183.58c10.98-4.97 24.77-4.11 34.41 3.42 2.88 2.41 4.98 5.9 5.37 9.67.43 5.38-3.35 10.76-8.58 12.14-5.42 1.64-11.37 3.23-16.9 1.06-.21-.07-.65-.21-.86-.28-5.68-.37-11.23 2.13-16.91 1.11-3.19-.52-6.31-2.52-7.15-5.8-2.66-8.37 2.44-18.26 10.62-21.32z"/><path fill="#babab6" d="M328.89 182.01c.82 1.63 1.02 4.33 3.22 4.6 2.14.56 4.33.89 6.53 1.11.12-.37.34-1.12.46-1.49 3.47 3.2 8.84 4.14 10.92 8.82-2.6-.95-5.25-1.89-8.06-1.88 3.13 2.18 6.55 4.65 7.06 8.75-2.54-1.75-4.93-4.11-8.22-4.12 1.63 3.64 4.45 7.2 3.26 11.44-1.81-1.61-2.71-4.3-5.11-5.14-1.81.65-2.94 2.34-4.42 3.48-2.49 1.93-5.24 3.5-8.05 4.89.12-3.53 1.09-6.93 1.67-10.4 2.04-2.33 5.02-4.63 4.65-8.1-.01-2.77-2.25-4.7-3.86-6.69-.02-1.76 0-3.52-.05-5.27z"/><path fill="#1aa79d" d="M479.9 184.95c.15-1.29.87-2.04 2.16-2.26 0 2.5-.06 4.99-.09 7.49-2.67.07-5.34.04-8.01.02.92-1.59 1.13-3.39 1.17-5.19 1.58-.01 3.17-.03 4.77-.06zm-385.99 2.01c.14-1.33.86-2.08 2.18-2.26-.02 2.5-.09 5-.14 7.5-2.66.05-5.31.02-7.96 0 .84-1.61 1.09-3.4 1.15-5.19 1.59-.01 3.18-.03 4.77-.05z"/><path fill="#babab6" d="M295.9 186.14c3.35-.73 6.77-1.01 10.18-1.3.21 1.24.17 2.78 1.58 3.29-2.07 1.76-4.09 4.01-4.01 6.91-.17 3.36 2.35 5.81 4.35 8.17 1.24 3 1.76 6.22 2.43 9.37-1.8-.89-3.56-1.87-5.25-2.96-2.62-1.67-4.66-4.07-7.23-5.8-3.54-.36-6.3 2.28-9.02 4.11-.35-3.91 3.2-6.06 5.74-8.3-.07-.28-.22-.85-.29-1.13-2.26-.55-4.34 1-6.45 1.55 1.46-2.97 4.3-4.77 6.5-7.13-2.84-.25-5.62.4-8.39.91 2.33-3.53 5.69-6.58 9.86-7.69z"/><path fill="#775b31" d="M320.52 185.26c.26.28.77.85 1.03 1.14 2.46.26 4.92.56 7.39.88 1.61 1.99 3.85 3.92 3.86 6.69.37 3.47-2.61 5.77-4.65 8.1-1.84.08-3.67.18-5.49.31-1.47-1.3-2.9-2.63-4.27-4.03-1.45 1.62-2.99 3.16-4.59 4.63-1.94.06-3.87.14-5.8.23-2-2.36-4.52-4.81-4.35-8.17-.08-2.9 1.94-5.15 4.01-6.91 2.2-.54 4.45-.86 6.7-1.15.94.98 1.89 1.98 2.99 2.81 2.38.15 2.4-2.95 3.17-4.53z"/><path fill="#f37129" d="M435.95 185.01c1.78-.01 3.57-.01 5.37.02-1.44 2.66-2.8 5.46-2.32 8.57.62.33 1.85.98 2.47 1.3 3.51.13 7.02.13 10.53.09 0 2.41-.01 4.82-.03 7.23-3.15-1.35-6.56-1.27-9.71.01-.35 2.04-1.61 3.72-2.32 5.63.68 1.7 1.53 3.31 2.36 4.93 3.19.94 6.61 1.85 9.71.08-.02 2.38-.02 4.75-.02 7.12-1.25.01-2.49.01-3.72.02-.05 3.19-3.78 1.46-5.77 2.34-4.02 1.6-8.14-.45-12.22-.57-.14-.45-.44-1.33-.58-1.77-1.57-.01-3.14-.02-4.7-.02.01-3.21.01-6.42-.06-9.62-.79-.82-1.57-1.65-2.33-2.48-2.36.29-4.46 1.47-6.6 2.43-.04-1.86-.05-3.72-.03-5.58 1.43.05 2.2.81 2.32 2.26 1.76.01 3.53-.01 5.31-.04.35-.63 1.06-1.89 1.42-2.52-.38-1.77-.72-3.54-1.28-5.26-1.27-1.18-2.63-2.39-3.1-4.13 4.47-.19 8.95.13 13.42-.12 1.59-.12 2.73-1.42 4.07-2.15-.01-1.72-.48-3.28-2.02-4.22-.07-1.19-.13-2.37-.17-3.55zm-385.99 2c1.79-.01 3.57 0 5.36.02-1.5 2.7-2.81 5.59-2.33 8.76 4.07 1.98 8.67 1.01 13.01 1.21.01 2.41 0 4.82-.02 7.23-3.21-1.43-6.67-1.21-9.89 0-.1.6-.28 1.79-.37 2.39-.62 1.04-1.64 1.94-1.76 3.22.63 1.71 1.54 3.3 2.32 4.94 3.19.98 6.6 1.82 9.72.1-.01 2.37 0 4.73.01 7.1-1.26.01-2.52.03-3.78.06-.14.45-.41 1.35-.55 1.81-2.96-.01-5.81.72-8.7 1.21-2.89-.4-5.75-1.02-8.66-1.27l-.6-1.76c-1.57-.02-3.14-.03-4.7-.04-.01-3.25-.04-6.5-.02-9.75-1.24-.74-2.18-2.68-3.85-2.2-1.75.68-3.43 1.51-5.15 2.27-.03-1.77-.04-3.54-.03-5.31h1.94c.04.5.12 1.51.16 2.01 1.85-.01 3.7-.03 5.55-.06.35-.62 1.05-1.87 1.4-2.5-.38-1.76-.69-3.55-1.27-5.26-1.26-1.19-2.65-2.38-3.08-4.14 4.49-.18 9 .13 13.5-.12 1.5-.14 2.56-1.36 3.8-2.07.01-.7.03-2.1.04-2.79-.49-.34-1.46-1-1.95-1.34-.03-1.24-.06-2.48-.1-3.72z"/><path fill="#020202" d="M173.4 189.39c3.29-3.21 8.28-2.87 12.54-2.93 3.55.16 8.08.08 10.2 3.52.97 2.86-.63 5.69-2.13 8.03-2.53 3.64-5.51 6.94-8.71 10-4.27-3.81-8.52-7.82-11.52-12.75-.98-1.69-1.95-4.22-.38-5.87z"/><path fill="#fff" d="M318.39 198.35c1.37 1.4 2.8 2.73 4.27 4.03.02 1.8.03 3.6.03 5.4-2.95-.17-5.9-.37-8.84-.6-.02-1.4-.04-2.8-.05-4.2 1.6-1.47 3.14-3.01 4.59-4.63z"/><path fill="#1aa79d" d="M477.71 198.07c1.83-.04 3.67-.07 5.51-.07-.81 2.85-2.78 5.69-2.03 8.75 2.31 2.75 6.1 2.3 9.31 2.27-1.72 4.48-4.7 8.29-8.3 11.42-.08.54-.25 1.62-.33 2.17-1.95.7-2.46 3.09-4.44 3.7-3.73 1.54-6.85 4.13-10.37 6.06-.18-2.99.25-6.04-.32-8.99-.89-1.5-1.94-2.9-3.13-4.16 1.22-.17 2.31-.64 3.26-1.4.28-2.96.12-5.93.12-8.89 4.11.02 8.62.32 12.33-1.67 2.01-2.87-1.02-6.23-1.61-9.19zm-385.98 1.99c1.83-.04 3.66-.06 5.5-.05-.63 1.84-1.28 3.67-2.13 5.43-1.49 5.58 5.61 6.03 9.41 5.59-1.73 4.48-4.73 8.26-8.31 11.42-.09.55-.26 1.65-.35 2.2-2.05.56-2.38 3.16-4.45 3.66-3.72 1.56-6.82 4.13-10.34 6.05-.09-2.77.07-5.56-.14-8.33-.57-1.91-2.13-3.32-3.34-4.84 1.27-.12 2.38-.6 3.31-1.43.25-2.95.09-5.91.11-8.86 4.05.31 8.07-.18 12.02-1.05 2.43-3.15-.56-6.59-1.29-9.79z"/><path fill="#b2b2ab" d="M322.66 202.38c1.82-.13 3.65-.23 5.49-.31-.58 3.47-1.55 6.87-1.67 10.4-5.17 1.68-10.88 1.89-16.05.11-.67-3.15-1.19-6.37-2.43-9.37 1.93-.09 3.86-.17 5.8-.23.01 1.4.03 2.8.05 4.2 2.94.23 5.89.43 8.84.6 0-1.8-.01-3.6-.03-5.4z"/><path fill="#a09d97" d="M326.48 212.47c2.81-1.39 5.56-2.96 8.05-4.89 4.42 4.3 6.91 10.47 5.67 16.65-3.69-3.07-9.02-4.83-13.55-2.56-2.39 1.05-2.88 3.82-3.1 6.13.04 1.96.14 3.93.35 5.88-2.34.04-4.68.08-7.01.13.7-2.94 1.12-6.04.33-9.01-2.9-7.03-15.18-6.96-17.51.51-1.8-2.57-1.81-5.91-1.23-8.87 1.15-3.13 4.03-5.08 6.7-6.82 1.69 1.09 3.45 2.07 5.25 2.96 5.17 1.78 10.88 1.57 16.05-.11z"/><path fill="#540404" d="M185.07 209.59c.21.07.65.21.86.28 1.43 1.53 2.87 3.07 4.53 4.36-3.05 2.14-6.99 2.36-9.93-.09 1.81-1.19 3.21-2.86 4.54-4.55z"/><path fill="#381f0b" d="M173.07 216.69c2.46-.93 4.96-1.75 7.46-2.55 2.94 2.45 6.88 2.23 9.93.09 2.41.49 4.83.91 7.24 1.38-5.97 7.14-17.7 6.41-24.63 1.08z"/><path fill="#1aa79d" d="M456.88 217.8c2.25.13 4.44.63 6.57 1.35-1.02 1.17-1.92 2.44-2.75 3.75-1.23.05-2.46.1-3.68.15-.05-1.75-.1-3.5-.14-5.25zm-385.97 1.98c2.21.13 4.36.67 6.46 1.34-.93 1.24-1.84 2.5-2.69 3.8-1.23.03-2.46.06-3.69.11-.02-1.76-.05-3.51-.08-5.25z"/><path fill="#e2e2e2" d="M299.71 225.31c2.33-7.47 14.61-7.54 17.51-.51-.06 1.39-.13 2.78-.21 4.16-5.4 2.67-11.66 2.48-17.07-.02-.1-1.21-.17-2.42-.23-3.63zm26.94-3.64c4.53-2.27 9.86-.51 13.55 2.56.21 1.92.51 3.84.87 5.75-2.06 1.02-4.09 2.09-6.19 3.03-4.59.64-8.03-2.58-11.33-5.21.22-2.31.71-5.08 3.1-6.13z"/><path fill="#c8c8c4" d="M317.22 224.8c.79 2.97.37 6.07-.33 9.01-2.37 6.05-12.1 6.09-15.23.6-.83-1.74-1.22-3.63-1.72-5.47 5.41 2.5 11.67 2.69 17.07.02.08-1.38.15-2.77.21-4.16z"/><path fill="#d1d0c9" d="M323.55 227.8c3.3 2.63 6.74 5.85 11.33 5.21-.15 2.22-.29 4.44-.43 6.66-4.23.43-9.35-1.57-10.55-5.99-.21-1.95-.31-3.92-.35-5.88z"/><path fill="#bab9b3" d="M334.88 233.01c2.1-.94 4.13-2.01 6.19-3.03-.25 4.23-2.22 8.48-6.62 9.69.14-2.22.28-4.44.43-6.66z"/><path fill="#f7ea92" d="M0 263.23c2.11-5.28 7-9.73 12.97-9.44 29-.14 58 0 87-.07 3.91-.12 8.06.54 11.06 3.26 3.29 2.61 4.39 6.95 4.33 10.98.03 27.36-.1 54.72.01 82.08-.07 4.48.52 9.4-1.97 13.39-2.46 4.27-7.67 6-12.37 5.85-27.01-.04-54.03-.03-81.05-.02-3.89-.05-7.87.31-11.67-.73-4.06-1.33-6.69-5.06-8.31-8.83v-96.47z"/><path fill="#efff0f" d="M268.42 255.49c7.13-1.42 6.95-1.12 21.61-.59 14.66.53 29.33-.34 43.99.21 9.45-.1 18.93-.63 28.36.31 4.68.84 8.58 4.58 10.06 9.03.9 3.43.66 7.02.69 10.54-.04 26.98.03 53.97-.04 80.96.15 5.19-2.82 10.37-7.58 12.54-2.92 1.59-6.31 1.37-9.51 1.41-28.32-.1-56.65.07-84.98-.08-7.12-.06-13.21-6.72-12.82-13.8-.02-29.01-.02-58.01 0-87.02-.34-6.22 4.22-12.06 10.22-13.51z"/><path fill="#f7ea92" d="M387.14 265.98c-.34-6.8 6.14-12.65 12.82-12.29 29.69-.02 59.39.05 89.08-.01 4.21-.28 7.85 2 10.96 4.56v105.75c-2.63 3.32-6.72 5.22-10.96 5.07-28.99.07-57.98-.02-86.97.05-4.3.13-9.15-.59-11.92-4.28-2.77-2.9-3.2-7.03-3.06-10.85.08-29.33.03-58.67.05-88zm-258.53.95c-.34-6.69 5.88-12.43 12.42-12.27 29.96-.02 59.94-.04 89.9 0 6.72-.37 12.93 5.55 12.82 12.27-.04 30.37.01 60.75-.02 91.13.2 5.63-4.44 9.64-9.06 11.94h-97.4c-4.6-2.33-8.82-6.5-8.62-12.04-.08-30.34-.01-60.69-.04-91.03z"/><path fill="#b7b7b7" d="M396.42 264.07c.28-2.73 2.59-5.73 5.65-4.91 5.8 1.08 9.58 6.2 13.75 9.94 7.21 6.85 12.82 15.13 19.73 22.22-.54.61-1.07 1.23-1.58 1.86-7.61-7.02-14.86-14.41-22.61-21.27-.29 1.59-1.92 3.67-.32 5.02 6.34 5.46 13.17 10.35 19.29 16.07-1.35-.38-2.75-.68-3.87-1.55-5.6-4.12-11.72-7.42-17.62-11.07-1.4 2.73-2.56 5.61-4.36 8.12-.7 1.45-3.33 1.85-3.95.15-4.19-7.42-4.88-16.25-4.11-24.58zm87.87-2.76c2.22-.01 3.39 2.28 4.83 3.62 5.92 6.51 10.38 16 7.21 24.78-5.51-1.43-9.4-5.68-13.28-9.48-7.67 4.25-15.12 8.94-22.88 13.03-.88-1.08-1.78-2.12-2.74-3.1 6.84-8.08 12.68-17.05 20.44-24.32 1.95-1.74 3.95-3.58 6.42-4.53z"/><path fill="#feffb8" d="M266.02 271.93c.44-6.28 7.33-9.8 13.1-8.97 24.58.04 49.16-.01 73.73.02 4.06.28 8.14 2.48 10.39 5.9 2.47 6.05 1.71 12.72 1.78 19.1-.04 22.03-.04 44.07.01 66.1-.02 3.51-3.31 7.19-6.98 6.93-28.34.02-56.69-.04-85.04 0-4.26.4-7.37-4.13-7.07-8.02.13-27.02-.03-54.05.08-81.06z"/><path fill="#1aa79d" d="M303.36 265.13c7.65-1.8 15.23.26 22.85.99-.53 1.31-1.01 2.65-1.45 4-3.07-1.92-6.45-.5-9.66.1-.09.58-.27 1.73-.35 2.3-1.13 2.22-1.49 4.87-.57 7.24 1.71 1.45 3.77 2.48 5.9 3.2 1.87.44 3.36-1.05 4.91-1.82-.01 3.95.03 7.9 0 11.85 4.94.02 9.88 0 14.82.01.73-2.07 2.09-4.56.36-6.53-.09-1.2-.17-2.39-.25-3.59 1.85.04 3.76.16 5.34 1.25-1.06 1.06-2.12 2.12-3.17 3.19-.05 1.12-.08 2.25-.1 3.39 1.42.08 2.18.84 2.29 2.28 2.82.02 5.66-.14 8.48.15 2.18 2.03 2.43 5.06 2.3 7.87-.49 0-1.48-.01-1.97-.01-.04-.5-.13-1.5-.17-2.01-1.54.01-3.08.01-4.61.03 0 1.96-1.59 2.07-3.14 2.13-1.16 2.47-1.32 5.17-1.04 7.85-2.02.01-4.03 0-6.05-.01-2.54 2.78-2.42 6.74-.93 10-6.54.03-13.07-.01-19.6.02 1.57-2.36 1.61-5.14 1.46-7.87-1.49-.66-2.99-1.3-4.46-2-2.42-.13-4.88-.4-7.28.07-2.63 2.49-2.75 6.7-1.1 9.8-6.39-.01-12.78-.01-19.17-.01 0 1.2.01 2.41.02 3.62 2.35.66 3.02 3.25 4.33 5.03 1.22.39 1.94 1.26 2.15 2.58l-3.04-1.28c-4.69-.35-7.21 4.57-6.46 8.69.95.93 1.92 1.88 2.25 3.23 2.5 1.21 5.23.88 7.74-.12.01 1.87-.01 3.74-.05 5.62-5.24-3.51-11.61-5.63-15.5-10.81-1.47-.99-2.38-2.46-2.82-4.16-2.28-3-3.7-6.5-5.37-9.84-.48-3.05-.86-6.15-2.08-9.02-.92-6.61.96-13.09 2.07-19.55 2.01 0 4.03.01 6.04.03-.75.78-1.5 1.56-2.25 2.33-.01 1.78-.01 3.56-.02 5.35.76.7 1.51 1.41 2.26 2.12 3.1 1.1 6.31.59 9.44-.02.71-.71 1.41-1.42 2.13-2.12.1-.54.3-1.62.41-2.16 1.73-1.98-.68-3.97-1.74-5.56 3.8.07 7.6.04 11.4 0 .08-4.15.21-8.31-.04-12.46-.31-.63-.95-1.87-1.26-2.49-1.85-.02-3.7-.03-5.55-.02-.05.59-.16 1.77-.22 2.35-3.01-1.34-1.51-5.05-1.84-7.62 1.9.11 2.88 1.6 3.39 3.26 1.51.01 3.02.02 4.54.03.05-.65.15-1.96.2-2.61 2.25-2.7 2.54-7 6.23-8.27z"/><path fill="#f47833" d="M292.38 268.1c1.39-.38 1.91.15 1.56 1.57-1.36.34-1.88-.19-1.56-1.57z"/><path fill="#f37129" d="M327.82 276c.94-2.86 1.88-5.76 3.7-8.2.43.49 1.27 1.47 1.69 1.97 2.64-.26 3.67 2.19 5.39 3.66 1.7 1.64 2.88 3.73 4.53 5.42-2.42.2-5.24.4-6.9 2.43-.72 2.22-.01 4.52.79 6.62-2.48.08-4.94.39-7.31 1.13-.74-3.31-.21-6.74-.89-10.06-.6-1.15-2.11-1.37-3.14-2.02-1.05.54-2.1 1.05-3.16 1.55-1.2.19-2.39.43-3.57.71.34-2.05-.79-4.86 1.3-6.19 2.01-.62 2.13 1.68 2.82 2.94 1.58.01 3.16.03 4.75.04z"/><path fill="#fff" d="M411.04 276.93c-1.6-1.35.03-3.43.32-5.02 7.75 6.86 15 14.25 22.61 21.27-.5.61-.97 1.24-1.43 1.88-.74-.69-1.48-1.37-2.21-2.06-6.12-5.72-12.95-10.61-19.29-16.07zm66.85-3.1c1.92-2.7 4.1 2.05 2.32 3.4-5.84 5.21-12.38 9.59-19 13.74 5.21-6.03 11.05-11.5 16.68-17.14z"/><path fill="#381f0b" d="M29.43 286.05c1.63-3.9 3.22-8.75 7.59-10.32 3.18-.99 5.9 1.25 7.37 3.86-2.47.21-6.09-.26-7.04 2.75-1.94 5.85-2.17 12.26-5.36 17.69-2.67 4.71-5.73 10.91-11.92 11.16-4.14.57-7.37-2.35-9.47-5.55 9.36-2.22 15.95-10.8 18.83-19.59z"/><path fill="#ad1380" d="M189.93 275.78c9.17-.65 17.01 5.86 22.97 12.16-5.68-.97-11.49-.56-17.12.48.43-2.61 1.51-6.15-1.36-7.78-1.5-1.53-5-2.2-4.49-4.86z"/><path fill="#f37129" d="M282.38 276.04c.39-.01 1.18-.05 1.57-.07.05 1.25.09 2.5.14 3.76 1.54 1.2 2.96 2.75 4.9 3.29 1.77.26 3.38-.7 5.02-1.19-.02 2.05-.02 4.11-.02 6.18-4.44-.18-9.03-.22-13.06 1.93.05 1.25.1 2.51.14 3.77.78 1.23 1.59 2.47 3.17 2.74-.8 2.66-4.37 3.07-6.39 1.49.66-1.48 1.32-2.95 1.99-4.42.07-1.15.15-2.29.22-3.43-2.18-1.38-4.59-2.28-7.2-2.23 1.78-2.8 3.38-5.79 5.85-8.07 1.3-1.17 3.08-1.97 3.67-3.75z"/><path fill="#381f0b" d="M71.73 280.23c.73-3.92 6.48-4.71 9.08-2.03 4.75 4.61 5.25 11.78 8.91 17.11 2.7 3.83 6.16 7.09 9.97 9.81-1.78 1.82-3.73 4.24-6.62 3.74-5.38-.46-8.17-6.06-9.3-10.72-1.53-5.35.2-11.76-3.67-16.29-2.06-2.6-5.58-1.61-8.35-1.17l-.02-.45z"/><path fill="#934912" d="M37.35 282.34c.95-3.01 4.57-2.54 7.04-2.75-.21.68-.62 2.06-.82 2.74-.99 2.76-1.92 5.61-3 8.36-1.14 2.81-2.44 5.55-3.53 8.39-1.3.84-2.13 2.17-2.28 3.73-.33.46-.98 1.37-1.31 1.83-1.66 2.6-3.46 5.12-5.83 7.12-4.84 3.76-11.37 3.92-17.11 2.57-2.79-.92-6.15-2.19-6.88-5.41.91-2.89 4.57-2.65 6.97-3.28 2.1 3.2 5.33 6.12 9.47 5.55 6.19-.25 9.25-6.45 11.92-11.16 3.19-5.43 3.42-11.84 5.36-17.69z"/><path fill="#965e38" d="M70.85 283.75c.2-1.19.07-2.54.88-3.52l.02.45c-.23 3.61 1.39 6.88 2.66 10.15-2.75-1.19-5.55-2.25-8.35-3.31.73-.86 1.38-1.77 2.03-2.68-1.75.52-3.48 1.08-5.15 1.82-3.6-2.01-8.81-2.07-11.84.96-2-1.17-4.25-1.67-6.56-1.56.8 1.33 2.03 2.25 3.47 2.79-2.58.12-5.03.99-7.44 1.84 1.08-2.75 2.01-5.6 3-8.36 2.65.62 4.91-1.52 7.5-1.66 6.7-.63 13.82-.44 19.78 3.08z"/><path fill="#934912" d="M71.75 280.68c2.77-.44 6.29-1.43 8.35 1.17 3.87 4.53 2.14 10.94 3.67 16.29 1.13 4.66 3.92 10.26 9.3 10.72 2.89.5 4.84-1.92 6.62-3.74 3.97 1.56 8.35 1.78 12.18 3.76-.4 1.69-.77 3.65-2.51 4.48-5.94 3.46-13.84 4.06-19.89.53-4.48-2.6-7.3-7.09-9.84-11.46-1.92-3.78-3.66-7.65-5.22-11.6-1.27-3.27-2.89-6.54-2.66-10.15z"/><path fill="#936b50" d="M51.1 287.62c3.03-3.03 8.24-2.97 11.84-.96.15.64.46 1.94.62 2.58.63-.43 1.88-1.29 2.5-1.72 2.8 1.06 5.6 2.12 8.35 3.31 1.56 3.95 3.3 7.82 5.22 11.6-2.76-.17-5.4-1.04-7.89-2.21.32-2.43 1.28-5.32-.65-7.36-1.16-1.64-3.22-1.76-5.04-1.81-.49.14-1.49.43-1.98.58-2.96 1.32-2.87 4.51-3.06 7.27-2.72-.08-5.44-.13-8.15-.14-.35-2.02.09-4.48-1.54-6.03-1.05-1.3-2.75-1.61-4.25-2.09-.2.65-.59 1.96-.78 2.61-.02-.6-.05-1.79-.06-2.39-.59.23-1.77.7-2.36.93-2.95 1.99-2.64 5.54-1.67 8.54-2.75 1.68-5.27 4.48-8.75 4.31.33-.46.98-1.37 1.31-1.83 2.06.01 2.92-1.97 2.28-3.73 1.09-2.84 2.39-5.58 3.53-8.39 2.41-.85 4.86-1.72 7.44-1.84l1.8-.04c.32-.3.96-.89 1.29-1.19z"/><path fill="#59371e" d="M62.94 286.66c1.67-.74 3.4-1.3 5.15-1.82-.65.91-1.3 1.82-2.03 2.68-.62.43-1.87 1.29-2.5 1.72-.16-.64-.47-1.94-.62-2.58z"/><path fill="#f3732c" d="M348.36 284.7c1.82.75 2.59 2.74 3.63 4.28-1.66.02-3.32.05-4.97.07.47-1.44.9-2.9 1.34-4.35z"/><path fill="#adadac" d="M435.55 291.32c2.76-3.5 6.74-6.56 11.47-6.04 4.11-.44 7.66 2.11 10.41 4.88.96.98 1.86 2.02 2.74 3.1 3.8 5.74 6.85 12.21 7.94 19.05-.08.35-.26 1.03-.34 1.37-2.68-.29-5.39-.56-7.95-1.41-.84-1.34-1.39-2.83-1.91-4.31-.86-3.33-1.31-8.43-5.82-8.47-3.19-.66-4.32 2.91-5.49 5.09l-.19-.63c-.87-2.39-2.38-5.44-5.48-4.42-5.2.82-5.52 7.14-5.74 11.29-3.46.27-6.93.53-10.31 1.33 1.45-6.12 4.24-11.84 7.66-17.09.46-.64.93-1.27 1.43-1.88.51-.63 1.04-1.25 1.58-1.86z"/><path fill="#54331b" d="M44.54 286.06c2.31-.11 4.56.39 6.56 1.56-.33.3-.97.89-1.29 1.19l-1.8.04c-1.44-.54-2.67-1.46-3.47-2.79z"/><path fill="#4ec1e5" d="M191.39 290.01c1.39-.69 2.86-1.28 4.39-1.59 5.63-1.04 11.44-1.45 17.12-.48 4.66.99 9.09 3.09 12.82 6.06 5.69 5.42 9.35 12.6 11.26 20.16-4.38-4.76-6.52-11.92-13.11-14.28-.4-.2-1.2-.62-1.6-.83-11.67-6.48-27.22-6.63-38.59.66-3.05 1.92-5.45 4.74-8.7 6.35-4.4 2.15-9.42 2.65-14.26 2.34-5.81-.48-11.71-1.05-17.16-3.24-.67 1.08-1.35 2.17-2 3.28.05-2.76.62-5.69-.53-8.3-1.64-3.98-6-6.07-7.3-10.25 2.74-1.15 4.58 1.21 5.9 3.23 3.98 5.92 10.07 10.61 17.1 12.21 6.22 1.09 13.1.58 18.3-3.34 5.43-4.02 10.21-8.98 16.36-11.98z"/><path fill="#fff" d="M181.93 294.94c2.8-2.18 5.68-4.84 9.46-4.93-6.15 3-10.93 7.96-16.36 11.98-5.2 3.92-12.08 4.43-18.3 3.34-7.03-1.6-13.12-6.29-17.1-12.21 3.64 2.01 6.15 5.5 9.72 7.63 4.87 3.08 10.78 5.74 16.65 4.21 6.32-1.33 11.17-5.96 15.93-10.02zm-138.06-3.15c.59-.23 1.77-.7 2.36-.93.01.6.04 1.79.06 2.39-.04.38-.11 1.13-.14 1.51-.76-.99-1.52-1.99-2.28-2.97z"/><path fill="#020202" d="M47.07 290.64c1.5.48 3.2.79 4.25 2.09 1.63 1.55 1.19 4.01 1.54 6.03-1.26 1.01-2.42 2.16-3.88 2.88-2.37.89-4.64-.44-6.78-1.31-.97-3-1.28-6.55 1.67-8.54.76.98 1.52 1.98 2.28 2.97.03-.38.1-1.13.14-1.51.19-.65.58-1.96.78-2.61z"/><path fill="#babab6" d="M64.07 291.63c.49-.15 1.49-.44 1.98-.58 1.24 2.51-1.63 3.29-1.98.58z"/><path fill="#020202" d="M66.05 291.05c1.82.05 3.88.17 5.04 1.81 1.93 2.04.97 4.93.65 7.36-2.25.89-4.7 2.35-7.16 1.32-1.29-.74-2.41-1.72-3.57-2.64.19-2.76.1-5.95 3.06-7.27.35 2.71 3.22 1.93 1.98-.58z"/><path fill="#1cb7ca" d="M183.68 299.71c11.37-7.29 26.92-7.14 38.59-.66-1.95-.04-4.04-.47-5.86.43-1.42.91-2.41 2.33-3.57 3.52-4.56-.84-9.3-1.31-13.82-.07-10.58 2.66-21.02 6.5-32.03 6.87-8.64.24-17.29-.01-25.91-.52l.48-.84c.65-1.11 1.33-2.2 2-3.28 5.45 2.19 11.35 2.76 17.16 3.24 4.84.31 9.86-.19 14.26-2.34 3.25-1.61 5.65-4.43 8.7-6.35z"/><path fill="#fff" d="M225.72 294c3.27.75 4.95 3.87 6.66 6.44 3.14 4.87 4.68 10.51 7.17 15.69.64 1.3-.54 2.36-1.64 2.78-2.25 1.04-5.16 1.35-7.29-.11 2.72-.2 7.33.67 7.73-3.18l-.86-.87-.51-.59c-1.91-7.56-5.57-14.74-11.26-20.16z"/><path fill="#bc955b" d="M34.76 302.81c.15-1.56.98-2.89 2.28-3.73.64 1.76-.22 3.74-2.28 3.73z"/><path fill="#965e38" d="M48.98 301.64c1.46-.72 2.62-1.87 3.88-2.88 2.71.01 5.43.06 8.15.14 1.16.92 2.28 1.9 3.57 2.64 2.46 1.03 4.91-.43 7.16-1.32 2.49 1.17 5.13 2.04 7.89 2.21 2.54 4.37 5.36 8.86 9.84 11.46 1.17 6.44 2.22 13.97-2.13 19.5-4.16 5.65-11.54 6.77-17.94 8.13-2.36-.18-4.7-.52-7.05-.77-1.31-1.09-2.57-2.24-3.73-3.48 6.03 0 12.08-.9 17.75-3.01 3.42-1.4 5.47-4.92 6.38-8.34 1.22-4.57-1.23-9.19-4.54-12.21-10.34-8.58-25.83-9.08-37.45-2.85-6.99 3.55-10.1 12.39-8.36 19.79 1.28 4.48 6.16 6.87 10.6 6.33 4.55-.5 9.49-.24 13.6-2.53l.34-.32c.18.34.54 1 .72 1.33-1.98 1.71-3.9 3.51-5.96 5.13-2.48.65-4.97 1.24-7.43 1.96-5.17-1.25-11.26-1.46-14.99-5.81-5.85-6.82-5.3-17.24-1.66-24.98 2.37-2 4.17-4.52 5.83-7.12 3.48.17 6-2.63 8.75-4.31 2.14.87 4.41 2.2 6.78 1.31z"/><path fill="#ad1380" d="M216.41 299.48c1.82-.9 3.91-.47 5.86-.43.4.21 1.2.63 1.6.83 2.79 2.2 3.42 5.57 2.82 8.93-1.69.91-3.44 1.77-5.38 1.97-.88-.03-2.64-.09-3.53-.11-2.42-2-4.36-4.51-4.94-7.67 1.16-1.19 2.15-2.61 3.57-3.52z"/><path fill="#1cb7ca" d="M223.87 299.88c6.59 2.36 8.73 9.52 13.11 14.28l.51.59c-.49.16-1.46.48-1.95.64-2.87-2.3-5.72-4.63-8.85-6.58.6-3.36-.03-6.73-2.82-8.93z"/><path fill="#fff" d="M435.19 310.82c.22-4.15.54-10.47 5.74-11.29 3.1-1.02 4.61 2.03 5.48 4.42.25 3.05-.12 6.27-2.65 8.32l-.38.78c-2.18.25-4.35.53-6.51.85-.37-.04-1.1-.11-1.47-.15-.05-.73-.16-2.19-.21-2.93zm11.41-6.24c1.17-2.18 2.3-5.75 5.49-5.09 4.51.04 4.96 5.14 5.82 8.47.03 1.76 0 3.52.01 5.29-2.45-.3-4.9-.59-7.35-.86-.27-.28-.79-.84-1.06-1.12l-2.84-.56c-.02-2.04-.01-4.09-.07-6.13zm-228.95-2.99c3.35-1.35 8.09.65 8.77 4.4.29 1.73-1.48 2.51-2.53 3.46-.19-.64-.57-1.92-.75-2.55-.23-1.26-1.67-1.42-2.57-1.96-.17 1.66-.32 3.31-.45 4.98-3.51-.94-5.03-5.73-2.47-8.33z"/><path fill="#1b9aa8" d="M199.02 302.93c4.52-1.24 9.26-.77 13.82.07.58 3.16 2.52 5.67 4.94 7.67-.76 2.03-.97 5.93 2.25 5.5 3.2-.08 2.56-3.58 1.28-5.39 1.94-.2 3.69-1.06 5.38-1.97 3.13 1.95 5.98 4.28 8.85 6.58-3.95 2.38-8.51.99-12.78.77 1.99 3.01 4.83 5.29 7.97 7.02-1.05.93-2.12 2.02-3.66 1.83-12.76.95-25.39-2.7-36.77-8.25-7.59-3.63-15.89-5.88-24.34-5.8-8.02.15-16.49-.78-24.01 2.6-2.64-.51-5.29-.99-7.96-1.23 1.48-2.22 4.76-2.12 7.09-3.05 8.62.51 17.27.76 25.91.52 11.01-.37 21.45-4.21 32.03-6.87z"/><path fill="#f3742e" d="M350.31 303.78c1.61.69 3.28 1.21 5.01 1.55-.8 2.07-3.23 2.69-4.95 3.82-.17-1.57-1.06-2.42-2.67-2.54.47-1.27 1.64-1.98 2.61-2.83z"/><path fill="#840404" d="M439.49 304.27c3.08-.35 3.97 3.03 1.98 4.98-.51.03-1.54.1-2.05.14-1.26-1.64-.9-3.46.07-5.12z"/><path d="M446.41 303.95l.19.63c.06 2.04.05 4.09.07 6.13l2.84.56c-.64 1.68-.83 3.81-2.57 4.78-1.35-.8-2.5-1.88-3.56-3l.38-.78c2.53-2.05 2.9-5.27 2.65-8.32z"/><path fill="#840404" d="M450.29 304.17c1.78.1 4.19.53 3.61 2.96.41 1.8-2.3 1.77-3.34 1.24-.57-1.34-.3-2.81-.27-4.2z"/><path fill="#020202" d="M220.57 304.94c.9.54 2.34.7 2.57 1.96 1.11 1.9-2.03 2.18-3.02 3.02.13-1.67.28-3.32.45-4.98z"/><path fill="#936b50" d="M40.76 310.86c11.62-6.23 27.11-5.73 37.45 2.85 3.31 3.02 5.76 7.64 4.54 12.21-.91 3.42-2.96 6.94-6.38 8.34-5.67 2.11-11.72 3.01-17.75 3.01-.24-.45-.72-1.36-.96-1.81-.18-.33-.54-.99-.72-1.33 3.82-3.96 7.8-7.98 10.24-12.97 1.25-2.5.93-6.2-1.99-7.33-4.84-1.77-10.24-1.51-15.26-.77-2.82.47-6.68 2.34-5.62 5.85 2.08 6.47 8.03 10.54 12.29 15.54-4.11 2.29-9.05 2.03-13.6 2.53-4.44.54-9.32-1.85-10.6-6.33-1.74-7.4 1.37-16.24 8.36-19.79z"/><path fill="#babab6" d="M457.91 307.96c.52 1.48 1.07 2.97 1.91 4.31 2.56.85 5.27 1.12 7.95 1.41.08-.34.26-1.02.34-1.37 3.51 3.16 8.89 4.09 10.94 8.78-2.59-.92-5.2-1.92-8-1.82 3.13 2.08 6.6 4.51 6.91 8.63-2.55-1.68-4.87-4.2-8.18-4.04 1.7 3.62 4.53 7.17 3.32 11.42-1.64-1.51-2.55-3.72-4.38-4.99-2.35-.45-3.53 2.14-5.2 3.29-2.47 1.94-5.2 3.53-8.01 4.91.2-3.52.97-6.97 1.63-10.42 2.03-2.33 5.01-4.64 4.64-8.09 0-2.79-2.17-4.78-3.86-6.73-.01-1.77.02-3.53-.01-5.29z"/><path fill="#1f919e" d="M141.95 313.56c7.52-3.38 15.99-2.45 24.01-2.6 8.45-.08 16.75 2.17 24.34 5.8 11.38 5.55 24.01 9.2 36.77 8.25 1.54.19 2.61-.9 3.66-1.83 1.51.52 3.04.95 4.58 1.38-6.26 6.75-15.89 8.71-24.74 8.8 1.1-1.51 2.2-3.01 3.31-4.51-2.66-4.13-8.27-5.44-12.7-3.66-2.35 1.66-3.57 4.46-5.49 6.56-4.17-1.84-8.32-3.79-12-6.53-6.39-4.43-12.56-10.34-20.73-10.93-8.16-.56-14.65 5.29-20.73 9.89-2.08 1.39-4.16 3.88-6.94 3.23 2.75-4.26 8.3-8.1 6.66-13.85z"/><path fill="#11b5be" d="M217.78 310.67c.89.02 2.65.08 3.53.11 1.28 1.81 1.92 5.31-1.28 5.39-3.22.43-3.01-3.47-2.25-5.5z"/><path fill="#1aa79d" d="M352.89 312.96c.16-1.31.89-2.07 2.2-2.26-.03 2.49-.08 4.98-.12 7.47-2.65.07-5.31.05-7.96.04.81-1.63 1.08-3.4 1.13-5.2 1.58-.01 3.16-.02 4.75-.05z"/><path fill="#babab6" d="M424.88 312.15c3.38-.8 6.85-1.06 10.31-1.33.05.74.16 2.2.21 2.93.37.04 1.1.11 1.47.15-2.12 1.83-4.29 4.09-4.22 7.11-.21 3.39 2.39 5.81 4.34 8.22 1.3 2.98 1.81 6.2 2.48 9.36-1.85-.84-3.64-1.79-5.32-2.91-2.62-1.66-4.51-4.27-7.21-5.8-3.52-.48-6.28 2.16-8.97 3.97-.59-4.26 3.94-5.98 5.81-8.77-1.92-1.83-4.68.64-6.83 1 1.28-3.15 4.45-4.7 6.4-7.33-2.77.1-5.51.59-8.22 1.15 2.23-3.61 5.62-6.59 9.75-7.75z"/><path fill="#775b31" d="M449.51 311.27c.27.28.79.84 1.06 1.12 2.45.27 4.9.56 7.35.86 1.69 1.95 3.86 3.94 3.86 6.73.37 3.45-2.61 5.76-4.64 8.09-1.83.09-3.65.19-5.47.31-1.46-1.29-2.87-2.62-4.25-3.98-1.45 1.6-2.95 3.16-4.69 4.46-1.91.18-3.83.26-5.74.37-1.95-2.41-4.55-4.83-4.34-8.22-.07-3.02 2.1-5.28 4.22-7.11 2.16-.32 4.33-.6 6.51-.85 1.06 1.12 2.21 2.2 3.56 3 1.74-.97 1.93-3.1 2.57-4.78z"/><path fill="#020202" d="M44.31 318.91c-1.06-3.51 2.8-5.38 5.62-5.85 5.02-.74 10.42-1 15.26.77 2.92 1.13 3.24 4.83 1.99 7.33-2.44 4.99-6.42 9.01-10.24 12.97l-.34.32c-4.26-5-10.21-9.07-12.29-15.54z"/><path fill="#f37129" d="M308.95 312.99c1.79 0 3.58.03 5.38.06-1.46 2.64-2.82 5.44-2.31 8.55.6.33 1.8.98 2.4 1.3 3.53.13 7.06.12 10.59.1 0 2.41-.02 4.81-.04 7.22-3.21-1.43-6.64-1.19-9.87.01-.1.59-.28 1.77-.38 2.36-.61 1.08-1.68 2-1.75 3.32.64 1.68 1.52 3.24 2.3 4.86 3.19 1 6.61 1.84 9.74.12-.01 2.36-.01 4.72-.01 7.09-1.24 0-2.48.02-3.72.04-.15.45-.44 1.36-.59 1.81-2.95.02-5.8.73-8.68 1.23-2.99-.3-5.9-1.26-8.94-1.18-.03-.47-.1-1.4-.13-1.86-1.65-.02-3.29-.02-4.93-.03 0-3.24-.03-6.48 0-9.72-1.3-1.2-2.6-2.55-4.53-2.28-1.36 1.03-2.92 1.74-4.51 2.32.36-1.94-1.26-5.72 1.93-5.54l.16 2.24c1.91-.01 3.83-.03 5.74-.02 1.6-2.46.98-5.3-.1-7.81-1.23-1.2-2.58-2.4-3.04-4.12 4.79-.27 9.63.28 14.41-.28 2.97-.79 4.23-4.68 1.05-6.17-.07-1.21-.12-2.42-.17-3.62z"/><path fill="#f1e611" d="M235.54 315.39c.49-.16 1.46-.48 1.95-.64l.86.87c-.4 3.85-5.01 2.98-7.73 3.18-.88-.05-2.66-.14-3.55-.18 2.16 3.49 8.54.5 9.38 5.36l-1.14.58c-1.54-.43-3.07-.86-4.58-1.38-3.14-1.73-5.98-4.01-7.97-7.02 4.27.22 8.83 1.61 12.78-.77z"/><path fill="#fff" d="M236.45 323.98c.42-.2 1.26-.61 1.68-.81-5.19 8.04-15.24 10.61-24.22 11.28-5.17.05-9.56 3.68-14.82 3.21-3.3-.3-7.75.93-10.1-2.02 3.95.58 7.96 1.23 11.95.69 3.39-.34 6.44-1.91 9.63-2.97 8.85-.09 18.48-2.05 24.74-8.8l1.14-.58zm210.97.42c1.38 1.36 2.79 2.69 4.25 3.98 0 1.78-.01 3.58-.01 5.37-2.93-.16-5.85-.33-8.77-.54-.06-1.45-.11-2.91-.16-4.35 1.74-1.3 3.24-2.86 4.69-4.46z"/><path fill="#ad1380" d="M201.18 325.19c4.43-1.78 10.04-.47 12.7 3.66-1.11 1.5-2.21 3-3.31 4.51-3.19 1.06-6.24 2.63-9.63 2.97-3.99.54-8-.11-11.95-.69.23-.45.68-1.36.91-1.82 1.95-.57 4.13-.78 5.79-2.07 1.92-2.1 3.14-4.9 5.49-6.56z"/><path fill="#1aa79d" d="M350.72 326.05c1.83-.03 3.67-.03 5.51-.02-.84 2.83-2.75 5.63-2.09 8.69 2.34 2.78 6.14 2.34 9.38 2.31-1.76 4.44-4.7 8.28-8.31 11.39-.09.55-.26 1.64-.34 2.19-1.98.69-2.44 3.13-4.46 3.7-3.71 1.58-6.85 4.1-10.34 6.08-.17-3.01.22-6.07-.31-9.04-.96-1.32-2.03-2.58-2.67-4.09.96-.47 1.93-.93 2.91-1.39.02-2.99-.02-5.97.01-8.96 4.25-.09 9.37.62 12.84-2.21.72-3.07-1.44-5.78-2.13-8.65z"/><path fill="#b2b2ab" d="M451.67 328.38c1.82-.12 3.64-.22 5.47-.31-.66 3.45-1.43 6.9-1.63 10.42-5.18 1.61-10.88 1.94-16.04.1-.67-3.16-1.18-6.38-2.48-9.36 1.91-.11 3.83-.19 5.74-.37.05 1.44.1 2.9.16 4.35 2.92.21 5.84.38 8.77.54 0-1.79.01-3.59.01-5.37z"/><path fill="#a09d97" d="M455.51 338.49c2.81-1.38 5.54-2.97 8.01-4.91 4.56 4.2 6.78 10.49 5.7 16.63-3.76-3.01-9.08-4.9-13.64-2.52-2.31 1.1-2.76 3.84-3.01 6.11.02 1.95.1 3.91.29 5.87-2.33.06-4.66.13-6.98.21.81-2.95.98-6.03.65-9.06-3.4-6.83-15.36-7.17-17.8.57-2.25-3.54-2.26-8.8.67-11.98 1.25-1.62 3.06-2.64 4.75-3.73 1.68 1.12 3.47 2.07 5.32 2.91 5.16 1.84 10.86 1.51 16.04-.1z"/><path fill="#540404" d="M51.7 340.59c2.06-1.62 3.98-3.42 5.96-5.13.24.45.72 1.36.96 1.81 1.16 1.24 2.42 2.39 3.73 3.48-3.49 1.5-7.26 1.75-10.65-.16z"/><path fill="#381f0b" d="M44.27 342.55c2.46-.72 4.95-1.31 7.43-1.96 3.39 1.91 7.16 1.66 10.65.16 2.35.25 4.69.59 7.05.77-5.93 7.46-18.25 6.78-25.13 1.03z"/><path fill="#1aa79d" d="M329.89 345.83c2.04.06 4.12.26 5.89 1.4-.31 1.4-1.17 2.61-2.09 3.68-1.23.02-2.46.06-3.68.12-.05-1.74-.09-3.47-.12-5.2z"/><path fill="#e2e2e2" d="M428.73 351.39c2.44-7.74 14.4-7.4 17.8-.57-.6 1.54-.01 4.04-1.96 4.69-4.95 2.46-10.68 1.51-15.58-.55-.12-1.19-.21-2.38-.26-3.57zm26.85-3.7c4.56-2.38 9.88-.49 13.64 2.52.2 1.94.48 3.86.84 5.78-2.01 1-3.98 2.05-6.01 3-4.63.66-8.13-2.56-11.48-5.19.25-2.27.7-5.01 3.01-6.11z"/><path fill="#c8c8c4" d="M446.53 350.82c.33 3.03.16 6.11-.65 9.06-2.53 6-12.07 5.97-15.29.51-.77-1.73-1.13-3.61-1.6-5.43 4.9 2.06 10.63 3.01 15.58.55 1.95-.65 1.36-3.15 1.96-4.69z"/><path fill="#d1d0c9" d="M452.57 353.8c3.35 2.63 6.85 5.85 11.48 5.19-.29 2.12-.56 4.25-.87 6.38l-.08.55c-4.1-.26-9.02-1.84-10.24-6.25-.19-1.96-.27-3.92-.29-5.87z"/><path fill="#bab9b3" d="M464.05 358.99c2.03-.95 4-2 6.01-3-.38 4.04-2.07 9.12-6.88 9.38.31-2.13.58-4.26.87-6.38z"/></svg>