<?xml version="1.0"?>
<svg width="1600" height="1600" xmlns="http://www.w3.org/2000/svg" xmlns:svg="http://www.w3.org/2000/svg">
 <metadata id="metadata8">image/svg+xml</metadata>
 <g>
  <title>Layer 1</title>
  <g transform="matrix(2.0055036308039664,0,0,-2.0944098818096166,-83.25299501007127,1703.525484604323) " id="g10">
   <g transform="translate(-159.58544921875,-163.9622344970703) scale(0.10000000149011612) " id="g12">
    <path id="path16" d="m9112.34,5495.2l-192.01,0c-20.39,0 -36.92,16.53 -36.92,36.93c0,20.39 16.53,36.92 36.92,36.92l192.01,0c20.39,0 36.92,-16.53 36.92,-36.92c0,-20.4 -16.53,-36.93 -36.92,-36.93" fill-rule="nonzero" fill="#9cd3d3"/>
    <path id="path18" d="m9075.41,5532.07c0,20.38 16.55,36.92 36.93,36.92c20.39,0 36.92,-16.54 36.92,-36.92c0,-20.38 -16.53,-36.93 -36.92,-36.93c-20.38,0 -36.93,16.55 -36.93,36.93" fill-rule="nonzero" fill="#9cd3d3"/>
    <path id="path20" d="m9853.92,5495.14l-370.71,0c-20.38,0 -36.93,16.55 -36.93,36.93c0,20.38 16.55,36.92 36.93,36.92l370.71,0c20.4,0 36.93,-16.54 36.93,-36.92c0,-20.38 -16.53,-36.93 -36.93,-36.93" fill-rule="nonzero" fill="#9cd3d3"/>
    <path id="path22" d="m8716.9,6560.29c-15.08,0 -29.23,9.31 -34.7,24.3c-6.97,19.17 2.91,40.35 22.07,47.33l180.42,65.67c19.18,6.98 40.36,-2.91 47.34,-22.07c6.97,-19.16 -2.92,-40.35 -22.07,-47.32l-180.42,-65.67c-4.17,-1.52 -8.44,-2.24 -12.64,-2.24" fill-rule="nonzero" fill="#9cd3d3"/>
    <path id="path24" d="m8862.59,6650.28c-1.48,4.13 -2.22,8.42 -2.22,12.7c0,15.06 9.31,29.24 24.38,34.56c19.05,7.09 40.31,-2.81 47.25,-22c1.49,-4.14 2.22,-8.43 2.22,-12.71c0,-15.06 -9.3,-29.25 -24.22,-34.56c-4.28,-1.62 -8.42,-2.36 -12.7,-2.36c-15.06,0 -29.25,9.3 -34.71,24.37" fill-rule="nonzero" fill="#9cd3d3"/>
    <path id="path26" d="m9246.89,6753.22c-15.5,0 -29.39,9.75 -34.7,24.22c-6.95,19.2 2.94,40.48 22,47.41l349.61,127.17c18.75,6.79 40.62,-3.4 47.41,-22c1.47,-4.14 2.21,-8.43 2.21,-12.7c0,-15.36 -9.75,-29.4 -24.22,-34.57l-349.6,-127.32c-4.14,-1.47 -8.42,-2.21 -12.71,-2.21" fill-rule="nonzero" fill="#9cd3d3"/>
    <path id="path28" d="m8029.55,7373.93c-10.53,0 -21,4.48 -28.3,13.19c-13.11,15.62 -11.08,38.91 4.54,52.02l147.1,123.42c15.62,13.1 38.92,11.07 52.02,-4.55c13.11,-15.62 11.08,-38.92 -4.54,-52.02l-147.09,-123.42c-6.93,-5.81 -15.35,-8.64 -23.73,-8.64" fill-rule="nonzero" fill="#9cd3d3"/>
    <path id="path30" d="m8148.33,7510.61c-5.76,6.8 -8.57,15.07 -8.57,23.34c-0.14,10.63 4.28,21.27 13.14,28.65c15.66,13.14 38.86,11.08 52,-4.58c5.75,-6.79 8.56,-15.21 8.71,-23.49c0,-10.63 -4.43,-21.11 -13.3,-28.5c-6.94,-5.9 -15.36,-8.71 -23.63,-8.71c-10.63,0 -21.11,4.57 -28.35,13.29" fill-rule="nonzero" fill="#9cd3d3"/>
    <path id="path32" d="m9065.38,8243.19c-10.94,0 -21.27,4.72 -28.22,13.14c-6.34,7.54 -9.45,17.13 -8.57,26.89c0.9,9.89 5.47,18.75 13,25.1l296.29,248.57c15.06,12.7 39.43,10.49 51.98,-4.58c5.63,-6.49 8.73,-14.77 8.73,-23.33c0.14,-11.08 -4.73,-21.57 -13.16,-28.66l-296.27,-248.57c-6.65,-5.61 -15.07,-8.56 -23.78,-8.56zm-592.57,-497.3c-10.93,0 -21.26,4.87 -28.21,13.3c-6.34,7.53 -9.3,17.13 -8.57,26.88c0.9,9.89 5.63,18.75 13.16,25.11l296.27,248.56c14.93,12.56 39.43,10.49 52,-4.57c5.46,-6.5 8.57,-14.78 8.57,-23.34c0.14,-11.07 -4.74,-21.56 -13.16,-28.65l-296.27,-248.57c-6.65,-5.62 -15.07,-8.72 -23.79,-8.72" fill-rule="nonzero" fill="#9cd3d3"/>
    <path id="path34" d="m7132.22,7819.04c-6.27,0 -12.62,1.6 -18.43,4.96c-17.66,10.2 -23.71,32.78 -13.52,50.44l96.01,166.28c10.19,17.66 32.81,23.71 50.43,13.52c17.66,-10.2 23.72,-32.78 13.52,-50.44l-96,-166.29c-6.84,-11.84 -19.26,-18.47 -32.01,-18.47" fill-rule="nonzero" fill="#9cd3d3"/>
    <path id="path36" d="m7209.86,7990.33c-11.95,6.79 -18.6,19.2 -18.6,32.05c0,6.2 1.61,12.56 5.02,18.31c10.18,17.73 32.78,23.79 50.36,13.59c11.96,-6.94 18.61,-19.34 18.61,-32.2c-0.15,-6.2 -1.63,-12.55 -5.02,-18.31c-6.79,-11.82 -19.2,-18.47 -32.05,-18.47c-6.2,0 -12.56,1.64 -18.32,5.03" fill-rule="nonzero" fill="#9cd3d3"/>
    <path id="path38" d="m7835.94,9037.94c-6.49,0 -12.85,1.77 -18.46,5.03c-17.57,10.19 -23.62,32.78 -13.43,50.36l202.49,350.93c9.9,16.98 33.38,23.34 50.52,13.44c11.36,-6.5 18.46,-18.76 18.46,-32.06c0,-6.34 -1.78,-12.7 -5.04,-18.31l-202.49,-350.93c-6.63,-11.37 -18.89,-18.46 -32.05,-18.46zm-405.13,-701.7c-6.5,0 -12.85,1.62 -18.46,4.87c-8.56,5.02 -14.62,13 -17.13,22.45c-2.65,9.6 -1.33,19.49 3.69,28.06l202.49,350.78c9.75,16.99 33.38,23.48 50.51,13.59c11.38,-6.65 18.47,-18.9 18.47,-32.05c0,-6.5 -1.78,-12.85 -5.02,-18.32l-202.64,-350.92c-6.5,-11.37 -18.76,-18.46 -31.91,-18.46" fill-rule="nonzero" fill="#9cd3d3"/>
    <path id="path40" d="m6229.38,7983.57c-2.13,0 -4.28,0.19 -6.45,0.57c-20.09,3.54 -33.5,22.69 -29.96,42.78l33.34,189.09c3.55,20.08 22.77,33.5 42.76,29.95c20.1,-3.54 33.51,-22.69 29.96,-42.77l-33.33,-189.1c-3.16,-17.91 -18.74,-30.52 -36.32,-30.52" fill-rule="nonzero" fill="#9cd3d3"/>
    <path id="path42" d="m6256.18,8173.18c-17.87,3.25 -30.42,18.76 -30.42,36.33c0,2.07 0.14,4.28 0.59,6.5c3.55,20.08 22.6,33.53 42.68,29.99c17.87,-3.26 30.58,-18.76 30.58,-36.34c0,-2.07 -0.15,-4.28 -0.59,-6.5c-3.1,-17.87 -18.77,-30.42 -36.34,-30.42c-2.06,0 -4.28,0.14 -6.5,0.44" fill-rule="nonzero" fill="#9cd3d3"/>
    <path id="path44" d="m6451.14,9240.88c-2.21,0 -4.43,0.29 -6.49,0.59c-20.09,3.54 -33.53,22.75 -29.99,42.83l62.78,356.1c3.54,19.79 22.89,33.38 42.82,29.83c17.58,-3.1 30.43,-18.31 30.43,-36.18c0,-2.22 -0.14,-4.44 -0.44,-6.5l-62.78,-356.1c-3.24,-17.72 -18.46,-30.57 -36.33,-30.57zm-125.69,-712.2c-2.06,0 -4.28,0.3 -6.34,0.59c-20.09,3.55 -33.54,22.75 -29.99,42.83l62.77,356.11c3.39,19.79 22.75,33.52 42.83,29.97c17.58,-3.1 30.43,-18.46 30.43,-36.33c0,-2.21 -0.14,-4.43 -0.59,-6.49l-62.77,-356.1c-3.1,-17.73 -18.32,-30.58 -36.34,-30.58" fill-rule="nonzero" fill="#9cd3d3"/>
    <path id="path46" d="m5362.51,7922.54c-17.58,0 -33.16,12.61 -36.32,30.52l-33.33,189.09c-3.55,20.08 9.86,39.23 29.95,42.77c20.16,3.54 39.23,-9.87 42.77,-29.95l33.34,-189.09c3.54,-20.08 -9.87,-39.23 -29.95,-42.77c-2.17,-0.38 -4.33,-0.57 -6.46,-0.57" fill-rule="nonzero" fill="#9cd3d3"/>
    <path id="path48" d="m5292.9,8142.16c-0.43,2.21 -0.59,4.44 -0.59,6.5c0,17.57 12.56,33.09 30.43,36.33c20.08,3.55 39.29,-9.89 42.83,-29.98c0.45,-2.21 0.59,-4.43 0.59,-6.5c0,-17.57 -12.7,-33.23 -30.57,-36.33c-2.21,-0.29 -4.28,-0.59 -6.35,-0.59c-17.58,0 -33.23,12.7 -36.34,30.57" fill-rule="nonzero" fill="#9cd3d3"/>
    <path id="path50" d="m5138.71,9192.14c-18.02,0 -33.23,12.85 -36.33,30.42l-63.51,360.24c-0.45,2.07 -0.59,4.28 -0.59,6.49c0,17.87 12.84,33.09 30.57,36.19c19.94,3.54 39.14,-10.04 42.69,-29.83l63.5,-360.24c1.78,-9.75 -0.44,-19.49 -6.06,-27.62c-5.75,-7.97 -14.17,-13.43 -23.92,-15.06c-2.07,-0.44 -4.28,-0.59 -6.35,-0.59zm127.02,-720.32c-18.02,0 -33.23,12.85 -36.33,30.42l-63.51,360.24c-0.45,2.21 -0.6,4.43 -0.6,6.5c0,17.87 12.85,33.08 30.43,36.18c19.94,3.55 39.43,-10.04 42.83,-29.83l63.51,-360.23c1.78,-9.75 -0.44,-19.5 -6.05,-27.63c-5.77,-7.97 -14.18,-13.43 -23.93,-15.06c-2.07,-0.44 -4.28,-0.59 -6.35,-0.59" fill-rule="nonzero" fill="#9cd3d3"/>
    <path id="path52" d="m4539.25,7662.61c-12.77,0 -25.18,6.62 -32.01,18.47l-96.01,166.28c-10.19,17.66 -4.14,40.24 13.52,50.44c17.64,10.23 40.25,4.15 50.44,-13.52l96,-166.28c10.2,-17.66 4.15,-40.24 -13.52,-50.44c-5.81,-3.36 -12.16,-4.95 -18.42,-4.95" fill-rule="nonzero" fill="#9cd3d3"/>
    <path id="path54" d="m4411.16,7847.36c-3.25,5.76 -4.88,12.11 -4.88,18.32c0,12.84 6.65,25.25 18.47,32.19c17.72,10.19 40.32,4.14 50.36,-13.59c3.39,-5.76 5.02,-12.11 5.02,-18.31c0,-12.85 -6.65,-25.25 -18.46,-32.2c-5.76,-3.25 -12.11,-4.87 -18.46,-4.87c-12.71,0 -25.11,6.65 -32.05,18.46" fill-rule="nonzero" fill="#9cd3d3"/>
    <path id="path56" d="m3898.5,8772.53l0,0c-13.14,0 -25.4,7.09 -32.05,18.46l-181.66,314.45c-3.11,5.61 -4.88,11.97 -4.88,18.31c0,13.29 7.09,25.55 18.46,32.2c17.14,9.75 40.62,3.4 50.37,-13.58l181.66,-314.45c4.88,-8.57 6.21,-18.61 3.7,-28.06c-2.51,-9.61 -8.72,-17.58 -17.28,-22.45c-5.47,-3.25 -11.82,-4.88 -18.32,-4.88zm363.19,-629.04c-13.15,0 -25.41,6.94 -32.05,18.47l-181.52,314.44c-3.25,5.61 -5.03,11.96 -5.03,18.31c0,13.3 7.09,25.56 18.47,32.21c17.13,9.74 40.61,3.39 50.51,-13.6l181.52,-314.44c4.87,-8.57 6.21,-18.61 3.69,-28.07c-2.51,-9.6 -8.71,-17.57 -17.13,-22.45c-5.76,-3.24 -12.11,-4.87 -18.46,-4.87" fill-rule="nonzero" fill="#9cd3d3"/>
    <path id="path58" d="m3796.88,7168.09c-8.38,0 -16.8,2.83 -23.71,8.64l-147.09,123.42c-15.62,13.1 -17.66,36.39 -4.55,52.01c13.09,15.62 36.39,17.67 52.02,4.55l147.08,-123.41c15.62,-13.1 17.66,-36.4 4.55,-52.02c-7.3,-8.7 -17.77,-13.19 -28.3,-13.19" fill-rule="nonzero" fill="#9cd3d3"/>
    <path id="path60" d="m3626,7300.15c-8.71,7.38 -13.15,18.01 -13.15,28.65c0.16,8.27 2.96,16.54 8.72,23.33c13,15.66 36.34,17.72 51.99,4.58c8.72,-7.38 13.3,-18.02 13.14,-28.66c0,-8.26 -2.8,-16.53 -8.56,-23.33c-7.39,-8.71 -17.88,-13.29 -28.36,-13.29c-8.42,0 -16.84,2.95 -23.78,8.72" fill-rule="nonzero" fill="#9cd3d3"/>
    <path id="path62" d="m2704.38,8084.86c-8.57,0 -17,2.95 -23.64,8.56l-315.18,264.38c-8.42,7.09 -13.3,17.57 -13.15,28.65c0,8.57 3.1,16.84 8.57,23.48c12.55,14.92 36.92,17.14 51.99,4.44l315.18,-264.38c15.66,-13 17.58,-36.33 4.58,-51.99c-7.09,-8.42 -17.43,-13.14 -28.35,-13.14zm630.36,-528.91l-0.14,0c-8.57,0 -16.99,3.1 -23.64,8.57l-315.18,264.53c-8.42,7.09 -13.3,17.42 -13.15,28.5c0,8.57 3.1,16.98 8.57,23.49c12.7,15.06 37.07,17.12 52.14,4.57l315.03,-264.52c7.68,-6.35 12.26,-15.22 13.15,-24.96c0.74,-9.9 -2.21,-19.5 -8.57,-27.03c-7.09,-8.42 -17.28,-13.15 -28.21,-13.15" fill-rule="nonzero" fill="#9cd3d3"/>
    <path id="path64" d="m3267.43,6413.55c-4.19,0 -8.46,0.71 -12.62,2.23l-180.44,65.67c-19.16,6.98 -29.04,28.16 -22.06,47.33c6.98,19.16 28.17,29.07 47.32,22.06l180.43,-65.67c19.16,-6.97 29.04,-28.16 22.07,-47.32c-5.46,-14.99 -19.62,-24.3 -34.7,-24.3" fill-rule="nonzero" fill="#9cd3d3"/>
    <path id="path66" d="m3074.35,6481.46c-14.91,5.47 -24.22,19.49 -24.22,34.56c-0.15,4.28 0.59,8.57 2.22,12.71c6.94,19.19 28.06,29.09 47.26,22.15c15.06,-5.47 24.22,-19.64 24.37,-34.71c0,-4.14 -0.74,-8.42 -2.22,-12.7c-5.46,-14.92 -19.64,-24.23 -34.71,-24.23c-4.28,0 -8.56,0.74 -12.7,2.22" fill-rule="nonzero" fill="#9cd3d3"/>
    <path id="path68" d="m2706.44,6617.78c-4.29,0 -8.56,0.75 -12.7,2.22l-380.62,138.54c-14.47,5.32 -24.22,19.2 -24.22,34.56c0,4.28 0.74,8.57 2.22,12.7c6.64,18.61 28.5,28.95 47.26,22.16l380.61,-138.54c9.31,-3.4 16.69,-10.19 20.83,-19.2c4.29,-8.86 4.72,-18.91 1.33,-28.21c-5.32,-14.48 -19.35,-24.23 -34.71,-24.23" fill-rule="nonzero" fill="#9cd3d3"/>
    <path id="path70" d="m3155.86,5495.2l-192.01,0c-20.39,0 -36.92,16.53 -36.92,36.93c0,20.39 16.53,36.92 36.92,36.92l192.01,0c20.4,0 36.92,-16.53 36.92,-36.92c0,-20.4 -16.52,-36.93 -36.92,-36.93" fill-rule="nonzero" fill="#9cd3d3"/>
    <path id="path72" d="m2926.95,5532.07c0,20.52 16.55,36.92 36.93,36.92c20.38,0 36.92,-16.4 36.92,-36.92c0,-20.38 -16.54,-36.93 -36.92,-36.93c-20.38,0 -36.93,16.55 -36.93,36.93" fill-rule="nonzero" fill="#9cd3d3"/>
    <path id="path74" d="m2554.9,5495.14l-408.82,0c-20.38,0 -36.93,16.69 -36.93,36.93c0,20.38 16.55,36.92 36.93,36.92l408.82,0c20.39,0 36.93,-16.54 36.93,-36.92c0,-20.24 -16.54,-36.93 -36.93,-36.93" fill-rule="nonzero" fill="#9cd3d3"/>
    <path id="path76" d="m3319.27,4602.24c-15.06,0 -29.21,9.29 -34.68,24.28c-6.99,19.15 2.86,40.35 22.02,47.35l180.36,65.87c19.1,6.94 40.35,-2.86 47.34,-22.02c7,-19.16 -2.85,-40.36 -22.02,-47.36l-180.35,-65.87c-4.18,-1.51 -8.46,-2.25 -12.67,-2.25" fill-rule="nonzero" fill="#9cd3d3"/>
    <path id="path78" d="m3284.53,4626.53c-1.48,4.14 -2.22,8.42 -2.22,12.71c0,15.07 9.3,29.25 24.37,34.56c19.05,7.09 40.32,-2.8 47.27,-21.85c1.47,-4.29 2.21,-8.57 2.21,-12.71c0,-15.06 -9.3,-29.24 -24.22,-34.7c-4.14,-1.64 -8.42,-2.23 -12.7,-2.23c-15.07,0 -29.25,9.31 -34.71,24.22" fill-rule="nonzero" fill="#9cd3d3"/>
    <path id="path80" d="m2628.6,4350.05c-15.5,0 -29.39,9.75 -34.7,24.21c-1.48,4.14 -2.22,8.43 -2.22,12.71c0,15.51 9.75,29.4 24.22,34.72l345.32,126.12c18.75,6.81 40.61,-3.54 47.4,-22.16c3.4,-9.14 2.96,-19.19 -1.17,-28.2c-4.14,-8.87 -11.52,-15.66 -20.83,-19.05l-345.31,-126.13c-4.14,-1.49 -8.42,-2.22 -12.71,-2.22" fill-rule="nonzero" fill="#9cd3d3"/>
    <path id="path82" d="m3960.3,3959.41c-10.54,0 -21,4.49 -28.3,13.19c-13.11,15.62 -11.07,38.91 4.55,52.02l147.08,123.43c15.62,13.11 38.91,11.06 52.02,-4.55c13.11,-15.62 11.07,-38.91 -4.55,-52.02l-147.08,-123.43c-6.92,-5.79 -15.35,-8.64 -23.72,-8.64" fill-rule="nonzero" fill="#9cd3d3"/>
    <path id="path84" d="m3932.03,3972.54c-5.76,6.94 -8.57,15.2 -8.72,23.48c0,10.63 4.43,21.26 13.3,28.65c15.51,13.01 38.85,11.07 51.98,-4.57c5.77,-6.8 8.57,-15.22 8.57,-23.49c0.15,-10.63 -4.43,-21.13 -13.14,-28.51c-6.94,-5.9 -15.37,-8.71 -23.78,-8.71c-10.49,0 -20.97,4.58 -28.21,13.15" fill-rule="nonzero" fill="#9cd3d3"/>
    <path id="path86" d="m3372.7,3466.38c-10.93,0 -21.26,4.73 -28.36,13.15c-5.46,6.63 -8.56,14.91 -8.56,23.48c-0.15,11.08 4.72,21.42 13.14,28.5l293.77,246.51c15.07,12.7 39.43,10.49 51.99,-4.44c6.35,-7.53 9.45,-17.12 8.57,-27.03c-0.89,-9.73 -5.47,-18.75 -13,-24.95l-293.92,-246.66c-6.64,-5.46 -15.07,-8.56 -23.63,-8.56" fill-rule="nonzero" fill="#9cd3d3"/>
    <path id="path88" d="m4679.99,3571.7c-6.26,0 -12.61,1.58 -18.42,4.94c-17.67,10.2 -23.72,32.79 -13.52,50.44l96,166.29c10.19,17.65 32.77,23.73 50.44,13.52c17.66,-10.2 23.72,-32.79 13.52,-50.44l-96,-166.29c-6.84,-11.84 -19.25,-18.46 -32.02,-18.46" fill-rule="nonzero" fill="#9cd3d3"/>
    <path id="path90" d="m4661.5,3576.7c-11.81,6.81 -18.46,19.21 -18.46,32.07c0.15,6.2 1.62,12.54 5.02,18.3c10.2,17.72 32.79,23.78 50.37,13.58c11.96,-6.93 18.61,-19.34 18.46,-32.19c0,-6.2 -1.48,-12.55 -4.88,-18.32c-6.79,-11.81 -19.2,-18.46 -32.05,-18.46c-6.2,0 -12.55,1.63 -18.46,5.02" fill-rule="nonzero" fill="#9cd3d3"/>
    <path id="path92" d="m4285.32,2887.99c-6.5,0 -12.85,1.63 -18.46,4.88c-11.52,6.65 -18.61,18.91 -18.46,32.21c0,6.34 1.62,12.69 4.87,18.3l197.32,341.78c9.9,16.98 33.38,23.48 50.51,13.59c17.58,-10.2 23.64,-32.79 13.59,-50.52l-197.47,-341.77c-6.5,-11.37 -18.76,-18.47 -31.9,-18.47" fill-rule="nonzero" fill="#9cd3d3"/>
    <path id="path94" d="m5403.38,3374.66c-18.01,3.1 -30.57,18.6 -30.57,36.18c0,2.23 0.15,4.29 0.44,6.51c3.55,20.08 22.75,33.52 42.83,29.97c17.88,-3.1 30.43,-18.6 30.58,-36.19c0,-2.06 -0.15,-4.28 -0.59,-6.49c-3.1,-17.87 -18.76,-30.58 -36.33,-30.58c-2.07,0 -4.29,0.15 -6.36,0.6" fill-rule="nonzero" fill="#9cd3d3"/>
    <path id="path96" d="m6974.27,3445.03c-12.75,0 -25.17,6.62 -32.01,18.46l-96,166.28c-10.2,17.65 -4.14,40.24 13.51,50.43c17.63,10.19 40.25,4.16 50.44,-13.51l96.01,-166.27c10.19,-17.66 4.14,-40.25 -13.52,-50.44c-5.81,-3.37 -12.16,-4.95 -18.43,-4.95" fill-rule="nonzero" fill="#9cd3d3"/>
    <path id="path98" d="m6942.23,3463.58c-3.39,5.75 -4.87,12.1 -4.87,18.3c-0.15,12.71 6.5,25.26 18.46,32.05c17.58,10.2 40.17,4.14 50.37,-13.43c3.4,-5.91 5.02,-12.26 5.02,-18.46c0,-12.71 -6.65,-25.26 -18.47,-32.05c-5.89,-3.4 -12.25,-5.03 -18.46,-5.03c-12.85,0.16 -25.25,6.65 -32.05,18.62" fill-rule="nonzero" fill="#9cd3d3"/>
    <path id="path100" d="m7359.33,2778.26c-13.29,0 -25.56,6.94 -32.05,18.32l-192.45,333.5c-5.02,8.56 -6.35,18.46 -3.69,28.05c2.51,9.46 8.57,17.44 17.13,22.31c17.14,9.9 40.62,3.54 50.37,-13.44l192.6,-333.35c3.24,-5.62 4.87,-11.96 4.87,-18.47c0,-13.14 -6.95,-25.4 -18.46,-32.05c-5.61,-3.24 -11.97,-4.87 -18.32,-4.87" fill-rule="nonzero" fill="#9cd3d3"/>
    <path id="path102" d="m7828.23,3785.39c-8.38,0 -16.81,2.83 -23.73,8.64l-147.09,123.43c-15.62,13.11 -17.66,36.39 -4.54,52.02c13.11,15.62 36.4,17.66 52.02,4.55l147.09,-123.43c15.62,-13.11 17.66,-36.39 4.55,-52.02c-7.3,-8.7 -17.77,-13.19 -28.3,-13.19" fill-rule="nonzero" fill="#9cd3d3"/>
    <path id="path104" d="m7804.49,3793.98c-8.72,7.38 -13.29,18.01 -13.14,28.64c0,8.28 2.79,16.55 8.56,23.48c13.14,15.67 36.48,17.59 51.99,4.59c8.87,-7.38 13.29,-18.03 13.29,-28.66c-0.14,-8.26 -2.95,-16.54 -8.71,-23.48c-7.24,-8.71 -17.72,-13.14 -28.21,-13.14c-8.42,0 -16.83,2.8 -23.78,8.57" fill-rule="nonzero" fill="#9cd3d3"/>
    <path id="path106" d="m8388.19,3315.58c-8.71,0 -17.13,3.1 -23.78,8.57l-279.89,234.98c-7.53,6.35 -12.26,15.22 -13.14,25.11c-0.74,9.75 2.22,19.35 8.57,26.88c12.55,15.07 36.92,17.13 51.98,4.58l280.03,-234.99c8.42,-7.09 13.3,-17.42 13.16,-28.5c0,-8.56 -3.11,-16.99 -8.72,-23.48c-6.95,-8.42 -17.29,-13.15 -28.21,-13.15" fill-rule="nonzero" fill="#9cd3d3"/>
    <path id="path108" d="m8629.67,4442.21c-4.15,0 -8.38,0.71 -12.51,2.2l-180.65,65.04c-19.2,6.91 -29.15,28.07 -22.24,47.26c6.91,19.19 28.1,29.12 47.25,22.24l180.65,-65.05c19.2,-6.91 29.15,-28.07 22.24,-47.25c-5.42,-15.06 -19.61,-24.44 -34.74,-24.44" fill-rule="nonzero" fill="#9cd3d3"/>
    <path id="path110" d="m8617.12,4444.42c-14.93,5.47 -24.23,19.5 -24.38,34.57c0,4.13 0.74,8.41 2.23,12.7c6.79,19.19 28.05,29.1 47.26,22.15c14.92,-5.31 24.22,-19.49 24.36,-34.41c0,-4.29 -0.73,-8.57 -2.2,-12.7c-5.47,-15.07 -19.65,-24.52 -34.72,-24.52c-4.14,0 -8.42,0.74 -12.55,2.21" fill-rule="nonzero" fill="#9cd3d3"/>
    <path id="path112" d="m9369.93,4175.62c-4.14,0 -8.43,0.74 -12.41,2.21l-370.13,133.37c-9.31,3.25 -16.84,10.04 -20.97,18.91c-4.29,9 -4.72,19.06 -1.33,28.36c6.65,18.61 28.5,28.95 47.26,22.15l370.12,-133.23c14.49,-5.3 24.38,-19.19 24.38,-34.55c0,-4.29 -0.73,-8.57 -2.22,-12.7c-5.16,-14.62 -19.2,-24.52 -34.7,-24.52" fill-rule="nonzero" fill="#9cd3d3"/>
    <path id="path114" d="m5173.83,6320c-34.85,-1.15 -66.67,22.62 -74.47,57.9c-164.37,743.89 -274.24,1760.51 -89.64,2382.84c11.6,39.09 52.67,61.43 91.81,49.79c39.09,-11.6 61.39,-52.7 49.79,-91.8c-147.74,-498.06 -112.39,-1382.81 92.26,-2308.97c8.8,-39.82 -16.35,-79.24 -56.17,-88.03c-4.55,-1.01 -9.09,-1.58 -13.58,-1.73" fill-rule="nonzero" fill="#d3353e"/>
    <path id="path116" d="m2389.22,8583.35l540.17,-639.57l1096.16,272.88l-559.56,676.9l-1076.77,-310.21" fill-rule="nonzero" fill="#b68028"/>
    <path id="path118" d="m3441.79,8955.94c-11.41,-1.44 -1018.89,-310.17 -1018.89,-310.17c0,0 -116.07,-36.08 -158.2,-88.3c-42.12,-52.23 10.13,-72.32 10.13,-72.32l137.14,-897.66l1111.74,278.93l-182.32,908.91l16.26,4.43l108.34,113.8c19.09,43.29 -12.8,63.81 -24.2,62.38" fill-rule="nonzero" fill="#f8ac34"/>
    <path id="path120" d="m2274.83,8485.15l0,0l-8.87,4.89c-5.81,3.94 -12.77,10.42 -15.93,19.87l1066.76,312.23l21.36,-30.67l-1063.32,-306.32" fill-rule="nonzero" fill="#eaa431"/>
    <path id="path122" d="m3441.79,8955.93c0,0 -124.58,-95.06 -134.28,-114.15c-4.63,-8.52 -10.58,-51.94 30.64,-50.31l12.27,3.54l108.14,90.75l14.09,13.75c12.26,35.6 -19.46,57.86 -30.86,56.42" fill-rule="nonzero" fill="#b68028"/>
    <path id="path124" d="m3989.14,8233.17l-531.26,653.43c8.17,42.23 -2.41,53.34 -15.18,54.16c-12.76,0.81 -113.53,-87.58 -124.09,-106.63c-11.06,-37.93 31.1,-33.9 31.1,-33.9l176.68,-877.51c0,0 394.64,144.98 462.75,310.45" fill-rule="nonzero" fill="#f4f5f5"/>
    <path id="path126" d="m3593.6,7973.51c-3.29,0 -6.31,2.19 -7.22,5.52l-209.33,764.8c-1.09,3.99 1.26,8.11 5.26,9.21c3.98,1.02 8.11,-1.26 9.21,-5.26l209.33,-764.79c1.09,-4 -1.26,-8.12 -5.26,-9.22l-1.99,-0.26" fill-rule="nonzero" fill="#d3d4d3"/>
    <path id="path128" d="m3648.66,8082.33c-3.11,0 -6.02,1.95 -7.09,5.06l-161.41,468.31c-1.35,3.91 0.73,8.18 4.64,9.53c3.93,1.35 8.18,-0.72 9.54,-4.64l161.41,-468.31c1.35,-3.92 -0.73,-8.19 -4.64,-9.54l-2.45,-0.41" fill-rule="nonzero" fill="#d3d4d3"/>
    <path id="path130" d="m3764.19,8068.85c-2.82,0 -5.5,1.58 -6.79,4.28l-336.85,710.27c-1.78,3.74 -0.18,8.22 3.56,9.99c3.75,1.78 8.22,0.18 9.99,-3.56l336.85,-710.27c1.78,-3.74 0.19,-8.22 -3.56,-9.99c-1.04,-0.49 -2.13,-0.72 -3.2,-0.72" fill-rule="nonzero" fill="#d3d4d3"/>
    <path id="path132" d="m3844.68,8147.18c-2.53,0 -5,1.28 -6.42,3.6l-299.54,492.84c-2.16,3.54 -1.03,8.16 2.51,10.31c3.55,2.14 8.17,1.02 10.3,-2.51l299.55,-492.84c2.15,-3.54 1.03,-8.16 -2.51,-10.31c-1.22,-0.74 -2.56,-1.09 -3.89,-1.09" fill-rule="nonzero" fill="#d3d4d3"/>
    <path id="path134" d="m3913.89,8194.22c-2.36,0 -4.67,1.11 -6.13,3.18l-439.41,621.15c-2.39,3.38 -1.59,8.06 1.8,10.46c3.37,2.39 8.05,1.58 10.45,-1.8l439.4,-621.16c2.4,-3.37 1.59,-8.05 -1.79,-10.45c-1.31,-0.93 -2.83,-1.38 -4.32,-1.38" fill-rule="nonzero" fill="#d3d4d3"/>
    <path id="path136" d="m3523.71,7866.42l13.42,2.96l-187.42,930.85l-11.56,-8.76l185.56,-925.05" fill-rule="nonzero" fill="#b68028"/>
    <path id="path138" d="m4025.55,8216.66l12.08,14.94l-564.98,667.91l-6.66,-5.95l559.56,-676.9" fill-rule="nonzero" fill="#b68028"/>
    <path id="path140" d="m5880.49,2236.76c-862.76,0 -1562.17,85.38 -1562.17,190.7c0,67.62 288.41,127.03 723.21,160.89c-24.61,-24.61 -48.56,-55.3 -71.32,-93.24c-60.22,-100.37 7.94,-132.34 119.22,-132.35c195.34,0 523.58,98.52 523.58,98.52l-19.04,153.68c92.91,2.1 188.63,3.2 286.52,3.2c97.21,0 192.38,-1.09 284.68,-3.16c-35.04,-27.9 -69.24,-66.82 -101.08,-119.89c-60.22,-100.37 7.94,-132.34 119.22,-132.35c195.34,0 523.58,98.52 523.58,98.52l-16.01,129.24c450.71,-33.45 751.78,-93.96 751.78,-163.06c0,-105.32 -699.4,-190.7 -1562.17,-190.7m685.43,359.85c0,0 -1.11,0.88 -3.24,2.45c0.94,-0.05 1.91,-0.11 2.84,-0.17l0.4,-2.28m-1093.88,0c0,0 -7.31,5.79 -20.42,14.27c5.88,0.21 11.9,0.41 17.81,0.61l2.61,-14.88" fill-rule="nonzero" fill="#7abcbd"/>
    <path id="path142" d="m5336.72,4615.22l-56.39,-924.73l191.71,-1093.88c0,0 -298.84,236.82 -501.83,-101.5c-165.94,-276.57 642.8,-33.83 642.8,-33.83l-152.25,1229.21l152.25,840.15l-276.29,84.58" fill-rule="nonzero" fill="#d3353e"/>
    <path id="path144" d="m6430.6,4615.22l-56.39,-924.73l191.71,-1093.88c0,0 -298.84,236.82 -501.83,-101.5c-165.94,-276.57 642.8,-33.83 642.8,-33.83l-152.24,1229.21l152.24,840.15l-276.29,84.58" fill-rule="nonzero" fill="#d3353e"/>
    <path id="path146" d="m6622.61,4065.56l0,0l22.45,123.91l0.01,-0.01l-22.46,-123.9m-221.82,60.81l8.42,138.11l0,0l-8.42,-138.11l0,0" fill-rule="nonzero" fill="#7abcbd"/>
    <path id="path148" d="m6622.61,4065.56c-52.14,26.34 -102.03,57.48 -148.8,93.49c-23.87,-12 -48.33,-22.65 -73.02,-32.68l8.42,138.11c21.85,9.11 43.4,19 64.6,29.65c53.47,-41.17 110.89,-76.19 171.25,-104.66l-22.45,-123.91" fill-rule="nonzero" fill="#c8333c"/>
    <path id="path150" d="m5302.2,4049.15l8.4,137.67l0,0l-8.4,-137.67l0,0" fill-rule="nonzero" fill="#7abcbd"/>
    <path id="path152" d="m5302.2,4049.15l8.4,137.67c84.74,27.23 165.45,66.55 240.43,117.37c6.35,-3.37 12.74,-6.67 19.15,-9.9l-23.16,-127.8c-76.33,-51.17 -158.52,-90.49 -244.82,-117.34" fill-rule="nonzero" fill="#c8333c"/>
    <path id="path154" d="m5091.12,7356.11c-5.67,57.73 -10.54,114.61 -14.61,170.75c0.03,0.01 0.07,0.01 0.11,0.02c4.07,-56.11 8.94,-113.07 14.6,-170.76c-0.04,0 -0.06,-0.01 -0.1,-0.01" fill-rule="nonzero" fill="#7abcbd"/>
    <path id="path156" d="m4947.15,7324.24c-5.55,54.9 -10.48,109.86 -14.75,164.72c46.79,16.54 94.98,29.21 144.11,37.9c4.07,-56.14 8.94,-113.02 14.61,-170.75c-48.91,-6.71 -97.06,-17.39 -143.97,-31.87" fill-rule="nonzero" fill="#c8333c"/>
    <path id="path158" d="m8463.78,5351.66c0,265.79 -134.55,500.15 -339.24,638.71c26.67,78.63 41.35,162.79 41.35,250.43c0,430.53 -349.01,779.53 -779.54,779.53c-82.88,0 -162.69,-13.04 -237.62,-37.01c-125.32,381.34 -484.05,656.79 -907.32,656.79c-327.12,0 -615.71,-164.54 -787.84,-415.28c-75.61,23.63 -156.02,36.38 -239.41,36.38c-400.66,0 -732.65,-293.86 -792.29,-677.8c-455.75,-72.37 -804.17,-466.99 -804.17,-943.11c0,-412.84 261.96,-764.46 628.71,-897.81c133.58,-293.47 429.18,-497.61 772.64,-497.61c198.41,0 380.76,68.26 525.28,182.34c138.6,-86.58 302.28,-136.78 477.75,-136.78c169.58,0 328.18,46.83 463.76,128.12c147.66,-133.62 343.44,-215.04 558.26,-215.04c292.47,0 549.52,150.98 697.96,379.11c402.81,25.31 721.72,359.85 721.72,769.03" fill-rule="nonzero" fill="#f4727f"/>
    <path id="path160" d="m6498.38,4546.52l56.77,-51.37c134.21,-121.44 307.85,-188.33 488.96,-188.33c247.49,0 476.04,124.17 611.37,332.15l28.3,43.5l51.81,3.26c350.41,22.02 624.89,314.52 624.89,665.93c0,221.82 -109.84,428.62 -293.84,553.17l-65.21,44.14l25.3,74.57c23.79,70.19 35.86,143.3 35.86,217.26c0,372.88 -303.35,676.24 -676.23,676.24c-70.2,0 -139.55,-10.8 -206.18,-32.11l-97.6,-31.21l-31.98,97.35c-115.14,350.35 -440.33,585.75 -809.19,585.75c-280.76,0 -543.44,-138.49 -702.68,-370.45l-43.18,-62.88l-72.8,22.75c-67.25,21.02 -137.44,31.67 -208.59,31.67c-346.8,0 -637.07,-248.28 -690.22,-590.36l-11.56,-74.36l-74.31,-11.8c-415.5,-65.98 -717.08,-419.7 -717.08,-841.09c0,-357.01 225.34,-678.8 560.72,-800.75l40.75,-14.82l17.97,-39.45c120.87,-265.53 387.25,-437.11 678.62,-437.11c169.06,0 328.57,55.37 461.28,160.12l57.06,45.06l61.66,-38.52c126.82,-79.23 273.11,-121.1 423.02,-121.1c144.89,0 286.89,39.22 410.64,113.42l65.67,39.37m545.73,-446.29c-207.43,0 -407.27,68.38 -570.3,193.9c-139.63,-70.18 -294.35,-106.99 -451.74,-106.99c-164.9,0 -326.35,40.29 -471.04,117.05c-157.32,-106.62 -339.81,-162.61 -531.98,-162.61c-357.74,0 -685.94,202.43 -847.91,519.29c-394.58,161.94 -656.74,550.2 -656.74,979.43c0,253.44 91,498.62 256.22,690.38c147.44,171.12 345.43,290.4 563.46,340.8c44.03,182.84 144.77,348.73 288.51,472.96c164.2,141.91 374.29,220.07 591.57,220.07c66.99,0 133.35,-7.33 198.14,-21.8c200.21,252.17 504.94,400.7 829.11,400.7c425.67,0 804.54,-252.3 970.98,-637.02c57.12,11.46 115.34,17.24 173.97,17.24c486.79,0 882.82,-396.04 882.82,-882.83c0,-71.11 -8.53,-141.58 -25.43,-210.38c203.73,-165.35 323.33,-413.86 323.33,-678.76c0,-442.98 -333.12,-814.5 -767.43,-867.4c-176.17,-241.39 -454.95,-384.03 -755.54,-384.03" fill-rule="nonzero" fill="#d3353e"/>
    <path id="path162" d="m7800.94,4484.41c0.1,0.02 0.16,0.02 0.26,0.04c-0.08,-0.01 -0.18,-0.03 -0.26,-0.04m1.3,0.17c0.02,0 0.07,0 0.09,0.01c-0.03,-0.01 -0.06,-0.01 -0.09,-0.01" fill-rule="nonzero" fill="#7abcbd"/>
    <path id="path164" d="m7813.72,4695.28c4.37,181.85 -20.34,398.97 -73.79,655.96c-8.94,42.97 18.65,85.04 61.61,93.98c5.47,1.14 10.91,1.68 16.28,1.68c36.88,0 69.9,-25.8 77.71,-63.29c41.52,-199.66 78.17,-421.79 79.05,-637.02c-50.47,-23.57 -104.37,-40.99 -160.86,-51.31" fill-rule="nonzero" fill="#e76b77"/>
    <path id="path166" d="m7790.44,4472.38c13.57,67.53 21.32,141.71 23.28,222.9c56.49,10.32 110.39,27.74 160.86,51.31c0.32,-77 -3.95,-153.1 -14.2,-226.99c-50.79,-16.33 -103.6,-28.21 -158.05,-35.01c-0.02,-0.01 -0.07,-0.01 -0.09,-0.01c-0.35,-0.05 -0.69,-0.09 -1.04,-0.13c-0.1,-0.02 -0.16,-0.02 -0.26,-0.04c-0.43,-0.05 -0.86,-0.1 -1.29,-0.15l0,0c-2.96,-4.07 -6.19,-7.87 -9.21,-11.88" fill-rule="nonzero" fill="#c8333c"/>
    <path id="path168" d="m7325.04,3508.07c-34.75,0 -66.67,22.99 -76.48,58.09c-11.81,42.28 12.88,86.11 55.14,97.91c380.81,106.4 611.74,267.08 705.97,491.2c113.35,269.62 30.23,642.63 -261.59,1173.9c-21.13,38.45 -7.07,86.76 31.39,107.9c38.49,21.09 86.78,7.06 107.91,-31.39c216.35,-393.9 442.43,-898.97 268.77,-1311.99c-114.25,-271.77 -379.1,-462.36 -809.68,-582.67c-7.16,-2 -14.36,-2.95 -21.43,-2.95" fill-rule="nonzero" fill="#d3353e"/>
    <path id="path170" d="m6660.91,5721.91c-39.5,0 -71.51,32.02 -71.51,71.52c0,168.61 -137.19,305.8 -305.81,305.8c-168.62,0 -305.8,-137.19 -305.8,-305.8c0,-39.5 -32.02,-71.52 -71.52,-71.52c-39.49,0 -71.51,32.02 -71.51,71.52c0,247.48 201.35,448.83 448.83,448.83c247.49,0 448.83,-201.35 448.83,-448.83c0,-39.5 -32.01,-71.52 -71.51,-71.52" fill-rule="nonzero" fill="#2e2d2d"/>
    <path id="path172" d="m5290.98,5721.91c-39.5,0 -71.51,32.02 -71.51,71.52c0,168.61 -137.19,305.8 -305.81,305.8c-168.62,0 -305.81,-137.19 -305.81,-305.8c0,-39.5 -32.01,-71.52 -71.51,-71.52c-39.5,0 -71.51,32.02 -71.51,71.52c0,247.48 201.35,448.83 448.83,448.83c247.49,0 448.83,-201.35 448.83,-448.83c0,-39.5 -32.01,-71.52 -71.51,-71.52" fill-rule="nonzero" fill="#2e2d2d"/>
    <path id="path174" d="m3565.99,8554.83l80.17,-142.27c1252.88,206.92 2532.73,238.61 3805.05,93.84l17.34,152.43c-1305.07,148.5 -2618.08,113.5 -3902.56,-104" fill-rule="nonzero" fill="#2e2d2d"/>
    <path id="path176" d="m5191.04,8884.91c-70.95,10.91 -161.51,-26.95 -196.75,-164.21c56.55,3.61 113.12,6.93 169.73,9.85c1.36,1.47 2.51,2.51 3.11,2.79c1.96,0.04 9.89,-2.75 18.21,-12.09c11.58,-12.97 17.18,-30.29 14.98,-46.32c-5.74,-41.98 23.63,-80.66 65.6,-86.4c4.03,-0.55 8.02,-0.77 11.97,-0.7c37.12,0.71 69.24,28.36 74.43,66.3c14.7,107.42 -60.67,215.26 -161.28,230.78" fill-rule="nonzero" fill="#d3353e"/>
    <path id="path178" d="m7371.54,9063.12l245.01,-800.51l1115.12,-180.36l-248.14,842.46l-1111.99,138.41" fill-rule="nonzero" fill="#b68028"/>
    <path id="path180" d="m8485.81,8991.57c-11.05,3.17 -1058.75,115.67 -1058.75,115.67c0,0 -120.9,12.5 -180.18,-18.94c-59.27,-31.45 -19.14,-70.48 -19.14,-70.48l-227.06,-879.22l1131.83,-180.92l189.95,907.35l16.69,-2.33l144.38,62.01c34.57,32.29 13.33,63.7 2.28,66.86" fill-rule="nonzero" fill="#f8ac34"/>
    <path id="path182" d="m8325.83,8881.14l-1098.09,136.69l-6.22,7.98c-3.8,5.91 -7.66,14.61 -6.84,24.53l1103.58,-132.6l7.57,-36.6" fill-rule="nonzero" fill="#eaa431"/>
    <path id="path184" d="m8485.81,8991.57c0,0 -151.93,-38.39 -168.36,-52.12c-7.6,-6.02 -30.16,-43.6 8.38,-58.31l12.67,-1.57l135.13,40.89l18.36,7.09c25.27,27.91 4.87,60.86 -6.18,64.02" fill-rule="nonzero" fill="#b68028"/>
    <path id="path186" d="m8704.69,8111.75l-231.36,809.74c24.12,35.62 18.77,49.99 7.35,55.76c-11.41,5.78 -138.83,-35.85 -156.03,-49.2c-25.1,-30.53 15.26,-43.41 15.26,-43.41l-182.78,-876.26c0,0 419.85,-21.96 547.56,103.37" fill-rule="nonzero" fill="#f4f5f5"/>
    <path id="path188" d="m8241.87,8028.02l-1.04,0.08c-4.1,0.56 -6.98,4.35 -6.4,8.45l108.42,785.48c0.56,4.11 4.49,6.93 8.46,6.4c4.1,-0.57 6.97,-4.35 6.4,-8.46l-108.43,-785.47c-0.51,-3.76 -3.74,-6.48 -7.41,-6.48" fill-rule="nonzero" fill="#d3d4d3"/>
    <path id="path190" d="m8335.3,8106.42l-0.56,0.02c-4.13,0.3 -7.24,3.89 -6.94,8.02l35.83,494.05c0.3,4.15 3.85,7.35 8.02,6.94c4.13,-0.3 7.24,-3.89 6.95,-8.02l-35.83,-494.05c-0.3,-3.95 -3.59,-6.96 -7.47,-6.96" fill-rule="nonzero" fill="#d3d4d3"/>
    <path id="path192" d="m8436.18,8048.58c-4.01,0 -7.34,3.17 -7.5,7.22l-30.28,785.5c-0.16,4.14 3.08,7.62 7.21,7.78c4.77,0.1 7.63,-3.08 7.79,-7.21l30.28,-785.5c0.16,-4.14 -3.08,-7.62 -7.21,-7.78l-0.29,-0.01" fill-rule="nonzero" fill="#d3d4d3"/>
    <path id="path194" d="m8540.97,8088.93c-3.66,0 -6.87,2.7 -7.41,6.44l-81.5,570.94c-0.59,4.1 2.27,7.9 6.37,8.48c3.97,0.63 7.88,-2.25 8.48,-6.36l81.51,-570.94c0.58,-4.1 -2.27,-7.9 -6.38,-8.49l-1.07,-0.07" fill-rule="nonzero" fill="#d3d4d3"/>
    <path id="path196" d="m8623.11,8104.95c-3.46,0 -6.56,2.41 -7.33,5.92l-159.59,743.94c-0.86,4.05 1.71,8.04 5.77,8.91c4,0.86 8.03,-1.71 8.91,-5.76l159.59,-743.94c0.87,-4.05 -1.71,-8.04 -5.77,-8.9l-1.58,-0.17" fill-rule="nonzero" fill="#d3d4d3"/>
    <path id="path198" d="m8132.51,7957.68l13.51,-2.56l193.89,929.52l-14.08,-3.5l-193.32,-923.46" fill-rule="nonzero" fill="#b68028"/>
    <path id="path200" d="m8731.67,8082.25l16.99,8.99l-256.67,836.31l-8.46,-2.84l248.14,-842.46" fill-rule="nonzero" fill="#b68028"/>
    <path id="path202" d="m3646.17,8405.07c-2.62,0 -5.16,1.37 -6.54,3.81l-80.18,142.27c-2.03,3.61 -0.75,8.18 2.85,10.21c3.61,2.05 8.2,0.76 10.22,-2.84l80.18,-142.27c2.03,-3.61 0.75,-8.18 -2.85,-10.22c-1.17,-0.66 -2.43,-0.96 -3.68,-0.96" fill-rule="nonzero" fill="#d3d4d3"/>
   </g>
  </g>
 </g>
</svg>