<?xml version="1.0"?>
<svg width="1600" height="1600" xmlns="http://www.w3.org/2000/svg" xmlns:svg="http://www.w3.org/2000/svg">
 <metadata id="metadata8">image/svg+xml</metadata>
 <defs>
  <clipPath clipPathUnits="userSpaceOnUse" id="clipPath22">
   <path d="m0,6552.86l8141.85,0l0,3150.95l-8141.85,0l0,-3150.95z" id="path20"/>
  </clipPath>
 </defs>
 <g>
  <title>Layer 1</title>
  <g id="g12" transform="matrix(0.2382023849208001,0,0,-0.213302290145432,-99.29196810691039,1683.4484700447547) ">
   <path fill="#7abcbd" fill-rule="nonzero" d="m4359.8897,433.84699c-843.57,0 -1527.42,83.48 -1527.42,186.46c0,66.12 282,124.21 707.12,157.31c-24.06,-24.07 -47.48,-54.07 -69.73,-91.16c-58.89,-98.14 7.76,-129.4 116.56,-129.41c191,0 511.93,96.33 511.93,96.33l-18.61,150.25c90.84,2.06 184.43,3.13 280.15,3.13c95.04,0 188.1,-1.06 278.34,-3.08c-34.26,-27.28 -67.69,-65.33 -98.83,-117.22c-58.88,-98.14 7.77,-129.4 116.57,-129.41c191,0 511.93,96.33 511.93,96.33l-15.65,126.37c440.68,-32.71 735.05,-91.88 735.05,-159.44c0,-102.98 -683.85,-186.46 -1527.41,-186.46m670.18,351.84c0,0 -1.09,0.86 -3.17,2.4c0.91,-0.05 1.87,-0.11 2.78,-0.16l0.39,-2.24m-1069.55,0c0,0 -7.14,5.67 -19.97,13.96c5.76,0.2 11.64,0.4 17.42,0.59l2.55,-14.55" id="path92"/>
   <path fill="#d3353e" fill-rule="nonzero" d="m1871.2897,3062.26699c-86.77,0 -172.3,12.57 -255.35,41.06c-272.66,93.52 -476.08,339.31 -621.87,751.41c-14.31,40.45 6.88,84.84 47.33,99.16c40.48,14.28 84.85,-6.89 99.16,-47.34c128.94,-364.45 300.92,-579.12 525.79,-656.25c270.52,-92.77 628.9,12.93 1127.88,332.67c36.13,23.16 84.18,12.64 107.33,-23.5c23.15,-36.12 12.63,-84.17 -23.49,-107.33c-295.82,-189.55 -660.63,-389.88 -1006.78,-389.88" id="path94"/>
   <path fill="#d3353e" fill-rule="nonzero" d="m3828.2097,2759.38699l-55.13,-904.15l187.44,-1069.55c0,0 -292.19,231.55 -490.66,-99.23c-162.25,-270.42 628.49,-33.08 628.49,-33.08l-148.85,1201.86l148.85,821.46l-270.14,82.69" id="path96"/>
   <path fill="#d3353e" fill-rule="nonzero" d="m4897.7597,2759.38699l-55.13,-904.15l187.44,-1069.55c0,0 -292.19,231.55 -490.67,-99.23c-162.25,-270.42 628.5,-33.08 628.5,-33.08l-148.85,1201.86l148.85,821.46l-270.14,82.69" id="path98"/>
   <path fill="#7abcbd" fill-rule="nonzero" d="m2059.0497,3239.90699c-0.01,0.04 -0.03,0.08 -0.05,0.12c36.23,7.91 73.63,17.96 112.21,30.17c0.02,-0.02 0.05,-0.08 0.06,-0.1c-38.59,-12.22 -75.99,-22.28 -112.22,-30.19" id="path100"/>
   <path fill="#c8333c" fill-rule="nonzero" d="m2136.0597,3097.32699c-29.26,45.39 -55.07,93.04 -77.01,142.58c36.23,7.91 73.63,17.97 112.22,30.19c25.75,-47.57 55.17,-93.08 87.93,-136.05c-40.9,-14.04 -82,-26.4 -123.14,-36.72" id="path102"/>
   <path fill="#7abcbd" fill-rule="nonzero" d="m4868.6097,2281.41699l8.24,135.04l0,0.01l-8.24,-135.05l0,0" id="path104"/>
   <path fill="#c8333c" fill-rule="nonzero" d="m5085.4997,2221.96699c-50.99,25.75 -99.76,56.2 -145.49,91.41c-23.35,-11.73 -47.26,-22.15 -71.4,-31.96l8.24,135.05c21.36,8.9 42.43,18.56 63.16,28.98c52.28,-40.25 108.42,-74.49 167.44,-102.34l-21.95,-121.14" id="path106"/>
   <path fill="#7abcbd" fill-rule="nonzero" d="m3794.4597,2205.92699l8.21,134.59l0,0l-8.21,-134.59l0,0" id="path108"/>
   <path fill="#c8333c" fill-rule="nonzero" d="m3794.4597,2205.92699l8.21,134.59c82.85,26.63 161.77,65.08 235.09,114.76c6.21,-3.29 12.45,-6.52 18.72,-9.67l-22.65,-124.96c-74.63,-50.04 -154.99,-88.48 -239.37,-114.72" id="path110"/>
   <path fill="#f4727f" fill-rule="nonzero" d="m6824.17352,3436.01255c0,259.87 -131.5,489.02 -331.7,624.5c26.1,76.87 40.5,159.16 40.5,244.85c0,420.95 -341.3,762.19 -762.23,762.19c-81.05,0 -159.08,-12.76 -232.35,-36.19c-122.52,372.86 -473.27,642.18 -887.13,642.18c-319.83,0 -602,-160.87 -770.31,-406.04c-73.93,23.1 -152.55,35.57 -234.09,35.57c-391.74,0 -716.34,-287.32 -774.65,-662.72c-445.62,-70.76 -786.29,-456.6 -786.29,-922.13c0,-403.65 256.14,-747.45 614.73,-877.84c130.6,-286.94 419.63,-486.54 755.45,-486.54c193.99,0 372.29,66.75 513.59,178.29c135.53,-84.66 295.55,-133.74 467.12,-133.74c165.81,0 320.89,45.79 453.45,125.27c144.37,-130.64 335.8,-210.25 545.84,-210.25c285.96,0 537.27,147.61 682.47,370.68c393.8,24.74 705.6,351.83 705.6,751.92" id="path112"/>
   <path fill="#d3353e" fill-rule="nonzero" d="m4964.0197,2692.22699l55.51,-50.23c131.23,-118.74 301,-184.14 478.09,-184.14c241.98,0 465.46,121.41 597.76,324.76l27.7,42.53l50.6,3.18c342.6,21.54 611,307.54 611,651.12c0,216.89 -107.4,419.08 -287.3,540.86l-63.7,43.17l24.7,72.9c23.3,68.64 35.1,140.11 35.1,212.43c0,364.59 -296.6,661.2 -661.23,661.2c-68.63,0 -136.45,-10.56 -201.59,-31.39l-95.43,-30.52l-31.27,95.18c-112.57,342.56 -430.53,572.72 -791.19,572.72c-274.51,0 -531.34,-135.41 -687.05,-362.21l-42.21,-61.48l-71.18,22.24c-65.76,20.55 -134.38,30.97 -203.95,30.97c-339.08,0 -622.9,-242.76 -674.87,-577.23l-11.29,-72.71l-72.66,-11.53c-406.27,-64.51 -701.13,-410.37 -701.13,-822.38c0,-349.06 220.32,-663.69 548.24,-782.93l39.85,-14.49l17.56,-38.57c118.18,-259.63 378.64,-427.39 663.53,-427.39c165.3,0 321.26,54.14 451.02,156.56l55.79,44.05l60.29,-37.66c124,-77.46 267.03,-118.4 413.61,-118.4c141.66,0 280.51,38.34 401.5,110.89l64.2,38.5m533.6,-436.36c-202.82,0 -398.21,66.85 -557.61,189.58c-136.53,-68.62 -287.81,-104.61 -441.69,-104.61c-161.24,0 -319.1,39.4 -460.56,114.44c-153.83,-104.24 -332.26,-158.99 -520.15,-158.99c-349.78,0 -670.68,197.93 -829.04,507.74c-385.81,158.34 -642.14,537.96 -642.14,957.64c0,247.8 88.97,487.53 250.52,675.03c144.16,167.31 337.75,283.94 550.92,333.22c43.06,178.77 141.55,340.96 282.1,462.43c160.55,138.75 365.97,215.17 578.41,215.17c65.5,0 130.39,-7.16 193.73,-21.32c195.75,246.57 493.71,391.79 810.66,391.79c416.21,0 786.65,-246.68 949.38,-622.85c55.85,11.21 112.77,16.86 170.1,16.86c475.93,0 863.23,-387.22 863.23,-863.19c0,-69.52 -8.4,-138.43 -24.9,-205.7c199.2,-161.66 316.1,-404.65 316.1,-663.66c0,-433.12 -325.7,-796.38 -750.3,-848.1c-172.3,-236.02 -444.86,-375.48 -738.76,-375.48" id="path114"/>
   <path fill="#e76b77" fill-rule="nonzero" d="m6250.0797,2837.66699c4.3,177.81 -19.9,390.1 -72.1,641.37c-8.8,42.02 18.2,83.15 60.2,91.9c5.4,1.11 10.7,1.64 15.9,1.64c36.1,0 68.4,-25.23 76,-61.88c40.6,-195.22 76.4,-412.41 77.3,-622.86c-49.3,-23.04 -102,-40.08 -157.3,-50.17" id="path116"/>
   <path fill="#c8333c" fill-rule="nonzero" d="m6227.3797,2619.73699c13.2,66.03 20.8,138.55 22.7,217.93c55.3,10.09 108,27.13 157.3,50.17c0.3,-75.28 -3.9,-149.69 -13.9,-221.94c-50.5,-16.23 -103,-27.95 -157.1,-34.55l0,0c-2.9,-3.98 -6.1,-7.69 -9,-11.61" id="path118"/>
   <path fill="#d3353e" fill-rule="nonzero" d="m5772.2897,1676.87699c-33.97,0 -65.18,22.48 -74.77,56.8c-11.55,41.33 12.59,84.19 53.91,95.73c372.35,104.03 598.15,261.13 690.25,480.27c110.8,263.62 29.6,628.33 -255.8,1147.78c-20.6,37.6 -6.9,84.84 30.7,105.5c37.7,20.63 84.9,6.91 105.5,-30.69c211.6,-385.13 432.6,-878.97 262.8,-1282.8c-111.7,-265.72 -370.6,-452.08 -791.63,-569.7c-7,-1.96 -14.04,-2.89 -20.96,-2.89" id="path120"/>
   <path fill="#2e2d2d" fill-rule="nonzero" d="m5167.9497,3751.46699c-38.62,0 -69.93,31.3 -69.93,69.92c0,164.87 -134.14,299.01 -299,299.01c-164.87,0 -299,-134.14 -299,-299.01c0,-38.62 -31.31,-69.92 -69.93,-69.92c-38.61,0 -69.92,31.3 -69.92,69.92c0,241.98 196.87,438.85 438.85,438.85c241.98,0 438.85,-196.87 438.85,-438.85c0,-38.62 -31.31,-69.92 -69.92,-69.92" id="path122"/>
   <path fill="#2e2d2d" fill-rule="nonzero" d="m3828.4897,3751.46699c-38.62,0 -69.92,31.3 -69.92,69.92c0,164.87 -134.14,299.01 -299,299.01c-164.87,0 -299.01,-134.14 -299.01,-299.01c0,-38.62 -31.3,-69.92 -69.92,-69.92c-38.62,0 -69.92,31.3 -69.92,69.92c0,241.98 196.87,438.85 438.85,438.85c241.97,0 438.84,-196.87 438.84,-438.85c0,-38.62 -31.3,-69.92 -69.92,-69.92" id="path124"/>
   <path fill="#f9a72c" fill-rule="nonzero" d="m1166.5097,4480.31699c-196.76,236.03 -611.85,145.31 -661.64,605.16c-33.49,309.97 403.69,705.08 779.35,370.4c288.97,-257.4 73.39,-462.71 218.7,-761.01l-336.41,-214.55" id="path126"/>
   <path fill="#2e2d2d" fill-rule="nonzero" d="m1258.8997,4539.20699c-14.66,13.46 -27.95,30.17 -41.1,43.8c-33.61,34.91 -69,67.93 -102.16,103.27c-73.58,78.47 -149.06,154.67 -213.23,241.4c-44.47,60.12 -90,119.15 -105.11,193.9c-8.18,40.41 37.34,10.45 50.36,0.94c20.88,-15.32 40.38,-31.27 58.95,-49.24c21.46,-20.77 40.59,-43.83 60.04,-66.61c8.87,-13.71 19.2,-25.89 31.41,-35.37l0.3,-0.32l0.08,0.07c1.03,-0.86 2.07,-1.71 3.16,-2.47c14.9,-10.59 30.1,12.39 18.5,24.65c-12.42,13.02 -24.32,26.53 -36.17,40.04c-27.56,45.26 -43.18,111.22 -47.76,152.84c-5.58,50.67 60.9,-26.5 70.01,-37.04c7.5,-8.64 14.92,-17.86 22.21,-27.29c10.25,-23.13 23.35,-44.58 41.19,-57.49c13.07,-9.41 28.34,8.89 21.06,21.34c-4.73,8.13 -13.37,22.47 -24.59,39.31c-1.38,3.88 -2.92,7.74 -5,11.4c-13.32,23.12 -22.4,46.82 -30.77,71.99c-7.34,22.15 -14.22,44.42 -19.21,67.2c-6.97,31.93 13,31.75 31.78,9.31c17.23,-20.62 33.99,-40.06 48.18,-63.03c25.62,-41.42 46.81,-87.11 69.25,-130.38c46.76,-90.25 94.79,-179.99 143.43,-269.27c34.47,-63.11 63.6,-128.94 95.34,-193.54l-140.15,-89.41zm343.07,1.67c0,0 22.85,75.63 -44.96,70.9c0,0 25.76,87.32 -54.09,83.09l-78.82,-50.3c-49.31,94.99 -94.12,192.62 -143.49,287.3c-30.64,58.66 -62.39,116.82 -93.54,175.2c-30.65,57.7 -57.68,119.43 -97.53,171.45c-20.95,27.39 -46.28,65.1 -84.62,64.07c-26.02,-0.72 -28.49,-32.98 -27.32,-51.88c1.61,-26.18 9.63,-52.43 18.29,-77.84c-30.25,29.05 -61.22,45.08 -83.19,22.01c-26.8,-28.05 2.24,-102.99 12,-131.88c0.81,-2.45 1.71,-4.94 2.51,-7.49c-11.33,11.4 -23.16,22.36 -35.78,32.59c-28.5,23.01 -62.69,56.93 -101.9,48.87c-60.21,-12.34 0.77,-136.83 14.44,-161.7c63.95,-116.04 162.19,-217.32 253.94,-311.35c46.27,-47.42 92.2,-95.41 138.18,-143.09c9.59,-9.98 21.49,-25.14 34.73,-39.48l-64.31,-41.03c0,0 -45.37,-66.81 50.29,-86.88c0,0 -39.74,-67.79 44.65,-75.55c0,0 -30.32,-69.46 49.69,-62.67l68.21,39.6l91.13,-26.74l89.4,52.28l17.03,93.93l62.76,45.17c0,0 50.95,81.43 -37.7,81.42" id="path128"/>
   <path fill="#fbdca5" fill-rule="nonzero" d="m640.4497,4909.02699c-5.72,35.17 -20.3,67.86 -28.4,102.53c-6.1,26.03 -7.8,51.69 -8.58,78.33c-0.82,28.38 -2.28,58.04 -1.4,86.28c0.31,9.69 -10.5,15.62 -17.53,7.68c-22.28,-25.33 -28.73,-51.63 -28.43,-85.26c0.26,-27.47 2.09,-54.56 7.69,-81.47c8.81,-42.08 24.45,-83.33 48.21,-119.21c8.54,-12.94 30.91,-4.19 28.44,11.12" id="path130"/>
   <path fill="#fbdca5" fill-rule="nonzero" d="m618.5997,5283.61699l-1.03,0.16c1.77,-0.54 3.53,-1.05 5.33,-1.58c-8.21,2.9 -18.77,4.91 -25.93,-1.93c3.45,1.36 6.98,2.71 10.44,4.08l-0.68,-0.12c-7.43,-1.16 -13.76,-5.27 -16.85,-12.3c-2.89,-6.66 -2.18,-14.95 2.39,-20.73l0.39,-0.53c-1.35,3.49 -2.74,6.98 -4.09,10.47c0.69,-8.7 6.89,-15.96 14.82,-19.09c8.44,-3.34 17.44,-1.87 24.66,3.35c6,4.33 9.21,12.01 8.47,19.32c-0.93,8.9 -8.48,18.25 -17.92,18.9" id="path132"/>
   <path fill="#fbdca5" fill-rule="nonzero" d="m1387.1597,5042.01699c17.75,3.13 18.07,27.21 17.91,41.01c-0.22,21.35 -2.78,42.95 -4.47,64.22c-1.48,18.38 -2.66,38.16 -8.8,55.65c-4.39,12.7 -18.66,34.14 -35.01,29.66c-13.23,-3.59 -11.73,-26.03 -10.69,-36.03c2.08,-20.39 6.59,-40.38 8.4,-60.91c1.75,-19.63 4.11,-39.18 7.32,-58.63c2.25,-13.71 5.83,-38.42 25.34,-34.97" id="path134"/>
   <path fill="#f9a72c" fill-rule="nonzero" d="m2949.9897,6785.22699c167.56,257.58 -41.45,627.5 383.3,810.6c286.34,123.35 792.74,-177.97 583.63,-635.59c-160.81,-351.99 -420.53,-206.48 -662.77,-433.25l-304.16,258.24" id="path136"/>
   <path fill="#2e2d2d" fill-rule="nonzero" d="m3033.4897,6714.29699c8.55,17.98 20.59,35.6 29.75,52.19c23.46,42.4 44.58,85.95 68.57,128.05c53.3,93.43 103.88,188.02 167.84,274.9c44.35,60.22 87.34,121.11 154.32,157.59c36.2,19.72 20.99,-32.61 15.75,-47.86c-8.5,-24.46 -17.99,-47.8 -29.69,-70.83c-13.53,-26.64 -29.92,-51.72 -45.96,-77.01c-10.49,-12.51 -19.09,-25.98 -24.55,-40.44l-0.21,-0.38l0.08,-0.05c-0.51,-1.25 -1.01,-2.49 -1.42,-3.76c-5.73,-17.35 20.71,-25.11 29.01,-10.41c8.78,15.71 18.18,31.06 27.61,46.36c35.12,39.68 93.55,74.05 131.97,90.69c46.77,20.26 -7.38,-66.01 -14.77,-77.82c-6.04,-9.71 -12.66,-19.52 -19.53,-29.26c-19.08,-16.62 -35.72,-35.46 -42.8,-56.31c-5.14,-15.26 16.85,-24.46 26.6,-13.83c6.38,6.91 17.53,19.39 30.32,35.08c3.3,2.46 6.54,5.07 9.42,8.13c18.17,19.55 38.14,35.21 59.72,50.62c19.01,13.55 38.26,26.68 58.56,38.17c28.46,16.07 34.17,-3.07 18.27,-27.63c-14.64,-22.54 -28.27,-44.29 -46.04,-64.61c-32.03,-36.7 -69.45,-70.41 -104.18,-104.61c-72.47,-71.28 -144.07,-143.61 -215.05,-216.41c-50.15,-51.53 -104.47,-98.77 -156.84,-148.14l-126.75,107.58zm102.7,-327.35c0,0 79,0.46 54.5,63.87c0,0 91.03,1.11 63.46,76.17l-71.29,60.5c76.24,75.1 156.33,146.7 232.25,221.77c47.03,46.57 93.24,94.06 139.86,141.02c46.1,46.3 97.13,90.32 135.09,143.72c20,28.1 48.57,63.42 36.29,99.75c-8.36,24.65 -39.92,17.51 -57.63,10.82c-24.54,-9.26 -47.27,-24.65 -68.99,-40.42c18.84,37.47 25.03,71.79 -3.49,85.98c-34.7,17.35 -97.75,-32.49 -122.48,-50.32c-2.11,-1.5 -4.22,-3.1 -6.41,-4.61c7.55,14.18 14.54,28.72 20.59,43.8c13.6,34.01 35.92,76.68 16.67,111.78c-29.53,53.89 -130.52,-41.07 -150.26,-61.46c-92.05,-95.31 -159.87,-219.03 -222.7,-334.42c-31.67,-58.18 -63.99,-116.22 -96.01,-174.21c-6.71,-12.11 -17.69,-27.95 -27.49,-44.82l-58.16,49.36c0,0 -77.22,23.67 -68.2,-73.65c0,0 -76.49,17.98 -59.04,-64.94c0,0 -75.31,8.5 -45.24,-65.95l57.95,-53.51l1.3,-94.97l76.29,-70.02l94.78,11.4l61.67,-46.66c0,0 92.82,-24.69 66.69,60.02" id="path138"/>
   <path fill="#fbdca5" fill-rule="nonzero" d="m3204.6297,7414.26699c31.93,15.83 58.87,39.39 89.62,57.36c23.07,13.5 47.1,22.68 72.31,31.27c26.89,9.15 54.8,19.29 82.04,26.77c9.36,2.56 11.83,14.64 2.18,19.02c-30.77,13.82 -57.81,12.23 -89.86,2.04c-26.17,-8.35 -51.52,-18.08 -75.59,-31.36c-37.61,-20.82 -72.42,-47.92 -99.71,-81.2c-9.84,-11.97 5.11,-30.77 19.01,-23.9" id="path140"/>
   <path fill="#fbdca5" fill-rule="nonzero" d="m3556.1497,7545.53699l-0.15,1.03c0.01,-1.85 0.04,-3.68 0.06,-5.55c0.36,8.69 -0.84,19.37 -9.48,24.2c2.31,-2.9 4.65,-5.87 6.97,-8.77l-0.31,0.62c-3.3,6.75 -9.09,11.59 -16.72,12.47c-7.22,0.8 -14.93,-2.32 -19.11,-8.4l-0.39,-0.53c2.94,2.33 5.87,4.68 8.8,7c-8.11,-3.22 -13.22,-11.28 -13.87,-19.78c-0.71,-9.06 3.34,-17.22 10.47,-22.58c5.9,-4.46 14.19,-5.26 20.95,-2.4c8.23,3.5 14.94,13.47 12.78,22.69" id="path142"/>
   <path fill="#fbdca5" fill-rule="nonzero" d="m3551.7797,6739.90699c8.21,-16.04 31.32,-9.25 44.45,-5.03c20.35,6.5 40.23,15.31 60.06,23.2c17.13,6.83 35.68,13.78 50.59,24.8c10.83,7.95 27.11,27.9 18.02,42.21c-7.33,11.57 -28.33,3.54 -37.58,-0.41c-18.87,-8 -36.65,-18.2 -55.72,-25.97c-18.25,-7.46 -36.24,-15.48 -53.88,-24.28c-12.44,-6.19 -34.99,-16.89 -25.94,-34.52" id="path144"/>
   <path fill="#f9a72c" fill-rule="nonzero" d="m5827.3897,6618.07699c198.99,-234.17 613.19,-139.56 667.29,-598.91c36.4,-309.65 -397,-708.85 -775.82,-377.72c-291.37,254.67 -77.73,462 -225.84,758.93l334.37,217.7" id="path146"/>
   <path fill="#2e2d2d" fill-rule="nonzero" d="m5735.5697,6558.31699c14.78,-13.32 28.23,-29.9 41.51,-43.41c33.93,-34.6 69.63,-67.28 103.12,-102.3c74.28,-77.78 150.48,-153.27 215.48,-239.39c45,-59.7 91.1,-118.3 106.9,-192.91c8.6,-40.32 -37.2,-10.79 -50.3,-1.41c-21,15.13 -40.7,30.89 -59.4,48.69c-21.7,20.57 -41,43.44 -60.7,66.03c-9,13.64 -19.4,25.72 -31.7,35.09l-0.3,0.31l-0.1,-0.07c-1,0.85 -2.1,1.69 -3.2,2.44c-15,10.45 -30,-12.68 -18.3,-24.82c12.6,-12.91 24.6,-26.3 36.6,-39.71c28,-44.99 44.2,-110.8 49.2,-152.37c6,-50.62 -61.2,25.92 -70.4,36.38c-7.6,8.56 -15.1,17.71 -22.4,27.07c-10.5,23.04 -23.8,44.37 -41.8,57.11c-13.1,9.28 -28.2,-9.16 -20.8,-21.54c4.8,-8.09 13.6,-22.34 24.9,-39.08c1.5,-3.87 3,-7.72 5.1,-11.35c13.6,-23 22.9,-46.61 31.5,-71.7c7.5,-22.08 14.6,-44.28 19.8,-67.01c7.3,-31.87 -12.7,-31.88 -31.7,-9.62c-17.4,20.46 -34.3,39.75 -48.7,62.58c-26.05,41.18 -47.66,86.66 -70.51,129.72c-47.61,89.81 -96.47,179.1 -145.96,267.92c-35.05,62.77 -64.8,128.33 -97.15,192.63l139.31,90.72zm-343.05,-4.89c0,0 -22.13,-75.84 45.63,-70.48c0,0 -24.94,-87.55 54.87,-82.57l78.35,51.03c50.19,-94.52 95.92,-191.72 146.18,-285.93c31.18,-58.37 63.49,-116.23 95.18,-174.32c31.19,-57.41 58.81,-118.88 99.15,-170.52c21.2,-27.19 46.9,-64.66 85.2,-63.28c26,0.97 28.2,33.26 26.8,52.14c-1.8,26.16 -10.1,52.34 -19,77.66c30.5,-28.76 61.7,-44.49 83.4,-21.22c26.5,28.3 -3.2,102.96 -13.2,131.76c-0.9,2.44 -1.8,4.93 -2.6,7.46c11.4,-11.29 23.4,-22.14 36.1,-32.25c28.7,-22.74 63.2,-56.33 102.3,-47.91c60.1,12.9 -2,136.82 -15.9,161.56c-65.1,115.44 -164.3,215.78 -256.9,308.95c-46.7,46.98 -93.08,94.53 -139.5,141.78c-9.69,9.89 -21.73,24.94 -35.1,39.16l63.91,41.63c0,0 44.75,67.24 -51.09,86.4c0,0 39.09,68.16 -45.37,75.13c0,0 29.67,69.74 -50.28,62.2l-67.83,-40.25l-91.38,25.89l-88.9,-53.11l-16.15,-94.09l-62.33,-45.76c0,0 -50.19,-81.9 38.46,-81.06" id="path148"/>
   <path fill="#fbdca5" fill-rule="nonzero" d="m6357.4797,6194.33699c6,-35.13 20.9,-67.67 29.4,-102.27c6.3,-25.97 8.2,-51.62 9.3,-78.24c1,-28.37 2.8,-58.02 2.2,-86.26c-0.2,-9.7 10.6,-15.53 17.6,-7.52c22,25.53 28.2,51.9 27.6,85.52c-0.5,27.47 -2.6,54.54 -8.5,81.4c-9.2,41.99 -25.2,83.09 -49.3,118.75c-8.6,12.86 -30.9,3.9 -28.3,-11.38" id="path150"/>
   <path fill="#fbdca5" fill-rule="nonzero" d="m6382.8797,5819.95699l1,-0.14c-1.8,0.51 -3.6,1.01 -5.4,1.52c8.3,-2.82 18.9,-4.73 26,2.18c-3.5,-1.39 -7,-2.78 -10.4,-4.18l0.6,0.12c7.4,1.24 13.7,5.4 16.8,12.46c2.8,6.69 2,14.97 -2.6,20.71l-0.4,0.53c1.4,-3.48 2.8,-6.96 4.2,-10.43c-0.8,8.69 -7.1,15.89 -15,18.94c-8.5,3.27 -17.5,1.71 -24.7,-3.58c-5.9,-4.38 -9,-12.1 -8.2,-19.4c1,-8.88 8.6,-18.16 18.1,-18.73" id="path152"/>
   <path fill="#fbdca5" fill-rule="nonzero" d="m5612.0397,6054.31699c-17.72,-3.29 -17.82,-27.37 -17.53,-41.17c0.42,-21.35 3.19,-42.92 5.08,-64.18c1.65,-18.36 3.01,-38.13 9.31,-55.56c4.52,-12.65 19,-33.96 35.3,-29.33c13.19,3.72 11.49,26.14 10.35,36.13c-2.27,20.37 -6.97,40.32 -8.97,60.82c-1.94,19.62 -4.48,39.15 -7.87,58.57c-2.38,13.69 -6.2,38.36 -25.67,34.72" id="path154"/>
   <path fill="#7abcbd" fill-rule="nonzero" d="m5497.6197,2255.86699l0,0l0,0l0,0m-0.03,0c-0.37,0 -0.74,0 -1.1,0c0.36,0 0.74,0 1.1,0m1.32,0c0.05,0 0.09,0 0.14,0c-0.04,0 -0.09,0 -0.14,0m-2.91,0c-0.21,0 -0.41,0 -0.61,0c0.2,0 0.41,0 0.61,0m-1.28,0c-0.14,0 -0.28,0 -0.42,0c0.13,0 0.28,0 0.42,0m-1.19,0.01c-0.1,0 -0.2,0 -0.3,0c0.1,0 0.2,0 0.3,0m-1.22,0c-0.02,0 -0.06,0 -0.09,0c0.03,0 0.07,0 0.09,0" id="path156"/>
   <path fill="#e76b77" fill-rule="nonzero" d="m5497.6197,2457.85699c-141.68,0 -278.67,41.86 -394.99,119.4c-79.39,149.32 -138.5,305.29 2.17,524.55c74.73,116.4 232.06,187.71 391.25,187.71c199.61,0 402.13,-112.2 448.03,-388.32c25.5,-153.29 -7.1,-249 -59.98,-329.62c-113.35,-73.28 -246.84,-113.72 -386.48,-113.72" id="path158"/>
   <path fill="#c8333c" fill-rule="nonzero" d="m5497.6197,2255.86699c-0.01,0 -0.02,0 -0.03,0c-0.36,0 -0.74,0 -1.1,0c-0.17,0 -0.33,0 -0.49,0c-0.2,0 -0.41,0 -0.61,0c-0.22,0 -0.45,0 -0.67,0c-0.14,0 -0.29,0 -0.42,0c-0.26,0 -0.52,0 -0.77,0.01c-0.1,0 -0.2,0 -0.3,0c-0.3,0 -0.61,0 -0.92,0c-0.02,0 -0.06,0 -0.09,0c-89.59,0.53 -177.63,14.21 -261.75,39.87c-22.36,100.12 -78.95,189.56 -127.84,281.51c116.32,-77.54 253.31,-119.4 394.99,-119.4c139.64,0 273.13,40.44 386.48,113.72c-63.6,-96.94 -156.62,-172.04 -213.47,-299.09c-55.96,-10.72 -113.31,-16.53 -171.58,-16.62c-0.05,0 -0.09,0 -0.14,0c-0.43,0 -0.86,0 -1.29,0l0,0" id="path160"/>
   <path fill="#f9a72c" fill-rule="nonzero" d="m5297.5597,2309.14699c41.32,304.5 -305.81,549.51 -0.15,896.66c206.1,233.95 792.67,178.12 799.37,-324.97c5.2,-386.95 -291.84,-366.48 -413.84,-675.06l-385.38,103.37" id="path162"/>
   <path fill="#2e2d2d" fill-rule="nonzero" d="m5403.3697,2280.73699c0.04,19.9 3.39,40.99 4.57,59.9c3.08,48.36 3.55,96.76 7.23,145.08c8.23,107.25 13.5,214.38 34.17,320.26c14.34,73.4 27.16,146.84 72.11,208.45c24.29,33.31 32.92,-20.5 34.69,-36.53c2.79,-25.75 4.19,-50.9 3.46,-76.72c-0.84,-29.87 -4.93,-59.55 -8.61,-89.27c-4.14,-15.8 -6.15,-31.64 -4.9,-47.05l-0.03,-0.43l0.1,-0.02c0.06,-1.34 0.14,-2.68 0.32,-4c2.24,-18.14 29.46,-13.84 30.67,3c1.22,17.95 3.16,35.84 5.13,53.71c14.78,50.88 52.9,106.94 80.52,138.41c33.62,38.31 21.56,-62.83 19.92,-76.66c-1.3,-11.36 -3.1,-23.06 -5.14,-34.8c-10.14,-23.18 -17.12,-47.33 -14.61,-69.21c1.89,-15.99 25.7,-14.9 29.97,-1.12c2.81,8.97 7.55,25.03 12.4,44.68c1.93,3.63 3.75,7.38 5.04,11.37c8.06,25.44 19.42,48.14 32.34,71.3c11.39,20.38 23.18,40.48 36.61,59.54c18.85,26.7 32.2,11.84 28.33,-17.16c-3.59,-26.63 -6.62,-52.13 -13.99,-78.09c-13.26,-46.87 -32.67,-93.35 -49.44,-139.11c-35.02,-95.43 -68.82,-191.44 -101.85,-287.59c-23.3,-68.03 -52.2,-133.96 -78.43,-200.99l-160.58,43.05zm232.82,-251.99c0,0 71.22,34.2 21.96,81.04c0,0 81.81,39.93 24.79,95.99l-90.32,24.2c36.8,100.5 78.58,199.47 115.11,299.8c22.6,62.2 44.07,124.89 66.13,187.28c21.87,61.57 49.17,123.18 60.65,187.69c6.06,33.95 16.79,78.1 -9.85,105.69c-18.1,18.71 -43.57,-1.25 -56.72,-14.87c-18.22,-18.86 -32.19,-42.5 -45.09,-66.04c1.02,41.93 -8.06,75.6 -39.91,76.23c-38.79,0.85 -74.47,-71.17 -89.21,-97.87c-1.25,-2.25 -2.48,-4.6 -3.82,-6.91c0.76,16.05 0.86,32.18 -0.11,48.4c-2.26,36.56 -0.32,84.68 -32.73,108.17c-49.74,36.09 -100.43,-92.93 -109.55,-119.81c-42.45,-125.51 -50.86,-266.36 -58.3,-397.53c-3.75,-66.14 -8.15,-132.42 -12.3,-198.53c-0.88,-13.82 -4.03,-32.83 -5.68,-52.28l-73.68,19.75c0,0 -79.93,-11.62 -30.16,-95.74c0,0 -76.83,-16.45 -25.6,-83.95c0,0 -71.71,-24.52 -12.69,-78.97l75.26,-23.58l41.79,-85.29l98.91,-30.67l80.8,50.84l75.7,-15.81c0,0 94.47,17.37 34.62,82.77" id="path164"/>
   <path fill="#fbdca5" fill-rule="nonzero" d="m5258.7497,2986.66699c22.09,27.96 36.36,60.78 56.48,90.17c15.08,22.07 32.87,40.65 51.99,59.2c20.39,19.76 41.29,40.86 62.72,59.27c7.36,6.32 4.43,18.3 -6.17,18.12c-33.72,-0.65 -57.49,-13.66 -82.09,-36.57c-20.1,-18.74 -38.85,-38.37 -54.92,-60.68c-25.1,-34.9 -44.98,-74.29 -55.42,-116.03c-3.78,-15.04 17.78,-25.64 27.41,-13.48" id="path166"/>
   <path fill="#fbdca5" fill-rule="nonzero" d="m5520.3697,3255.64699l-0.58,0.87c0.8,-1.66 1.61,-3.32 2.44,-5c-3.4,8.02 -9.05,17.16 -18.93,17.83c3.33,-1.64 6.71,-3.32 10.06,-4.95l-0.55,0.42c-5.87,4.69 -13.18,6.6 -20.44,4.13c-6.88,-2.37 -12.51,-8.48 -13.69,-15.76l-0.13,-0.65c1.66,3.36 3.31,6.74 4.96,10.09c-5.95,-6.38 -7.12,-15.85 -4.08,-23.82c3.24,-8.48 10.39,-14.13 19.13,-15.93c7.23,-1.51 15.07,1.32 19.96,6.79c5.94,6.69 7.75,18.57 1.85,25.98" id="path168"/>
   <path fill="#fbdca5" fill-rule="nonzero" d="m5860.9297,2525.52699c14.28,-10.99 32.25,5.03 42.35,14.47c15.6,14.57 29.8,31.04 44.4,46.65c12.5,13.5 26.3,27.72 35.1,44.05c6.4,11.82 12.6,36.82 -1.8,45.86c-11.6,7.33 -27.1,-8.92 -33.8,-16.44c-13.6,-15.3 -25.3,-32.12 -39.2,-47.31c-13.3,-14.54 -26.18,-29.48 -38.36,-44.98c-8.6,-10.91 -24.41,-30.24 -8.69,-42.3" id="path170"/>
   <path fill="#cfebea" fill-rule="nonzero" d="m5836.9397,6918.32699c98.54,-35.48 174.94,-115.65 246.14,-189.32c26.1,-27.02 67.3,14.21 41.2,41.2c-78.9,81.65 -162.9,165.08 -271.85,204.31c-35.34,12.73 -50.56,-43.56 -15.49,-56.19" id="path172"/>
   <path fill="#cfebea" fill-rule="nonzero" d="m868.1297,4165.82699c70.73,-30.35 145.01,-44.42 221.88,-45.41c37.5,-0.48 37.52,57.79 0,58.27c-65.95,0.85 -131.57,11.32 -192.48,37.46c-34.08,14.62 -63.8,-35.56 -29.4,-50.32" id="path174"/>
   <path fill="#cfebea" fill-rule="nonzero" d="m1056.3197,4395.17699c-194.15,31.88 -388.35,133.25 -536.16,261.84c-28.18,24.51 -69.56,-16.54 -41.2,-41.2c154.93,-134.79 357.88,-243.33 561.87,-276.82c36.68,-6.03 52.46,50.11 15.49,56.18" id="path176"/>
   <path fill="#cfebea" fill-rule="nonzero" d="m5846.8797,2041.56699c11.54,50.41 37.94,94.8 70.2,134.75c23.3,28.92 -17.6,70.4 -41.2,41.21c-38.53,-47.72 -71.35,-100.05 -85.19,-160.47c-8.35,-36.5 47.81,-52.09 56.19,-15.49" id="path178"/>
   <path fill="#cfebea" fill-rule="nonzero" d="m5971.1797,2041.56699c9.3,36.54 34,69.27 64.3,91.35c30,21.86 1,72.44 -29.4,50.32c-42.6,-31.04 -77.9,-74.32 -91.1,-126.18c-9.2,-36.36 47,-51.87 56.2,-15.49" id="path180"/>
   <path fill="#cfebea" fill-rule="nonzero" d="m6078.5797,7055.92699c249.4,-124.15 404.7,-422.27 452.8,-686.98c6.7,-36.84 62.8,-21.24 56.2,15.49c-50.6,278.38 -217.7,591.42 -479.6,721.8c-33.4,16.67 -63,-33.58 -29.4,-50.31" id="path182"/>
   <path fill="#cfebea" fill-rule="nonzero" d="m2786.8997,7081.08699c3.63,263.58 116.65,622.62 403.32,697.02c36.27,9.41 20.9,65.63 -15.49,56.19c-313.33,-81.32 -442.1,-463.01 -446.1,-753.21c-0.51,-37.51 57.76,-37.53 58.27,0" id="path184"/>
   <path fill="#cfebea" fill-rule="nonzero" d="m2610.7997,7308.97699c-6.37,164.27 82.32,334.89 188.29,455.9c24.61,28.11 -16.44,69.48 -41.2,41.21c-115.83,-132.28 -212.34,-317.14 -205.35,-497.11c1.45,-37.37 59.72,-37.56 58.26,0" id="path186"/>
   <path fill="#cfebea" fill-rule="nonzero" d="m2822.1597,1896.75699c-8.58,0 -15.53,6.95 -15.53,15.54l0,141.45c0,8.59 6.95,15.54 15.53,15.54c8.59,0 15.54,-6.95 15.54,-15.54l0,-141.45c0,-8.59 -6.95,-15.54 -15.54,-15.54" id="path188"/>
   <path fill="#cfebea" fill-rule="nonzero" d="m2697.8297,1854.51699c-3.98,0 -7.95,1.52 -10.99,4.55l-100.02,100.01c-6.07,6.07 -6.07,15.9 0,21.97c6.06,6.07 15.9,6.07 21.97,0l100.02,-100.01c6.07,-6.07 6.07,-15.9 0,-21.97c-3.03,-3.03 -7.01,-4.55 -10.98,-4.55" id="path190"/>
   <path fill="#cfebea" fill-rule="nonzero" d="m2639.7697,1736.70699l-141.45,0c-8.59,0 -15.54,6.95 -15.54,15.53c0,8.59 6.95,15.54 15.54,15.54l141.45,0c8.59,0 15.54,-6.95 15.54,-15.54c0,-8.58 -6.95,-15.53 -15.54,-15.53" id="path192"/>
   <path fill="#cfebea" fill-rule="nonzero" d="m2582.0097,1512.33699c-3.98,0 -7.96,1.52 -10.99,4.56c-6.07,6.07 -6.07,15.9 0,21.97l100.03,100.03c6.07,6.06 15.9,6.06 21.97,0c6.07,-6.07 6.07,-15.91 0,-21.98l-100.03,-100.02c-3.03,-3.04 -7.01,-4.56 -10.98,-4.56" id="path194"/>
   <path fill="#cfebea" fill-rule="nonzero" d="m2799.8297,1412.87699c-8.59,0 -15.54,6.95 -15.54,15.54l0,141.43c0,8.59 6.95,15.54 15.54,15.54c8.59,0 15.54,-6.95 15.54,-15.54l0,-141.43c0,-8.59 -6.95,-15.54 -15.54,-15.54" id="path196"/>
   <path fill="#cfebea" fill-rule="nonzero" d="m3024.1897,1496.54699c-3.98,0 -7.95,1.52 -10.99,4.55l-100.01,100.03c-6.07,6.07 -6.07,15.9 0,21.97c6.07,6.07 15.9,6.07 21.98,0l100.01,-100.03c6.07,-6.07 6.07,-15.9 0,-21.97c-3.04,-3.03 -7.01,-4.55 -10.99,-4.55" id="path198"/>
   <path fill="#cfebea" fill-rule="nonzero" d="m3123.6697,1714.36699l-141.45,0c-8.59,0 -15.54,6.95 -15.54,15.54c0,8.59 6.95,15.54 15.54,15.54l141.45,0c8.59,0 15.54,-6.95 15.54,-15.54c0,-8.59 -6.95,-15.54 -15.54,-15.54" id="path200"/>
   <path fill="#cfebea" fill-rule="nonzero" d="m2939.9797,1838.71699c-3.98,0 -7.96,1.52 -10.99,4.55c-6.07,6.07 -6.07,15.91 0,21.98l100.01,100.01c6.07,6.07 15.9,6.07 21.97,0c6.07,-6.07 6.07,-15.91 0,-21.98l-100.01,-100.01c-3.03,-3.03 -7.01,-4.55 -10.98,-4.55" id="path202"/>
   <path fill="#cfebea" fill-rule="nonzero" d="m6984.2797,5297.61699c-46.9,0 -85,-38.13 -85,-85c0,-46.88 38.1,-85.01 85,-85.01c46.9,0 85,38.13 85,85.01c0,46.87 -38.1,85 -85,85zm0,-201.09c-64,0 -116.1,52.08 -116.1,116.09c0,64 52.1,116.08 116.1,116.08c64,0 116.1,-52.08 116.1,-116.08c0,-64.01 -52.1,-116.09 -116.1,-116.09" id="path204"/>
   <path fill="#cfebea" fill-rule="nonzero" d="m2309.7497,5877.42699c0,12.9 10.41,23.46 23.31,23.46c12.9,0 23.31,-10.41 23.31,-23.31c0,-12.73 -10.41,-23.31 -23.16,-23.31c-12.89,0 -23.46,10.43 -23.46,23.16zm131.46,-67.59c-9.02,9.17 -9.17,23.94 0,33.1c9.01,9.01 23.77,9.16 32.94,0c9.01,-9.02 9.16,-23.78 0.15,-32.95c-4.66,-4.5 -10.56,-6.82 -16.63,-6.82c-5.9,0 -11.81,2.17 -16.46,6.67zm-248.93,-0.62c-9,9.02 -9.17,23.78 0,32.94c9.01,9.17 23.77,9.17 32.94,0c9.18,-9.01 9.18,-23.77 0,-32.94c-4.51,-4.5 -10.41,-6.84 -16.46,-6.84c-5.91,0 -11.81,2.18 -16.48,6.84zm294.15,-107.67l0,0.62c0,12.88 10.25,23.31 23.15,23.31c12.88,0.15 23.31,-10.26 23.46,-23.16l0,-0.77c0,-12.9 -10.41,-23.48 -23.31,-23.48c-12.9,0 -23.3,10.58 -23.3,23.48zm-646.4,107.2c0,12.89 10.41,23.3 23.3,23.3c12.9,0 23.31,-10.41 23.31,-23.15c0,-12.9 -10.41,-23.46 -23.16,-23.46c-12.89,0 -23.45,10.41 -23.45,23.31zm307.5,-140.47c-9.02,9.01 -9.02,23.78 0,32.94c9.16,9.02 23.93,9.02 32.94,0c9.16,-9.16 9.16,-23.93 0,-32.94c-4.51,-4.66 -10.42,-6.84 -16.48,-6.84c-5.9,0 -11.81,2.18 -16.46,6.84zm-248.78,-0.32l-0.15,0c-9.02,9.02 -9.02,23.78 0,32.95c9.16,9.16 23.93,9.16 32.94,0c9.17,-9.02 9.17,-23.77 0.15,-32.95c-4.66,-4.5 -10.56,-6.83 -16.61,-6.83c-5.91,0 -11.83,2.33 -16.33,6.83zm117.63,-34.96c0,12.9 10.41,23.31 23.31,23.31c12.74,0 23.3,-10.41 23.3,-23.31c0,-12.73 -10.41,-23.31 -23.3,-23.31c-12.9,0 -23.31,10.41 -23.31,23.31zm23.31,-23.31l0,0" id="path206"/>
  </g>
 </g>
</svg>